<svg width="21" height="20" viewBox="0 0 21 20" fill="none" xmlns="http://www.w3.org/2000/svg">
<path fill-rule="evenodd" clip-rule="evenodd" d="M12.6 4.21053V2.10526H8.4V4.21053H12.6ZM2.1 6.31579V17.8947H18.9V6.31579H2.1ZM18.9 4.21053C20.0655 4.21053 21 5.14737 21 6.31579V17.8947C21 19.0632 20.0655 20 18.9 20H2.1C0.9345 20 0 19.0632 0 17.8947L0.0105 6.31579C0.0105 5.14737 0.9345 4.21053 2.1 4.21053H6.3V2.10526C6.3 0.936842 7.2345 0 8.4 0H12.6C13.7655 0 14.7 0.936842 14.7 2.10526V4.21053H18.9Z" fill="white"/>
</svg>
