<svg width="24" height="23" viewBox="0 0 24 23" fill="none" xmlns="http://www.w3.org/2000/svg">
<path d="M23.7943 12.5808C23.792 12.5785 23.7897 12.5762 23.7875 12.5739C23.4315 12.2195 22.8871 12.1366 22.4356 12.3565C18.3643 14.3387 18.1349 15.5199 15.5268 15.6243H15.5259C15.0683 15.6463 14.4618 15.6447 14.0039 15.6342H14.002C13.7169 15.6342 13.4567 15.4592 13.3611 15.1906C13.1807 14.6837 13.5578 14.2176 14.0339 14.2279H14.0344C14.0353 14.2284 14.0358 14.2284 14.0362 14.2284C14.5636 14.2401 15.0787 14.2368 15.4523 14.22C15.4556 14.22 15.4584 14.2195 15.4612 14.2195C16.9781 14.1293 17.5545 13.6166 18.4686 12.9628C18.2296 11.7263 16.9813 10.9819 15.7912 11.3401C15.4359 11.4465 14.8453 11.4333 14.0972 11.4165C11.5772 11.3602 9.10748 12.3525 7.31972 14.1403L0.205191 21.3017C-0.234953 21.7441 0.0800381 22.5002 0.703926 22.5002H7.70216C7.98809 22.5002 8.24589 22.3268 8.3537 22.0619C9.796 18.5164 11.3794 18.3889 13.9448 18.4461C16.115 18.4939 18.8159 18.5534 21.8055 15.5638L23.7943 13.575C24.0685 13.3003 24.0685 12.8555 23.7943 12.5808Z" fill="white"/>
<path d="M7.21946 9.84359H22.6878C23.0761 9.84359 23.3909 9.52878 23.3909 9.14048V7.03117C23.3909 5.4804 22.1292 4.21875 20.5784 4.21875C19.0277 4.21875 17.766 5.4804 17.766 7.03117C17.766 5.4804 16.5044 4.21875 14.9536 4.21875C13.4028 4.21875 12.1412 5.4804 12.1412 7.03117C12.1412 5.4804 10.8795 4.21875 9.32877 4.21875C7.77801 4.21875 6.51636 5.4804 6.51636 7.03117V9.14048C6.51636 9.52878 6.83111 9.84359 7.21946 9.84359Z" fill="white"/>
<path d="M9.2348 4.21863C10.3997 4.21863 11.3441 3.27425 11.3441 2.10931C11.3441 0.944372 10.3997 0 9.2348 0C8.06986 0 7.12549 0.944372 7.12549 2.10931C7.12549 3.27425 8.06986 4.21863 9.2348 4.21863Z" fill="white"/>
<path d="M14.8598 4.21863C16.0247 4.21863 16.9691 3.27425 16.9691 2.10931C16.9691 0.944372 16.0247 0 14.8598 0C13.6949 0 12.7505 0.944372 12.7505 2.10931C12.7505 3.27425 13.6949 4.21863 14.8598 4.21863Z" fill="white"/>
<path d="M20.4846 4.21863C21.6495 4.21863 22.5939 3.27425 22.5939 2.10931C22.5939 0.944372 21.6495 0 20.4846 0C19.3196 0 18.3752 0.944372 18.3752 2.10931C18.3752 3.27425 19.3196 4.21863 20.4846 4.21863Z" fill="white"/>
</svg>
