<svg width="16" height="16" viewBox="0 0 16 16" fill="none" xmlns="http://www.w3.org/2000/svg">
<path d="M15.3109 1.20473e-06H0.689296C0.431248 -0.000474686 0.194826 0.140071 0.0769405 0.363897C-0.0425712 0.590737 -0.0215957 0.863897 0.131087 1.07107L5.48781 8.4329C5.4896 8.43544 5.49155 8.43782 5.49334 8.44036C5.68798 8.6967 5.79334 9.0073 5.79383 9.3263V15.3284C5.79269 15.506 5.86424 15.6769 5.99253 15.803C6.12098 15.9289 6.29562 16 6.47773 16C6.57025 15.9998 6.66196 15.9819 6.74748 15.9472L9.75755 14.8276C10.0271 14.7471 10.2062 14.4989 10.2062 14.2V9.3263C10.2067 9.0073 10.312 8.6967 10.5065 8.44036C10.5083 8.43782 10.5102 8.43544 10.512 8.4329L15.8689 1.07091C16.0216 0.863897 16.0426 0.590896 15.9231 0.364056C15.8053 0.140071 15.5688 -0.000474686 15.3109 1.20473e-06Z" fill="#404040"/>
</svg>
