<svg width="16" height="16" viewBox="0 0 16 16" fill="none" xmlns="http://www.w3.org/2000/svg">
<path fill-rule="evenodd" clip-rule="evenodd" d="M6.73684 2.24561V1.12281H4.49123V2.24561H6.73684ZM1.12281 3.36842V9.54386H10.1053V3.36842H1.12281ZM10.1053 2.24561C10.7284 2.24561 11.2281 2.74526 11.2281 3.36842V9.54386C11.2281 10.167 10.7284 10.6667 10.1053 10.6667H1.12281C0.499649 10.6667 0 10.167 0 9.54386L0.00561403 3.36842C0.00561403 2.74526 0.499649 2.24561 1.12281 2.24561H3.36842V1.12281C3.36842 0.499649 3.86807 0 4.49123 0H6.73684C7.36 0 7.85965 0.499649 7.85965 1.12281V2.24561H10.1053Z" fill="white"/>
<path d="M14.2222 5.33301H8.29627C7.64442 5.33301 7.11701 5.86634 7.11701 6.51819L7.11108 15.9997L11.2592 14.2219L15.4074 15.9997V6.51819C15.4074 5.86634 14.874 5.33301 14.2222 5.33301Z" fill="white"/>
</svg>
