<svg id="bold" enable-background="new 0 0 24 24" height="512" viewBox="0 0 24 24" width="512" xmlns="http://www.w3.org/2000/svg"><path d="m17.5 11c-3.584 0-6.5 2.916-6.5 6.5s2.916 6.5 6.5 6.5 6.5-2.916 6.5-6.5-2.916-6.5-6.5-6.5zm0 1.5c1.108 0 2.123.374 2.953.987l-6.967 6.966c-.612-.83-.986-1.845-.986-2.953 0-2.757 2.243-5 5-5zm0 10c-1.108 0-2.123-.374-2.953-.987l6.967-6.966c.612.83.986 1.845.986 2.953 0 2.757-2.243 5-5 5z"/><path d="m8.84 15h-4.09c-.414 0-.75-.336-.75-.75s.336-.75.75-.75h4.09c.414 0 .75.336.75.75s-.336.75-.75.75z"/><path d="m8.25 18h-3.5c-.414 0-.75-.336-.75-.75s.336-.75.75-.75h3.5c.414 0 .75.336.75.75s-.336.75-.75.75z"/><path d="m8.25 21h-5.5c-1.517 0-2.75-1.233-2.75-2.75v-15.5c0-1.517 1.233-2.75 2.75-2.75h11.5c1.517 0 2.75 1.233 2.75 2.75v5.56c0 .414-.336.75-.75.75s-.75-.336-.75-.75v-5.56c0-.689-.561-1.25-1.25-1.25h-11.5c-.689 0-1.25.561-1.25 1.25v15.5c0 .689.561 1.25 1.25 1.25h5.5c.414 0 .75.336.75.75s-.336.75-.75.75z"/><circle cx="8.5" cy="5" r="2"/><path d="m11.75 12h-6.5c-.414 0-.75-.336-.75-.75v-.5c0-1.517 1.233-2.75 2.75-2.75h2.5c1.517 0 2.75 1.233 2.75 2.75v.5c0 .414-.336.75-.75.75z"/></svg>