<svg width="17" height="16" viewBox="0 0 17 16" fill="none" xmlns="http://www.w3.org/2000/svg">
<path d="M6.51852 0L0 3.55556L2.37037 4.84741V8.40296L6.51852 10.6667L10.6667 8.40296V4.84741L11.8519 4.20148V8.2963H13.037V3.55556L6.51852 0ZM10.56 3.55556L6.51852 5.76L2.47704 3.55556L6.51852 1.35111L10.56 3.55556ZM9.48148 7.69778L6.51852 9.31556L3.55556 7.69778V5.49333L6.51852 7.11111L9.48148 5.49333V7.69778Z" fill="white"/>
<path d="M15.1111 5.33301H9.18519C8.53333 5.33301 8.00593 5.86634 8.00593 6.51819L8 15.9997L12.1481 14.2219L16.2963 15.9997V6.51819C16.2963 5.86634 15.763 5.33301 15.1111 5.33301Z" fill="white"/>
</svg>
