<svg width="22" height="24" viewBox="0 0 22 24" fill="none" xmlns="http://www.w3.org/2000/svg">
<path d="M3.96875 0C2.03023 0 0.453125 1.57711 0.453125 3.51562V24H17.3281V7.03125H21.5469V2.8125C21.5469 1.26169 20.2852 0 18.7344 0H3.96875ZM15.9219 22.5938H1.85938V3.51562C1.85938 2.35252 2.80564 1.40625 3.96875 1.40578H16.3002C16.0601 1.8203 15.9219 2.30039 15.9219 2.8125V22.5938ZM20.1406 2.8125V5.625H17.3281V2.8125C17.3281 2.03709 17.959 1.40625 18.7344 1.40625C19.5098 1.40625 20.1406 2.03709 20.1406 2.8125Z" fill="white"/>
<path d="M3.26562 12.6562H11.7031V14.0625H3.26562V12.6562Z" fill="white"/>
<path d="M3.26562 4.21875H14.5156V5.625H3.26562V4.21875Z" fill="white"/>
<path d="M3.26562 7.03125H13.1094V8.4375H3.26562V7.03125Z" fill="white"/>
<path d="M3.26562 9.84375H14.5156V11.25H3.26562V9.84375Z" fill="white"/>
<path d="M3.26562 15.4688H13.1094V16.875H3.26562V15.4688Z" fill="white"/>
<path d="M3.26562 18.2812H10.2969V19.6875H3.26562V18.2812Z" fill="white"/>
</svg>
