<svg width="24" height="24" viewBox="0 0 24 24" fill="none" xmlns="http://www.w3.org/2000/svg">
<g clip-path="url(#clip0)">
<path d="M13.03 1.86974L2.04 0.199736C1.53 0.119736 1.01 0.259736 0.62 0.589736C0.23 0.929736 0 1.41974 0 1.92974V22.9997C0 23.5497 0.45 23.9997 1 23.9997H4.25V18.7497C4.25 17.7797 5.03 16.9997 6 16.9997H8.5C9.47 16.9997 10.25 17.7797 10.25 18.7497V23.9997H14.5V3.59974C14.5 2.73974 13.88 2.00974 13.03 1.86974ZM5.5 14.7497H4C3.586 14.7497 3.25 14.4137 3.25 13.9997C3.25 13.5857 3.586 13.2497 4 13.2497H5.5C5.914 13.2497 6.25 13.5857 6.25 13.9997C6.25 14.4137 5.914 14.7497 5.5 14.7497ZM5.5 11.7497H4C3.586 11.7497 3.25 11.4137 3.25 10.9997C3.25 10.5857 3.586 10.2497 4 10.2497H5.5C5.914 10.2497 6.25 10.5857 6.25 10.9997C6.25 11.4137 5.914 11.7497 5.5 11.7497ZM5.5 8.74974H4C3.586 8.74974 3.25 8.41374 3.25 7.99974C3.25 7.58574 3.586 7.24974 4 7.24974H5.5C5.914 7.24974 6.25 7.58574 6.25 7.99974C6.25 8.41374 5.914 8.74974 5.5 8.74974ZM5.5 5.74974H4C3.586 5.74974 3.25 5.41374 3.25 4.99974C3.25 4.58574 3.586 4.24974 4 4.24974H5.5C5.914 4.24974 6.25 4.58574 6.25 4.99974C6.25 5.41374 5.914 5.74974 5.5 5.74974ZM10.5 14.7497H9C8.586 14.7497 8.25 14.4137 8.25 13.9997C8.25 13.5857 8.586 13.2497 9 13.2497H10.5C10.914 13.2497 11.25 13.5857 11.25 13.9997C11.25 14.4137 10.914 14.7497 10.5 14.7497ZM10.5 11.7497H9C8.586 11.7497 8.25 11.4137 8.25 10.9997C8.25 10.5857 8.586 10.2497 9 10.2497H10.5C10.914 10.2497 11.25 10.5857 11.25 10.9997C11.25 11.4137 10.914 11.7497 10.5 11.7497ZM10.5 8.74974H9C8.586 8.74974 8.25 8.41374 8.25 7.99974C8.25 7.58574 8.586 7.24974 9 7.24974H10.5C10.914 7.24974 11.25 7.58574 11.25 7.99974C11.25 8.41374 10.914 8.74974 10.5 8.74974ZM10.5 5.74974H9C8.586 5.74974 8.25 5.41374 8.25 4.99974C8.25 4.58574 8.586 4.24974 9 4.24974H10.5C10.914 4.24974 11.25 4.58574 11.25 4.99974C11.25 5.41374 10.914 5.74974 10.5 5.74974Z" fill="white"/>
<path d="M22.62 10.8426L15.5 9.35156V24.0006H22.25C23.215 24.0006 24 23.2156 24 22.2506V12.5526C24 11.7266 23.437 11.0236 22.62 10.8426ZM20.25 21.0006H18.75C18.336 21.0006 18 20.6646 18 20.2506C18 19.8366 18.336 19.5006 18.75 19.5006H20.25C20.664 19.5006 21 19.8366 21 20.2506C21 20.6646 20.664 21.0006 20.25 21.0006ZM20.25 18.0006H18.75C18.336 18.0006 18 17.6646 18 17.2506C18 16.8366 18.336 16.5006 18.75 16.5006H20.25C20.664 16.5006 21 16.8366 21 17.2506C21 17.6646 20.664 18.0006 20.25 18.0006ZM20.25 15.0006H18.75C18.336 15.0006 18 14.6646 18 14.2506C18 13.8366 18.336 13.5006 18.75 13.5006H20.25C20.664 13.5006 21 13.8366 21 14.2506C21 14.6646 20.664 15.0006 20.25 15.0006Z" fill="white"/>
</g>
<defs>
<clipPath id="clip0">
<rect width="24" height="24" fill="white"/>
</clipPath>
</defs>
</svg>
