<?xml version="1.0" encoding="iso-8859-1"?>
<!-- Generator: Adobe Illustrator 18.0.0, SVG Export Plug-In . SVG Version: 6.00 Build 0)  -->
<!DOCTYPE svg PUBLIC "-//W3C//DTD SVG 1.1//EN" "http://www.w3.org/Graphics/SVG/1.1/DTD/svg11.dtd">
<svg version="1.1" id="Capa_1" xmlns="http://www.w3.org/2000/svg" xmlns:xlink="http://www.w3.org/1999/xlink" x="0px" y="0px"
	 viewBox="0 0 66.026 66.026" style="enable-background:new 0 0 66.026 66.026;" xml:space="preserve">
<path style="fill:#231F20;" d="M64.685,34.226c-0.011-0.02-0.016-0.043-0.027-0.063c-0.003-0.006-0.012-0.022-0.018-0.031
	c-0.395-0.857-0.864-1.671-1.406-2.432c-2.264-3.896-6.633-11.309-8.759-14.234c-2.62-3.603-5.673-6.936-10.234-6.936
	c-1.006,0-2.059,0.171-3.128,0.507c-3.262,1.029-6.436,2.685-7.396,6.708H32.31c-0.96-4.023-4.134-5.679-7.397-6.708
	c-1.068-0.336-2.121-0.507-3.127-0.507c-4.562,0-7.614,3.333-10.235,6.937C9.425,20.392,5.057,27.805,2.792,31.7
	c-0.542,0.762-1.011,1.575-1.406,2.432c-0.005,0.009-0.014,0.025-0.018,0.031c-0.011,0.02-0.016,0.042-0.027,0.063
	C0.487,36.116,0,38.206,0,40.412c0,8.317,6.767,15.084,15.084,15.084c4.867,0,9.191-2.327,11.95-5.917h11.958
	c2.76,3.59,7.083,5.917,11.95,5.917c8.317,0,15.084-6.767,15.084-15.084C66.026,38.206,65.539,36.116,64.685,34.226z M15.084,50.496
	C9.523,50.496,5,45.972,5,40.412c0-5.56,4.523-10.083,10.084-10.083c5.56,0,10.083,4.523,10.083,10.083
	C25.167,45.972,20.644,50.496,15.084,50.496z M50.942,50.496c-5.56,0-10.083-4.523-10.083-10.084c0-5.56,4.523-10.083,10.083-10.083
	c5.561,0,10.084,4.523,10.084,10.083C61.026,45.972,56.503,50.496,50.942,50.496z"/>
<g>
</g>
<g>
</g>
<g>
</g>
<g>
</g>
<g>
</g>
<g>
</g>
<g>
</g>
<g>
</g>
<g>
</g>
<g>
</g>
<g>
</g>
<g>
</g>
<g>
</g>
<g>
</g>
<g>
</g>
</svg>
