<svg width="93" height="16" viewBox="0 0 93 16" fill="none" xmlns="http://www.w3.org/2000/svg">
<path d="M2.36133 0H0.32959V2.48654H2.36133V0Z" fill="#FF0000"/>
<path d="M2.33975 5.08398H0.32959V15.7585H2.33975V5.08398Z" fill="white"/>
<path d="M11.528 5.08398C13.2362 5.08398 14.5044 5.49222 15.3327 6.3087C16.1609 7.12517 16.575 8.27102 16.575 9.75552V15.7585H14.5433V9.75552C14.5433 8.90657 14.306 8.26174 13.8315 7.81639C13.357 7.37104 12.5892 7.14837 11.528 7.14837H8.2453C8.08138 7.14837 7.99942 7.25042 7.99942 7.4499V15.7585H5.98926V6.74477C5.98926 6.10922 6.0971 5.67778 6.31278 5.44119C6.52847 5.2046 6.8865 5.08862 7.39551 5.08862H11.528V5.08398Z" fill="white"/>
<path d="M29.1972 5.08398V7.14373H24.2235C23.3522 7.14373 22.7137 7.39887 22.3169 7.91381C21.92 8.42411 21.7173 9.25914 21.7173 10.4189C21.7173 11.5787 21.9157 12.4091 22.3169 12.9147C22.7137 13.4204 23.3522 13.6709 24.2235 13.6709H29.1972V15.7538H24.0337C22.6922 15.7538 21.631 15.3177 20.8546 14.441C20.0781 13.5642 19.6855 12.2235 19.6855 10.4189C19.6855 8.61431 20.0738 7.27362 20.8546 6.39684C21.631 5.52006 22.6922 5.08398 24.0337 5.08398H29.1972Z" fill="white"/>
<path d="M34.3569 0H32.3467V15.7589H34.3569V0Z" fill="white"/>
<path d="M39.9755 5.08398V11.472C39.9755 12.1075 40.1869 12.6317 40.6096 13.0492C41.0323 13.4668 41.6449 13.6755 42.4429 13.6755H44.0735C44.8715 13.6755 45.4797 13.4668 45.8938 13.0492C46.3123 12.6317 46.5193 12.1075 46.5193 11.472V5.08398H48.495V11.5508C48.495 12.1725 48.4044 12.7384 48.2189 13.2487C48.0334 13.759 47.7617 14.1997 47.395 14.5709C47.0283 14.942 46.5754 15.2296 46.0362 15.4384C45.497 15.6471 44.8672 15.7538 44.1468 15.7538H42.2876C41.5672 15.7538 40.9374 15.6471 40.3982 15.4384C39.859 15.2296 39.4061 14.9373 39.0394 14.5709C38.6728 14.1997 38.3967 13.759 38.2155 13.2487C38.03 12.7384 37.9395 12.1725 37.9395 11.5508V5.08398H39.9755Z" fill="white"/>
<path d="M60.4366 5.08447V7.14422H54.8978C54.4277 7.14422 54.0955 7.24627 53.8928 7.44575C53.69 7.64523 53.5908 7.95141 53.5908 8.35501C53.5908 8.73077 53.69 9.01839 53.8841 9.21324C54.0783 9.40808 54.4579 9.5055 55.0143 9.5055H57.3696C58.0641 9.5055 58.6378 9.58436 59.0864 9.74673C59.535 9.90909 59.8887 10.1225 60.1476 10.3916C60.4064 10.6606 60.5876 10.9761 60.6868 11.3426C60.7903 11.7044 60.8377 12.0987 60.8377 12.5162C60.8377 12.9894 60.7774 13.4209 60.6566 13.8198C60.5358 14.2188 60.3417 14.5574 60.0785 14.8404C59.8111 15.1234 59.4703 15.3461 59.0519 15.5084C58.6335 15.6708 58.1331 15.7497 57.5507 15.7497H51.723V13.6667H57.5507C58.0166 13.6667 58.3531 13.5739 58.5558 13.393C58.7586 13.2121 58.8578 12.9106 58.8578 12.493C58.8578 12.0616 58.7456 11.7554 58.5256 11.5745C58.3056 11.3936 57.939 11.3008 57.4343 11.3008H55.0618C54.3673 11.3008 53.7979 11.2173 53.3536 11.0503C52.9093 10.8833 52.5598 10.6513 52.301 10.3637C52.0422 10.0761 51.861 9.74209 51.7618 9.36169C51.6583 8.98592 51.6108 8.5916 51.6108 8.188C51.6108 7.23236 51.8653 6.47155 52.37 5.91486C52.8747 5.35818 53.7116 5.0752 54.8763 5.0752H60.4366V5.08447Z" fill="white"/>
<path d="M66.0005 0H63.9688V2.48654H66.0005V0Z" fill="#FF0000"/>
<path d="M65.9789 5.08398H63.9688V15.7585H65.9789V5.08398Z" fill="white"/>
<path d="M70.667 5.08398L74.0058 13.657C74.0834 13.8704 74.2473 13.9817 74.4975 13.9817C74.765 13.9817 74.9418 13.875 75.0281 13.657L78.5006 5.08398H80.6661L76.7924 14.6033C76.5767 15.1136 76.2834 15.4755 75.9081 15.6842C75.5328 15.893 75.0626 15.9997 74.4932 15.9997C73.9109 15.9997 73.4321 15.893 73.0611 15.675C72.6858 15.4616 72.4054 15.1044 72.2156 14.6033L68.5317 5.08398H70.667Z" fill="white"/>
<path d="M91.8093 6.41149C91.0242 5.53007 89.9674 5.08936 88.6388 5.08936H86.5337C85.1922 5.08936 84.131 5.53007 83.3546 6.40221C82.5781 7.27899 82.1855 8.61968 82.1855 10.4243C82.1855 12.2289 82.5738 13.5696 83.3546 14.4463C84.131 15.3231 85.1922 15.7592 86.5337 15.7592H88.6388C89.9674 15.7592 91.0242 15.3231 91.8093 14.4463C92.5944 13.5696 92.9869 12.2289 92.9869 10.4243C92.9869 8.62896 92.5944 7.29291 91.8093 6.41149ZM90.3599 12.9201C89.9631 13.4257 89.3246 13.6763 88.4533 13.6763H86.7278C85.8565 13.6763 85.218 13.4257 84.8212 12.9201C84.4243 12.4144 84.2216 11.584 84.2216 10.4243C84.2216 9.26451 84.42 8.42948 84.8212 7.91918C85.218 7.40888 85.8565 7.1491 86.7278 7.1491H88.4533C89.3246 7.1491 89.9631 7.40425 90.3599 7.91918C90.7568 8.42948 90.9595 9.26451 90.9595 10.4243C90.9552 11.584 90.7568 12.4144 90.3599 12.9201Z" fill="white"/>
</svg>
