<svg width="287" height="46" viewBox="0 0 287 46" fill="none" xmlns="http://www.w3.org/2000/svg">
<path d="M6.28183 0H0V7.14875H6.28183V0Z" fill="#FF0000"/>
<path d="M6.21514 14.6176H0V45.3065H6.21514V14.6176Z" fill="#3668CC"/>
<path d="M34.6235 14.6176C39.9051 14.6176 43.8262 15.7912 46.3869 18.1386C48.9477 20.4859 50.2281 23.7802 50.2281 28.0481V45.3065H43.9462V28.0481C43.9462 25.6074 43.2127 23.7535 41.7456 22.4732C40.2785 21.1928 37.9045 20.5526 34.6235 20.5526H24.4739C23.9671 20.5526 23.7137 20.846 23.7137 21.4195V45.3065H17.4985V19.3923C17.4985 17.5651 17.832 16.3247 18.4988 15.6445C19.1657 14.9643 20.2727 14.6309 21.8465 14.6309H34.6235V14.6176Z" fill="#3668CC"/>
<path d="M89.2528 14.6176V20.5393H73.875C71.1809 20.5393 69.207 21.2728 67.9799 22.7533C66.7529 24.2203 66.1261 26.621 66.1261 29.9554C66.1261 33.2897 66.7396 35.677 67.9799 37.1308C69.207 38.5845 71.1809 39.3047 73.875 39.3047H89.2528V45.2932H73.2882C69.1403 45.2932 65.8593 44.0395 63.4586 41.5187C61.0579 38.998 59.8442 35.1435 59.8442 29.9554C59.8442 24.7672 61.0446 20.9127 63.4586 18.392C65.8593 15.8713 69.1403 14.6176 73.2882 14.6176H89.2528Z" fill="#3668CC"/>
<path d="M105.204 0H98.9888V45.3065H105.204V0Z" fill="black"/>
<path d="M122.583 14.6176V32.9829C122.583 34.8101 123.236 36.3172 124.543 37.5176C125.85 38.7179 127.744 39.3181 130.212 39.3181H135.253C137.721 39.3181 139.601 38.7179 140.881 37.5176C142.175 36.3172 142.815 34.8101 142.815 32.9829V14.6176H148.924V33.2096C148.924 34.9968 148.644 36.624 148.07 38.0911C147.497 39.5581 146.656 40.8252 145.523 41.8922C144.389 42.9591 142.989 43.786 141.322 44.3862C139.654 44.9864 137.707 45.2932 135.48 45.2932H129.732C127.504 45.2932 125.557 44.9864 123.89 44.3862C122.223 43.786 120.822 42.9458 119.689 41.8922C118.555 40.8252 117.701 39.5581 117.141 38.0911C116.568 36.624 116.288 34.9968 116.288 33.2096V14.6176H122.583Z" fill="black"/>
<path d="M185.841 14.6175V20.5392H168.716C167.262 20.5392 166.235 20.8326 165.608 21.4061C164.981 21.9796 164.675 22.8599 164.675 24.0202C164.675 25.1005 164.981 25.9275 165.581 26.4876C166.182 27.0478 167.355 27.3279 169.076 27.3279H176.358C178.505 27.3279 180.279 27.5546 181.666 28.0214C183.053 28.4882 184.147 29.1017 184.947 29.8753C185.747 30.6488 186.307 31.5558 186.614 32.6094C186.934 33.6497 187.081 34.7834 187.081 35.9837C187.081 37.3441 186.894 38.5845 186.521 39.7315C186.147 40.8785 185.547 41.8521 184.734 42.6657C183.907 43.4792 182.853 44.1194 181.559 44.5862C180.266 45.053 178.719 45.2798 176.918 45.2798H158.9V39.2913H176.918C178.358 39.2913 179.399 39.0246 180.026 38.5045C180.653 37.9843 180.959 37.1174 180.959 35.917C180.959 34.6767 180.613 33.7964 179.932 33.2763C179.252 32.7561 178.118 32.4894 176.558 32.4894H169.223C167.075 32.4894 165.315 32.2493 163.941 31.7692C162.567 31.289 161.487 30.6222 160.687 29.7952C159.886 28.9683 159.326 28.0081 159.02 26.9144C158.699 25.8341 158.553 24.7004 158.553 23.5401C158.553 20.7926 159.34 18.6053 160.9 17.0049C162.461 15.4044 165.048 14.5908 168.649 14.5908H185.841V14.6175Z" fill="black"/>
<path d="M203.046 0H196.764V7.14875H203.046V0Z" fill="#FF0000"/>
<path d="M202.979 14.6176H196.764V45.3065H202.979V14.6176Z" fill="black"/>
<path d="M217.477 14.6176L227.8 39.2647C228.04 39.8782 228.547 40.1983 229.32 40.1983C230.147 40.1983 230.694 39.8916 230.961 39.2647L241.697 14.6176H248.393L236.416 41.9855C235.749 43.4526 234.842 44.4929 233.682 45.0931C232.521 45.6933 231.068 46 229.307 46C227.507 46 226.026 45.6933 224.879 45.0664C223.719 44.4529 222.852 43.4259 222.265 41.9855L210.875 14.6176H217.477Z" fill="black"/>
<path d="M282.842 18.4321C280.415 15.898 277.147 14.631 273.039 14.631H266.531C262.383 14.631 259.102 15.898 256.701 18.4054C254.301 20.9261 253.087 24.7806 253.087 29.9688C253.087 35.157 254.287 39.0114 256.701 41.5321C259.102 44.0529 262.383 45.3066 266.531 45.3066H273.039C277.147 45.3066 280.415 44.0529 282.842 41.5321C285.27 39.0114 286.483 35.157 286.483 29.9688C286.483 24.8073 285.27 20.9662 282.842 18.4321ZM278.361 37.1442C277.134 38.598 275.16 39.3182 272.466 39.3182H267.131C264.437 39.3182 262.463 38.598 261.236 37.1442C260.009 35.6904 259.382 33.3031 259.382 29.9688C259.382 26.6345 259.996 24.2338 261.236 22.7667C262.463 21.2996 264.437 20.5527 267.131 20.5527H272.466C275.16 20.5527 277.134 21.2863 278.361 22.7667C279.588 24.2338 280.215 26.6345 280.215 29.9688C280.201 33.3031 279.588 35.6904 278.361 37.1442Z" fill="black"/>
</svg>
