<svg width="40" height="20" viewBox="0 0 40 20" fill="none" xmlns="http://www.w3.org/2000/svg">
<path d="M2.80528 0H0V3.10812H2.80528V0Z" fill="#FF0000"/>
<path d="M2.77548 6.35571H0V19.6986H2.77548V6.35571Z" fill="white"/>
<path d="M15.4615 6.35571C17.82 6.35571 19.5711 6.866 20.7147 7.88658C21.8582 8.90715 22.43 10.3394 22.43 12.195V19.6986H19.6247V12.195C19.6247 11.1339 19.2971 10.3278 18.642 9.77116C17.9868 9.21448 16.9266 8.93614 15.4615 8.93614H10.929C10.7026 8.93614 10.5895 9.06372 10.5895 9.31306V19.6986H7.81396V8.43166C7.81396 7.63723 7.96286 7.09795 8.26066 6.80221C8.55846 6.50648 9.05281 6.36151 9.75562 6.36151H15.4615V6.35571Z" fill="white"/>
<path d="M39.8576 6.35571V8.93034H32.9903C31.7872 8.93034 30.9057 9.24927 30.3578 9.89293C29.8098 10.5308 29.5299 11.5746 29.5299 13.0242C29.5299 14.4739 29.8039 15.5119 30.3578 16.144C30.9057 16.776 31.7872 17.0891 32.9903 17.0891H39.8576V19.6928H32.7283C30.8759 19.6928 29.4108 19.1477 28.3387 18.0517C27.2666 16.9558 26.7246 15.2799 26.7246 13.0242C26.7246 10.7685 27.2607 9.09271 28.3387 7.99675C29.4108 6.90079 30.8759 6.35571 32.7283 6.35571H39.8576Z" fill="white"/>
</svg>
