<svg width="685" height="450" viewBox="0 0 685 450" fill="none" xmlns="http://www.w3.org/2000/svg">
<path d="M54.1327 447.777C54.1327 447.777 -29.6879 334.708 11.2766 218.307C37.9782 142.432 138.14 100.857 194.666 142.432C218.741 160.14 295.982 143.029 337.223 69.7191C417.365 -72.7401 697.064 13.7765 646.143 232.501C621.5 338.347 721.139 342.196 670.37 448L54.1327 447.777Z" fill="#C8E6FF"/>
<path d="M137.706 308.532C137.706 308.532 130.596 300.238 137.268 294.969C137.268 294.969 142.141 292.02 146.115 292.259C146.115 292.259 140.485 301.699 142.306 302.638C144.128 303.577 147.821 291.666 147.821 291.666C147.821 291.666 158.911 290.591 162.478 292.305C162.478 292.305 152.998 300.062 154.996 300.523C156.993 300.985 167.232 293.372 167.232 293.372C167.232 293.372 177.552 295.128 177.001 301.425C176.45 307.721 172.895 309.664 171.332 309.498C169.768 309.331 160.625 305.841 160.426 307.122C160.227 308.402 165.731 312.588 169.586 312.783C169.586 312.783 162.308 320.808 157.473 318.492C152.638 316.176 152.225 312.506 149.211 311.129C146.197 309.752 143.623 309.756 144.868 311.161C146.113 312.565 151.569 313.929 153.292 316.979C155.014 320.029 156.561 322.085 151.558 321.332C146.555 320.58 138.423 316.918 138.064 312.726C137.706 308.532 137.706 308.532 137.706 308.532Z" fill="#8CB4F4"/>
<path d="M171.929 301.597C171.929 301.597 143.897 300.518 137.706 308.533C137.706 308.533 136.337 312.632 132.124 316.367L131.468 318.157C131.468 318.157 136.327 313.035 138.064 312.727C138.062 312.724 135.346 302.794 171.929 301.597Z" fill="#8CB4F4"/>
<path d="M132.124 316.367C132.124 316.367 126.107 320.817 125.689 328.767L126.781 328.865C126.781 328.865 128.703 320.645 132.177 317.43C135.65 314.214 132.124 316.367 132.124 316.367Z" fill="#8CB4F4"/>
<path d="M112.85 298.101C112.85 298.101 124.16 291.767 118.882 283.173C118.882 283.173 114.661 277.895 110.135 276.539C110.135 276.539 112.548 289.356 110.135 289.658C107.723 289.96 108.477 275.181 108.477 275.181C108.477 275.181 96.5639 269.451 91.8899 269.904C91.8899 269.904 99.2782 282.419 96.8657 282.117C94.4532 281.815 86.1595 269.149 86.1595 269.149C86.1595 269.149 73.9462 266.887 71.9843 274.125C70.0246 281.362 73.1916 284.982 75.0005 285.435C76.8093 285.887 88.421 285.737 88.1192 287.244C87.8174 288.751 79.9763 291.165 75.6041 289.807C75.6041 289.807 80.4291 301.718 86.7631 301.117C93.0972 300.513 95.0569 296.594 98.9764 296.292C102.898 295.99 105.761 297.046 103.801 298.101C101.842 299.157 95.2057 298.447 92.0387 301.14C88.8717 303.831 86.3083 305.491 92.1896 306.696C98.0709 307.904 108.626 307.149 110.737 302.626C112.85 298.101 112.85 298.101 112.85 298.101Z" fill="#8CB4F4"/>
<path d="M77.564 276.389C77.564 276.389 109.23 286.642 112.85 298.103C112.85 298.103 112.699 303.23 115.866 309.111V311.373C115.866 311.373 112.548 303.683 110.739 302.626C110.737 302.626 117.826 292.674 77.564 276.389Z" fill="#8CB4F4"/>
<path d="M115.864 309.109C115.864 309.109 120.748 316.525 117.964 325.552L116.709 325.215C116.709 325.215 117.929 315.271 115.374 310.27C112.819 305.271 115.864 309.109 115.864 309.109Z" fill="#8CB4F4"/>
<path d="M130.842 289.367C130.842 289.367 115.933 281.018 122.891 269.687C122.891 269.687 128.456 262.731 134.419 260.941C134.419 260.941 131.24 277.837 134.419 278.235C137.599 278.633 136.605 259.153 136.605 259.153C136.605 259.153 152.309 251.599 158.471 252.197C158.471 252.197 148.731 268.694 151.91 268.298C155.09 267.9 166.023 251.203 166.023 251.203C166.023 251.203 182.124 248.22 184.706 257.763C187.29 267.304 183.115 272.075 180.73 272.672C178.345 273.267 163.04 273.07 163.436 275.057C163.834 277.044 174.17 280.226 179.934 278.436C179.934 278.436 173.572 294.139 165.224 293.345C156.876 292.55 154.291 287.382 149.123 286.983C143.954 286.585 140.177 287.977 142.761 289.369C145.346 290.76 154.092 289.826 158.265 293.374C162.438 296.923 165.819 299.109 158.066 300.7C150.313 302.29 136.4 301.295 133.617 295.332C130.842 289.367 130.842 289.367 130.842 289.367Z" fill="#8CB4F4"/>
<path d="M177.353 260.744C177.353 260.744 135.612 274.261 130.841 289.366C130.841 289.366 131.04 296.124 126.865 303.877V306.859C126.865 306.859 131.237 296.721 133.623 295.332C133.625 295.329 124.281 282.211 177.353 260.744Z" fill="#8CB4F4"/>
<path d="M126.865 303.877C126.865 303.877 120.429 313.652 124.099 325.551L125.755 325.107C125.755 325.107 124.147 312.001 127.515 305.409C130.883 298.817 126.865 303.877 126.865 303.877Z" fill="#8CB4F4"/>
<path d="M130.338 351.357C146.467 351.357 159.54 338.282 159.54 322.154H101.137C101.137 338.282 114.212 351.357 130.338 351.357Z" fill="#8CB4F4"/>
<path d="M159.944 352.843H100.733C100.733 350.854 102.347 349.24 104.336 349.24H156.341C158.33 349.24 159.944 350.852 159.944 352.843Z" fill="#8CB4F4"/>
<path d="M160.206 322.154H100.177V323.049H160.206V322.154Z" fill="#8CB4F4"/>
<path d="M281.022 447.68L281.167 447.678C282.347 447.657 283.259 446.691 283.148 445.582L275.275 366.968L268.407 367.58L279.71 446.618C279.798 447.236 280.362 447.693 281.022 447.68Z" fill="#8CB4F4"/>
<path d="M205.228 447.68L205.083 447.678C203.903 447.657 202.991 446.691 203.102 445.582L210.975 366.968L217.843 367.58L206.54 446.618C206.452 447.236 205.886 447.693 205.228 447.68Z" fill="#8CB4F4"/>
<path d="M336.556 447.68L336.7 447.678C337.88 447.657 338.792 446.691 338.681 445.582L330.808 366.968L323.94 367.58L335.244 446.618C335.332 447.236 335.895 447.693 336.556 447.68Z" fill="#8CB4F4"/>
<path d="M207.571 355.535L193.599 286.533C191.805 277.191 199.548 268.648 209.598 268.879L236.546 269.495C245.842 269.706 253.924 275.929 256.508 284.86L276.95 355.535H207.571Z" fill="#8CB4F4"/>
<path d="M216.024 355.535L202.052 286.533C200.258 277.191 208.001 268.648 218.051 268.879L244.999 269.495C254.295 269.706 262.377 275.929 264.961 284.86L285.403 355.535H216.024Z" fill="#8CB4F4"/>
<path d="M211.466 368.119H318.08C320.222 368.119 321.974 366.367 321.974 364.225V359.429C321.974 357.287 320.222 355.535 318.08 355.535H207.571V364.225C207.571 366.367 209.324 368.119 211.466 368.119Z" fill="#8CB4F4"/>
<path d="M261.497 368.119H329.461C331.186 368.119 332.598 366.706 332.598 364.981V358.67C332.598 356.945 331.186 355.533 329.461 355.533H261.497C259.772 355.533 258.359 356.945 258.359 358.67V364.981C258.359 366.706 259.772 368.119 261.497 368.119Z" fill="#8CB4F4"/>
<path d="M175.76 354.635V356.989C175.76 357.813 175.494 358.485 175.167 358.485H89.2631C88.9382 358.485 88.6699 357.813 88.6699 356.989V354.635C88.6699 353.811 88.9361 353.139 89.2631 353.139H175.169C175.492 353.139 175.76 353.811 175.76 354.635Z" fill="#8CB4F4"/>
<path d="M175.76 354.635V356.989C175.76 357.813 175.515 358.485 175.217 358.485H107.016C106.716 358.485 106.473 357.813 106.473 356.989V354.635C106.473 353.811 106.718 353.139 107.016 353.139H175.215C175.515 353.139 175.76 353.811 175.76 354.635Z" fill="#A5CEFF"/>
<path d="M154.016 358.488H93.0298V447.38H154.016V358.488Z" fill="#8CB4F4"/>
<path d="M171.107 358.488H110.12V447.38H171.107V358.488Z" fill="#A5CEFF"/>
<path d="M167.831 442.471H113.398V360.999H167.831V442.471ZM113.987 441.882H167.244V361.585H113.987V441.882Z" fill="#8CB4F4"/>
<path d="M167.538 387.951H113.692V388.538H167.538V387.951Z" fill="#8CB4F4"/>
<path d="M167.538 415.427H113.692V416.014H167.538V415.427Z" fill="#8CB4F4"/>
<path d="M146.133 366.253H136.142C135.658 366.253 135.259 365.857 135.259 365.371C135.259 364.887 135.655 364.488 136.142 364.488H146.133C146.617 364.488 147.016 364.884 147.016 365.371C147.014 365.855 146.617 366.253 146.133 366.253Z" fill="#8CB4F4"/>
<path d="M146.133 393.121H136.142C135.658 393.121 135.259 392.725 135.259 392.239C135.259 391.755 135.655 391.356 136.142 391.356H146.133C146.617 391.356 147.016 391.753 147.016 392.239C147.014 392.725 146.617 393.121 146.133 393.121Z" fill="#8CB4F4"/>
<path d="M146.133 421.132H136.142C135.658 421.132 135.259 420.736 135.259 420.25C135.259 419.765 135.655 419.367 136.142 419.367H146.133C146.617 419.367 147.016 419.763 147.016 420.25C147.014 420.736 146.617 421.132 146.133 421.132Z" fill="#8CB4F4"/>
<path d="M415.178 198.659H376.522C374.746 198.659 373.296 197.206 373.296 195.433V158.12C373.296 156.345 374.748 154.895 376.522 154.895H415.178C416.953 154.895 418.403 156.347 418.403 158.12V195.431C418.406 197.206 416.953 198.659 415.178 198.659Z" fill="#2B478B"/>
<path d="M413.503 196.762H378.196C376.576 196.762 375.25 195.435 375.25 193.815V159.738C375.25 158.118 376.576 156.792 378.196 156.792H413.503C415.123 156.792 416.45 158.118 416.45 159.738V193.817C416.45 195.437 415.123 196.762 413.503 196.762Z" fill="#A5CEFF"/>
<path d="M395.848 161.719C396.365 161.719 396.783 161.301 396.783 160.784C396.783 160.268 396.365 159.85 395.848 159.85C395.332 159.85 394.914 160.268 394.914 160.784C394.914 161.301 395.332 161.719 395.848 161.719Z" fill="#A5CEFF"/>
<path d="M402.455 162.105C402.707 161.654 403.275 161.491 403.725 161.742C404.176 161.994 404.339 162.562 404.088 163.012C403.836 163.463 403.268 163.626 402.818 163.375C402.367 163.126 402.204 162.558 402.455 162.105Z" fill="#A5CEFF"/>
<path d="M408.914 167.238C409.348 166.959 409.927 167.083 410.206 167.517C410.484 167.95 410.361 168.529 409.927 168.808C409.493 169.086 408.914 168.963 408.636 168.529C408.357 168.095 408.481 167.517 408.914 167.238Z" fill="#A5CEFF"/>
<path d="M412.115 175.182C412.631 175.182 413.05 175.601 413.05 176.116C413.05 176.632 412.631 177.051 412.115 177.051C411.6 177.051 411.181 176.632 411.181 176.116C411.181 175.599 411.598 175.182 412.115 175.182Z" fill="#A5CEFF"/>
<path d="M410.48 184.4C410.845 184.765 410.845 185.356 410.48 185.72C410.116 186.085 409.524 186.085 409.16 185.72C408.795 185.356 408.795 184.765 409.16 184.4C409.524 184.035 410.116 184.035 410.48 184.4Z" fill="#A5CEFF"/>
<path d="M404.614 190.283C404.978 190.648 404.978 191.239 404.614 191.604C404.249 191.968 403.658 191.968 403.293 191.604C402.928 191.239 402.928 190.648 403.293 190.283C403.656 189.919 404.249 189.919 404.614 190.283Z" fill="#A5CEFF"/>
<path d="M394.916 193.314C394.916 192.799 395.335 192.379 395.85 192.379C396.366 192.379 396.785 192.799 396.785 193.314C396.785 193.83 396.366 194.249 395.85 194.249C395.333 194.249 394.916 193.832 394.916 193.314Z" fill="#A5CEFF"/>
<path d="M389.215 162.105C388.963 161.654 388.395 161.491 387.945 161.742C387.494 161.994 387.331 162.562 387.582 163.012C387.834 163.463 388.402 163.626 388.852 163.375C389.303 163.126 389.464 162.558 389.215 162.105Z" fill="#A5CEFF"/>
<path d="M382.755 167.238C382.321 166.959 381.743 167.083 381.464 167.517C381.185 167.95 381.309 168.529 381.743 168.808C382.176 169.086 382.755 168.963 383.034 168.529C383.313 168.095 383.189 167.517 382.755 167.238Z" fill="#A5CEFF"/>
<path d="M379.554 175.182C379.039 175.182 378.62 175.601 378.62 176.116C378.62 176.632 379.039 177.051 379.554 177.051C380.07 177.051 380.489 176.632 380.489 176.116C380.489 175.599 380.07 175.182 379.554 175.182Z" fill="#A5CEFF"/>
<path d="M381.189 184.4C380.824 184.764 380.824 185.355 381.189 185.72C381.554 186.085 382.145 186.085 382.51 185.72C382.874 185.355 382.874 184.764 382.51 184.4C382.145 184.035 381.554 184.035 381.189 184.4Z" fill="#A5CEFF"/>
<path d="M387.716 191.878C388.232 191.878 388.651 191.459 388.651 190.943C388.651 190.427 388.232 190.008 387.716 190.008C387.2 190.008 386.781 190.427 386.781 190.943C386.781 191.459 387.2 191.878 387.716 191.878Z" fill="#A5CEFF"/>
<path d="M395.597 176.114C395.597 175.599 396.016 175.18 396.532 175.18C397.048 175.18 397.467 175.599 397.467 176.114C397.467 176.63 397.048 177.049 396.532 177.049C396.016 177.049 395.597 176.632 395.597 176.114Z" fill="#2B478B"/>
<path d="M396.66 164.442H396.404V176.117H396.66V164.442Z" fill="#2B478B"/>
<path d="M402.372 170.929L396.183 175.788L396.656 176.389L402.845 171.531L402.372 170.929Z" fill="#2B478B"/>
<path d="M300.448 341.093C294.68 351.131 287.426 355.007 287.426 355.007H257.246C257.246 355.007 304.848 333.437 300.448 341.093Z" fill="#233862"/>
<path d="M337.671 440.824C337.344 443.991 341.749 444.809 346.857 445.119C351.965 445.429 350.41 446.458 357.4 447.802C364.39 449.145 367.218 447.259 367.735 446.318C368.196 445.484 364.954 444.136 361.5 442.614C361.064 442.424 360.63 442.229 360.194 442.034C356.306 440.275 354.153 436.748 351.144 433.467C348.293 430.361 345.658 420.483 345.658 420.483L336.164 418.349C336.164 418.349 338.742 427.242 339.628 431.036C340.15 433.268 339.318 435.748 338.582 437.634C338.186 438.659 337.786 439.709 337.671 440.824Z" fill="#FFB27D"/>
<path d="M346.857 445.119C351.965 445.429 350.41 446.458 357.4 447.802C364.39 449.146 367.218 447.259 367.736 446.318C368.197 445.484 364.954 444.136 361.5 442.614L361.445 442.673C361.445 442.673 356.503 444.293 350.836 442.686C346.216 441.378 341.766 438.561 338.583 437.632C338.186 438.659 337.786 439.709 337.673 440.824C337.346 443.992 341.75 444.809 346.857 445.119Z" fill="#0F2549"/>
<path d="M323.284 330.811C318.174 327.222 284.374 320.827 267.126 318.977L248.061 302.427C248.061 302.427 231.834 326.461 231.704 344.849C231.644 353.424 235.592 354.275 235.594 354.277C235.594 354.277 296.709 354.73 299.39 355.006C303.775 355.459 309.559 366.383 311.004 376.333C312.45 386.283 337.935 426.75 337.935 426.75C337.935 426.75 343.25 428.454 345.707 428.309C348.35 428.154 349.574 427.27 349.574 427.27C349.574 427.27 334.808 338.903 323.284 330.811Z" fill="#233862"/>
<path d="M321.863 440.824C321.536 443.991 325.941 444.809 331.049 445.119C336.157 445.429 334.602 446.458 341.592 447.802C348.582 449.145 351.41 447.259 351.927 446.318C352.388 445.484 349.146 444.136 345.692 442.614C345.258 442.424 344.822 442.229 344.386 442.034C340.498 440.275 338.345 436.748 335.336 433.467C332.485 430.361 329.85 420.483 329.85 420.483L320.354 418.349C320.354 418.349 322.932 427.242 323.818 431.036C324.34 433.268 323.508 435.748 322.772 437.634C322.376 438.659 321.978 439.709 321.863 440.824Z" fill="#FFB27D"/>
<path d="M331.049 445.119C336.157 445.429 334.602 446.458 341.592 447.802C348.582 449.146 351.41 447.259 351.927 446.318C352.389 445.484 349.146 444.136 345.692 442.614L345.637 442.673C345.637 442.673 340.695 444.293 335.028 442.686C330.408 441.378 325.958 438.561 322.774 437.632C322.378 438.659 321.978 439.709 321.865 440.824C321.538 443.992 325.941 444.809 331.049 445.119Z" fill="#233862"/>
<path d="M307.338 330.811C302.898 327.694 289.547 325.277 274.81 323.483C270.736 322.986 267.39 320.025 266.395 316.042L232.115 302.427C232.115 302.427 215.888 326.461 215.758 344.849C215.697 353.424 219.646 354.275 219.648 354.277C219.648 354.277 280.763 354.73 283.443 355.006C287.828 355.459 293.613 366.383 295.057 376.333C296.504 386.283 321.989 426.75 321.989 426.75C321.989 426.75 327.304 428.454 329.76 428.309C332.403 428.154 333.628 427.27 333.628 427.27C333.628 427.27 318.859 338.903 307.338 330.811Z" fill="#2B478B"/>
<path d="M261.467 202.566C256.757 200.093 249.589 199.757 248.424 199.602C234.49 197.73 226.104 217.978 225.609 224.113C224.699 235.42 218.718 237.145 210.298 244.228C193.415 258.428 198.366 274.93 207.598 281.06C213.138 284.739 222.901 281.06 222.901 281.06C223.039 281.157 249.604 266.21 262.698 259C282.328 256.208 273.471 208.868 261.467 202.566Z" fill="#233862"/>
<path d="M258.56 252.033C258.621 252.065 252.369 254.909 247.854 253.416C243.607 252.018 239.868 245.626 239.927 245.615C241.769 245.349 243.643 243.53 244.167 232.756L244.982 232.962L258.705 236.431C258.705 236.431 258.162 240.778 257.938 244.888C257.751 248.34 257.791 251.624 258.56 252.033Z" fill="#FFB27D"/>
<path d="M258.707 236.431C258.707 236.431 258.707 237.326 258.193 241.369C250.432 239.411 247.011 236.837 244.597 233.893L258.707 236.431Z" fill="#ED975D"/>
<path d="M261.635 236.978C261.635 236.978 243.49 239.933 241.824 228.605C240.158 217.276 236.695 210.028 248.208 207.661C259.723 205.297 262.616 209.288 264.092 212.933C265.567 216.58 266.311 235.917 261.635 236.978Z" fill="#FFB27D"/>
<path d="M261.651 207.187C261.651 207.187 253.412 220.195 246.055 223.276C238.698 226.357 235.085 224.794 235.085 224.794C235.085 224.794 238.432 219.719 239.304 212.905C239.562 210.897 240.87 209.174 242.75 208.422C248.028 206.307 258.239 202.972 261.651 207.187Z" fill="#233862"/>
<path d="M254.414 208.445C254.414 208.445 259.243 210.92 261.232 213.243C263.152 215.481 265.37 221.559 265.21 224.288C265.21 224.288 267.594 211.21 262.63 206.714C257.367 201.945 254.414 208.445 254.414 208.445Z" fill="#233862"/>
<path d="M273.077 279.709C272.526 316.594 272.926 308.885 268.891 312.385C267.919 313.228 265.186 313.731 261.589 313.967C250.279 314.718 230.399 312.854 229.642 310.765C227.033 303.534 228.875 301.287 226.699 290.214C226.473 289.036 226.192 287.761 225.863 286.374C224.048 278.77 222.283 276.181 228.72 263.966C234.559 252.899 241.424 243.909 241.971 244.232C257.374 253.377 257.902 245.712 257.902 245.712C257.902 245.712 273.347 261.719 273.077 279.709Z" fill="white"/>
<path d="M257.9 245.711C257.9 245.711 273.666 248.384 275.527 255.208C277.388 262.033 288.342 302.152 288.342 302.152C288.342 302.152 280.285 303.6 276.563 299.878C272.84 296.155 263.609 265.342 263.609 265.342L257.9 245.711Z" fill="white"/>
<path d="M261.589 313.967C250.279 314.718 230.399 312.854 229.642 310.765C227.032 303.533 228.875 301.287 226.699 290.213L232.155 274.852C232.155 274.852 231.254 291.957 236.297 296.457C241.335 300.955 256.95 305.143 259.403 308.901C260.585 310.706 261.363 312.515 261.589 313.967Z" fill="#EBF3FF"/>
<path d="M248.631 306.774C248.631 306.774 259.79 304.29 261.589 305.279C263.389 306.269 267.789 309.876 268.34 311.131C268.891 312.387 264.332 310.18 262.848 309.781C261.888 309.524 259.361 310.402 258.109 310.819C252.844 312.575 249.616 311.672 249.616 311.672L248.631 306.774Z" fill="#FFB27D"/>
<path d="M241.968 244.232C241.968 244.232 226.177 245.154 220.99 252.389C213.689 262.572 199.206 305.969 207.506 311.756C216.854 318.274 250.048 313.462 250.048 313.462C250.048 313.462 251.153 308.3 249.616 305.801C248.08 303.303 223.102 299.268 221.95 298.115C220.797 296.963 236.359 275.636 236.359 272.178C236.359 268.719 241.968 244.232 241.968 244.232Z" fill="white"/>
<path d="M262.129 308.386C262.129 308.386 264.466 311.402 265.234 311.762C266.001 312.123 266.495 312.033 266.495 312.033L264.919 309.197L262.129 308.386Z" fill="#FFB27D"/>
<path d="M261.589 305.279L268.386 308.58C268.386 308.58 268.097 309.054 267.261 309.016C266.424 308.979 264.312 308.205 264.312 308.205L261.589 305.279Z" fill="#FFB27D"/>
<path d="M286.629 313.104H255.06C255.06 311.714 256.187 310.586 257.577 310.586H286.629V313.104Z" fill="#ED7D2B"/>
<path d="M286.537 278.723H335.346L323.638 313.104H274.515L286.537 278.723Z" fill="#ED7D2B"/>
<path d="M336.065 278.721L324.357 313.104H275.233L287.258 278.721H336.065Z" fill="#F99746"/>
<path d="M309.75 295.596C309.446 296.91 308.136 297.975 306.822 297.975C305.508 297.975 304.688 296.91 304.992 295.596C305.296 294.282 306.606 293.217 307.92 293.217C309.234 293.217 310.054 294.282 309.75 295.596Z" fill="white"/>
<path d="M244.148 320.84H458.041C458.94 320.84 459.669 320.11 459.669 319.211V314.734C459.669 313.835 458.94 313.105 458.041 313.105H244.148C243.249 313.105 242.52 313.835 242.52 314.734V319.211C242.52 320.11 243.249 320.84 244.148 320.84Z" fill="#182D4F"/>
<path d="M463.276 448.256L463.368 448.246C464.465 448.109 465.24 447.133 465.102 446.062L446.041 317.042L439.063 317.241L461.49 446.959C461.633 447.789 462.421 448.361 463.276 448.256Z" fill="#182D4F"/>
<path d="M236.986 448.256L236.894 448.246C235.798 448.109 235.022 447.133 235.161 446.062L254.221 317.042L261.199 317.241L238.772 446.959C238.629 447.789 237.841 448.361 236.986 448.256Z" fill="#182D4F"/>
<path d="M281.111 448.256L281.018 448.246C279.922 448.109 279.147 447.133 279.285 446.062L298.346 317.042L305.323 317.241L282.896 446.959C282.754 447.789 281.966 448.361 281.111 448.256Z" fill="#182D4F"/>
<path d="M633.191 449.319H40.8105C40.3641 449.319 40.0015 448.954 40.0015 448.51V447.848C40.0015 447.401 40.3662 447.039 40.8105 447.039H633.191C633.637 447.039 634 447.403 634 447.848V448.51C634 448.954 633.635 449.319 633.191 449.319Z" fill="#2E3552"/>
<path d="M393.56 448.152H431.384C433.203 445.932 432.532 437.741 432.258 435.065C432.201 434.526 432.161 434.212 432.161 434.212C432.161 434.212 419.246 423.881 417.47 431.791C417.416 432.038 417.351 432.281 417.28 432.52C415.045 439.919 405.018 443.281 399.229 444.218C395.465 444.832 394.075 446.788 393.56 448.152Z" fill="#233862"/>
<path d="M496.766 325.252C495.401 325.252 431.977 337.159 421.486 350.146C416.246 356.633 415.467 431.556 415.467 431.556C415.467 431.556 421.95 439.594 435.953 434.926C435.953 434.926 446.219 383.665 445.462 368.119C445.253 363.82 488.797 367.496 496.766 365.434C504.735 363.372 524.208 346.034 519.918 337.589C515.625 329.142 496.766 325.252 496.766 325.252Z" fill="#233862"/>
<path d="M421.757 306.906C421.757 306.906 408.963 307.078 405.939 308.375C402.914 309.672 396.775 312.649 398.418 313.106C400.062 313.563 407.898 312.917 409.592 313.177C411.285 313.437 413.373 313.106 414.411 313.106C415.448 313.106 420.286 313.106 420.286 313.106L421.757 306.906Z" fill="#FFB27D"/>
<path d="M406.8 276.204C406.8 276.204 402.438 273.087 398.202 272.482C395.785 272.136 393.438 271.706 392.019 271.205C388.11 269.828 380.29 262.796 380.883 261.972C382.78 259.329 391.91 264.923 393.503 264.322C395.096 263.72 390.441 260.411 392.059 259.245C392.906 258.638 394.884 261.685 396.5 261.991C398.688 262.406 400.399 265.496 401.059 265.657C402.342 265.971 407.959 270.149 407.959 270.149L406.8 276.204Z" fill="#FFB27D"/>
<path d="M490.448 239.805C490.448 239.805 480.71 242.823 471.115 269.245C461.52 295.667 457.877 297.095 454.389 298.13C450.901 299.165 420.288 305.263 420.288 305.263V313.104H467.458C467.458 313.104 485.146 296.277 490.448 284.95C495.751 273.624 490.448 239.805 490.448 239.805Z" fill="#ED7D2B"/>
<path d="M376.844 448.152H414.666C416.485 445.932 415.815 437.741 415.54 435.065C415.484 434.526 415.444 434.212 415.444 434.212C415.444 434.212 402.528 423.881 400.753 431.791C400.699 432.038 400.634 432.281 400.562 432.52C398.328 439.919 388.301 443.281 382.512 444.218C378.749 444.832 377.358 446.788 376.844 448.152Z" fill="#1B3051"/>
<path d="M478.076 325.252C476.709 325.252 413.287 337.159 402.797 350.146C397.557 356.633 396.777 431.556 396.777 431.556C396.777 431.556 403.262 439.594 417.263 434.926C417.263 434.926 427.529 383.665 426.772 368.119C426.563 363.82 470.107 367.496 478.076 365.434C486.045 363.372 505.518 346.034 501.228 337.589C496.935 329.142 478.076 325.252 478.076 325.252Z" fill="#2B478B"/>
<path d="M482.045 248.179C486.608 247.801 491.391 246.586 495.527 245.244C500.696 243.567 504.86 241.115 502.177 236.393C499.704 232.04 495.699 222.314 495.969 214.257L486.353 222.008L479.82 227.271C479.82 227.271 479.847 230.375 480.562 235.814C480.691 236.806 480.844 237.877 481.025 239.019C481.169 239.944 480.746 240.866 479.949 241.358C479.899 241.39 479.851 241.419 479.803 241.451C476.554 243.49 478.222 248.493 482.045 248.179Z" fill="#FFB27D"/>
<path d="M479.817 225.988C479.817 225.988 479.484 227.116 480.058 231.277C485.883 230.327 491.326 225.68 491.326 225.68C488.361 224.867 487.283 221.662 485.074 221.962L479.817 225.988Z" fill="#ED975D"/>
<path d="M474.431 226.938C474.431 226.938 496.833 230.661 498.937 216.672C501.039 202.686 505.349 193.746 491.134 190.778C476.919 187.81 473.33 192.73 471.494 197.228C469.654 201.726 468.656 225.609 474.431 226.938Z" fill="#FFB27D"/>
<path d="M468.198 191.038C467.236 194.406 469.809 198.508 474.131 199.86C480.547 201.864 479.128 209.734 482.016 209.627C484.903 209.52 486.068 205.104 488.646 208.632C490.845 211.642 486.816 215.209 487.093 216.86C487.569 219.694 492.008 225.492 496.007 225.2C500.006 224.909 507.491 205.901 505.994 200.019C504.498 194.138 498.51 187.936 492.842 187.081C487.175 186.226 479.304 188.672 477.487 188.672C475.67 188.672 468.717 189.219 468.198 191.038Z" fill="#2B478B"/>
<path d="M520.215 259.218C516.977 246.185 508.027 232.511 501.976 232.521C491.664 232.54 476.841 235.263 470.857 250.027C466.449 260.901 460.57 323.451 467.214 327.899C482.404 338.069 517.614 358.827 523.869 337.658C529.601 318.26 525.835 281.836 520.215 259.218Z" fill="#F99746"/>
<path d="M495.171 246.248C492.23 238.596 482.742 235.951 476.271 240.985C472.771 243.708 468.487 247.586 463.31 253.098C444.067 273.59 440.155 273.463 436.542 273.039C432.929 272.616 402.394 266.135 402.394 266.135C402.394 266.135 400.831 267.288 399.911 269.153C398.682 271.643 399.301 273.341 399.301 273.341C398.104 272.568 410.124 280.853 416.106 284.156C424.008 288.518 435.913 292.609 440.654 294.162C441.998 294.603 443.448 294.582 444.779 294.102C451.818 291.566 475.452 282.32 494.693 266.282C499.761 262.052 497.898 253.343 495.171 246.248Z" fill="#F99746"/>
<path d="M503.014 232.647L500.679 227.389C500.679 227.389 479.782 229.093 476.269 240.985C476.271 240.985 492.469 232.901 503.014 232.647Z" fill="white"/>
<path d="M553.749 447.68L553.894 447.678C555.074 447.657 555.985 446.691 555.874 445.582L548.002 366.968L541.133 367.58L552.437 446.618C552.525 447.236 553.089 447.693 553.749 447.68Z" fill="#8CB4F4"/>
<path d="M513.232 447.68L513.376 447.678C514.556 447.657 515.468 446.691 515.357 445.582L507.487 366.968L500.618 367.58L511.922 446.618C512.008 447.236 512.572 447.693 513.232 447.68Z" fill="#8CB4F4"/>
<path d="M437.169 447.68L437.024 447.678C435.844 447.657 434.932 446.691 435.043 445.582L442.916 366.968L449.784 367.58L438.481 446.618C438.395 447.236 437.829 447.693 437.169 447.68Z" fill="#73A2E5"/>
<path d="M551.526 355.832L558.996 290.173C559.974 280.712 556.809 271.446 543.154 270.729L519.132 269.266C504.894 268.679 498.468 280.528 496.665 289.649L482.404 361.825L551.526 355.832Z" fill="#8CB4F4"/>
<path d="M547.509 368.118H440.895C438.753 368.118 437.001 366.366 437.001 364.224V359.429C437.001 357.286 438.753 355.534 440.895 355.534H551.404V364.224C551.404 366.366 549.652 368.118 547.509 368.118Z" fill="#73A2E5"/>
<path d="M548.379 368.118H485.429C483.765 368.118 482.404 366.758 482.404 365.094V358.559C482.404 356.894 483.765 355.534 485.429 355.534H551.404V365.094C551.404 366.756 550.044 368.118 548.379 368.118Z" fill="#8CB4F4"/>
</svg>
