<svg width="65" height="66" viewBox="0 0 65 66" fill="none" xmlns="http://www.w3.org/2000/svg">
<path d="M39.9064 18.3814C40.6852 17.536 41.335 16.675 42.1373 15.99C45.108 13.446 48.3644 11.4029 52.2822 10.6671C58.2079 9.55159 63.7501 13.5595 64.4389 19.5126C64.7677 22.3502 64.1102 25.0782 63.0338 27.6966C61.5622 31.2857 59.1395 34.1585 56.251 36.6791C56.1375 36.7809 56.024 36.8865 55.8987 37C56.5406 37.5989 57.1981 38.1468 57.7852 38.7613C60.2158 41.3132 61.4761 44.4717 62.388 47.7986C63.0377 50.1704 63.3039 52.601 62.5955 54.9924C61.2765 59.4308 58.5524 62.6559 53.9652 63.881C51.1002 64.6442 48.2979 63.9945 45.652 62.7303C42.7361 61.3369 40.3408 59.243 38.059 57.0042C37.4523 56.4093 36.8378 55.8183 36.149 55.1451C35.9729 55.6969 35.8437 56.1549 35.6832 56.605C34.3447 60.3819 31.8985 63.2821 28.3368 65.0512C22.7398 67.834 15.5773 64.2058 14.2622 57.9396C13.135 52.5658 14.0078 47.5833 17.7926 43.3524C17.8278 43.3132 17.8357 43.2545 17.8474 43.2232C16.3523 42.8749 14.8454 42.597 13.3816 42.1743C8.7162 40.82 4.90011 38.2055 2.0351 34.2642C1.04096 32.8982 0.402988 31.3561 0.125099 29.681C-0.438509 26.2876 0.93137 23.7514 3.64764 21.8218C5.31498 20.6398 7.20933 20.1544 9.20152 19.9118C12.4149 19.5165 15.503 20.2053 18.5871 20.9255C19.7535 21.1956 20.912 21.493 22.1684 21.7983C21.9296 20.8864 21.6792 20.0762 21.5148 19.2503C20.7242 15.356 20.3523 11.4459 21.2291 7.51634C21.6439 5.65331 22.4972 3.97814 23.7496 2.51825C26.4502 -0.624646 30.1959 -0.855569 33.2057 1.99378C35.4797 4.14644 36.9357 6.83141 38.0238 9.73946C39.061 12.5066 39.5737 15.3873 39.9064 18.3814ZM38.6265 41.6381C41.6676 41.6811 43.8712 39.4932 43.8438 36.456C43.8125 32.9687 40.7166 29.6536 37.2371 29.3757C33.8867 29.1095 31.3427 31.364 31.417 34.5303C31.511 38.2877 34.8535 41.5833 38.6265 41.6381Z" fill="#FEC5B2"/>
<path d="M38.6265 41.638C34.8496 41.5832 31.511 38.2916 31.4209 34.5342C31.3427 31.3678 33.8906 29.1095 37.241 29.3796C40.7205 29.6575 43.8125 32.9765 43.8477 36.4599C43.8712 39.4932 41.6676 41.6811 38.6265 41.638Z" fill="#C48B00"/>
</svg>
