<svg width="65" height="67" viewBox="0 0 65 67" fill="none" xmlns="http://www.w3.org/2000/svg">
<path d="M25.0936 19.0921C24.3148 18.2467 23.665 17.3857 22.8627 16.7007C19.892 14.1567 16.6356 12.1136 12.7178 11.3778C6.79206 10.2623 1.24992 14.2702 0.561066 20.2233C0.2323 23.0609 0.889839 25.7889 1.96617 28.4073C3.43781 31.9964 5.86053 34.8692 8.74902 37.3898C8.86253 37.4916 8.97602 37.5972 9.10127 37.7107C8.45938 38.3096 7.80185 38.8575 7.21476 39.472C4.78421 42.0239 3.52391 45.1824 2.61197 48.5093C1.96225 50.8811 1.69611 53.3117 2.40453 55.7031C3.72353 60.1415 6.44762 63.3666 11.0348 64.5917C13.8998 65.3549 16.7021 64.7052 19.348 63.441C22.2639 62.0476 24.6592 59.9536 26.941 57.7149C27.5477 57.12 28.1622 56.5289 28.851 55.8558C29.0271 56.4076 29.1563 56.8655 29.3168 57.3156C30.6553 61.0926 33.1015 63.9928 36.6632 65.7619C42.2602 68.5447 49.4227 64.9165 50.7378 58.6503C51.865 53.2765 50.9922 48.294 47.2074 44.0631C47.1722 44.0239 47.1643 43.9652 47.1526 43.9339C48.6477 43.5856 50.1546 43.3077 51.6184 42.885C56.2838 41.5307 60.0999 38.9162 62.9649 34.9749C63.959 33.6089 64.597 32.0668 64.8749 30.3917C65.4385 26.9983 64.0686 24.4621 61.3524 22.5325C59.685 21.3505 57.7907 20.8651 55.7985 20.6225C52.5851 20.2272 49.497 20.916 46.4129 21.6362C45.2465 21.9063 44.088 22.2037 42.8316 22.509C43.0704 21.597 43.3208 20.7869 43.4852 19.961C44.2758 16.0667 44.6477 12.1566 43.7709 8.22704C43.3561 6.364 42.5028 4.68884 41.2504 3.22894C38.5498 0.0860469 34.8041 -0.144876 31.7943 2.70447C29.5203 4.85714 28.0643 7.5421 26.9762 10.4502C25.939 13.2173 25.4263 16.098 25.0936 19.0921ZM26.3735 42.3488C23.3324 42.3918 21.1288 40.2039 21.1562 37.1667C21.1875 33.6794 24.2834 30.3643 27.7629 30.0864C31.1133 29.8202 33.6573 32.0747 33.583 35.241C33.489 38.9984 30.1465 42.294 26.3735 42.3488Z" fill="#FEC5B2"/>
<path d="M26.3735 42.3487C30.1504 42.2939 33.489 39.0023 33.5791 35.2449C33.6573 32.0786 31.1094 29.8202 27.759 30.0903C24.2795 30.3682 21.1875 33.6872 21.1523 37.1706C21.1288 40.2039 23.3324 42.3918 26.3735 42.3487Z" fill="#C48B00"/>
</svg>
