<svg width="510" height="370" viewBox="0 0 510 370" fill="none" xmlns="http://www.w3.org/2000/svg">
<path d="M510 0H0V370H510V0Z" fill="white"/>
<g opacity="0.5">
<path opacity="0.5" d="M242 297.905C228.93 297.942 215.855 298.257 202.808 299.705C197.889 300.25 193.072 301.453 188.139 301.934C178.291 302.9 168.615 304.704 158.731 305.537C150.77 306.207 142.777 306.6 134.839 307.451C127.398 308.247 119.159 308.067 111.778 306.748C106.312 305.773 100.822 305.222 95.4441 303.659C89.4308 301.906 82.9028 300.653 76.6344 300.699C67.7001 300.764 59.0023 300.773 50.4529 303.867C47.4531 304.954 43.7765 306.739 41.5001 309.019C36.2841 314.236 35.5794 327.256 40.7861 332.667C49.5581 341.774 68.2797 345.349 80.58 345.52C94.0532 345.705 107.146 344.706 120.638 344.118C133.18 343.573 145.684 342.796 158.244 342.823C183.897 342.879 209.55 342.823 235.156 341.112C259.214 339.507 283.333 340.058 307.442 340.058C332.168 340.058 356.722 340.252 381.267 343.531C391.963 344.96 402.858 345.46 413.605 346.459C423.23 347.356 432.48 346.44 442.068 345.612C450.117 344.919 458.119 342.856 465.431 339.369C471.221 336.607 481.542 328.033 483.318 321.447C488.297 302.979 413.17 303.423 401.634 303.465C388.731 303.511 375.726 303.936 362.833 303.446C357.408 303.238 352.067 302.184 346.772 301.023C341.501 299.866 336.187 300.162 330.842 299.677C308.545 297.656 286.198 297.952 263.828 297.952C256.567 297.947 249.283 297.882 242 297.905Z" fill="#EED5D5"/>
</g>
<path d="M455.235 208.958L457.382 223.716L453.07 306.952L445.833 305.435L433.825 210.812L455.235 208.958Z" fill="#292949"/>
<path d="M419.679 206.187L418.284 261.368L432.332 309.001L440.52 305.962L433.625 263.482L439.954 205.715L419.679 206.187Z" fill="#292949"/>
<path d="M440.548 301.499L430.742 305.981L434.034 312.821L428.892 316.054C428.892 316.054 428.41 318.903 430.134 320.106C431.859 321.308 443.047 311.933 443.047 311.933L440.548 301.499Z" fill="#1C1C35"/>
<path d="M455.235 303.118L444.6 304.908L446 312.363L440.195 314.153C440.195 314.153 438.985 316.775 440.344 318.385C441.697 319.994 454.939 313.839 454.939 313.839L455.235 303.118Z" fill="#1C1C35"/>
<path d="M434.562 116.199C435.322 118.654 436.407 121.008 437.784 123.178C437.817 118.668 438.475 114.163 439.731 109.835C439.829 109.506 439.921 109.132 439.75 108.831C439.588 108.553 439.249 108.442 438.934 108.368C433.342 107.023 433.24 111.916 434.562 116.199Z" fill="#292949"/>
<path d="M437.631 123.266C438.215 125.12 439.179 127.22 441.108 128.348C443.38 129.68 445.809 129.001 447.502 127.978C453.103 124.598 462.806 105.968 448.211 101.389C434.96 97.236 435.211 115.565 437.631 123.266Z" fill="#EAC1A4"/>
<path d="M449.162 123.344C450.033 124.63 452.018 124.339 453.422 123.673C459.204 120.944 462.732 114.131 461.615 107.85C460.683 102.596 454.169 98.5125 452.676 104.96C452.147 107.245 453.473 110.464 453.089 113.003C452.542 116.638 450.757 120.084 449.162 123.344Z" fill="#292949"/>
<path d="M434.909 94.6784C428.266 98.346 425.294 106.421 419.215 110.963C424.677 113.461 431.168 113.622 436.745 111.398C442.216 109.215 455.189 107.892 453.492 100.33C451.767 92.6341 440.733 91.4687 434.909 94.6784Z" fill="#292949"/>
<path d="M460.692 142.311C464.499 148.902 464.48 156.362 463.956 163.503C462.765 179.663 464.309 198.399 458.727 213.846C448.183 213.837 427.974 209.013 417.472 207.935C415.428 193.889 416.619 185.675 417.774 169.765C418.344 161.921 419.563 151.399 422.345 143.925C424.621 137.807 430.7 129.907 439.866 130.161C448.457 130.397 457.229 136.322 460.692 142.311Z" fill="#8CABEF"/>
<path d="M443.519 133.422C442.559 133.829 441.382 133.658 440.241 132.557C439.263 131.609 439.564 131.304 439.773 129.907C440.079 127.849 440.626 125.805 441.053 123.77L446.728 124.949C446.723 124.949 445.587 130.462 445.499 130.837C445.225 132.035 444.479 133.015 443.519 133.422Z" fill="#EAC1A4"/>
<path d="M386.77 148.046L382.333 143.694L375.346 143.861L374.549 147.394L385.11 151.945L386.77 148.046Z" fill="#EAC1A4"/>
<path d="M438.836 134.893L433.792 130.346L406.609 151.945L387.067 145.105L380.784 153.097L406.938 168.392L434.58 150.724L438.836 134.893Z" fill="#8CABEF"/>
<path d="M96.1397 306.573L103.372 310.541L102.747 313.931L89.8899 312.169L90.5807 307.29L96.1397 306.573Z" fill="#292949"/>
<path d="M63.4207 310.291L58.3903 310.231L57.1616 314.482L57.2868 314.519H57.2543L65.6369 319.329L69.5963 319.712L70.0414 315.198L68.9612 314.431L63.4207 310.291Z" fill="#292949"/>
<path d="M78.9387 230.214C79.7455 230.131 81.9524 259.019 81.9524 259.019L66.2861 311.517L57.2545 309.746L62.7578 257.33C62.7578 257.33 43.6375 235.334 49.1455 218.906C57.4631 222.925 78.9387 230.214 78.9387 230.214Z" fill="#8CABEF"/>
<path d="M101.509 230.459L103.335 256.216L98.2956 307.479L88.9996 307.008C88.9996 307.008 86.7603 258.454 85.8376 257.465C84.915 256.475 77.0007 230.996 77.0007 230.996L101.509 230.459Z" fill="#8CABEF"/>
<path d="M89.2872 242.211C59.7582 241.67 57.593 226.81 51.0928 225.187C44.5926 223.563 47.9818 215.844 47.9818 215.844C47.9818 215.844 49.2104 212.399 49.739 210.595C53.5315 197.626 64.9184 180.981 64.9184 180.976C70.5331 173.331 76.1709 166.579 81.0344 162.504C95.5092 150.377 111.013 149.813 111.013 149.813C133.342 156.778 125.465 167.249 125.72 170.006C118.376 176.721 113.053 186.785 109.131 197.585C107.281 203.306 105.102 213.189 106.623 225.187C107.109 229.035 107.675 232.369 108.236 235.274C108.347 239.071 104.689 242.456 89.2872 242.211Z" fill="#5D66D3"/>
<path d="M111.097 152.163C111.097 152.163 116.067 149.448 119.145 154.17C122.882 159.905 101.759 185.768 102.26 241.078C96.7239 242.197 82.4578 244.866 67.7466 237.942C71.0894 221.505 85.5178 171.944 111.097 152.163Z" fill="white"/>
<path d="M122.024 134.694C124.528 136.641 126.698 140.78 125.836 144.041C125.418 145.609 124.287 146.663 123.907 148.361C123.151 151.705 117.323 154.165 119.771 158.046C121.032 160.039 123.471 160.881 125.729 161.588C126.002 161.672 126.29 161.759 126.573 161.704C127.036 161.611 127.347 161.154 127.435 160.691C127.519 160.229 127.435 159.752 127.384 159.285C126.869 154.392 130.194 149.489 131.422 144.864C132.651 140.249 132.586 134.976 129.378 131.142C126.642 131.396 125.534 130.869 123.777 132.978L122.024 134.694Z" fill="#292949"/>
<path d="M116.164 154.276C119.423 154.531 122.604 152.75 124.667 150.225C126.73 147.699 127.82 144.513 128.497 141.326C130.745 130.716 117.722 127.285 110.855 133.774C104.87 139.43 106.692 153.532 116.164 154.276Z" fill="#EACDB0"/>
<path d="M99.9461 152.283C101.676 152.153 103.405 151.978 104.953 150.858C107.462 149.055 108.941 144.985 110.48 142.408C112.103 139.694 113.957 136.78 116.952 135.744C118.909 135.069 120.643 135.508 122.479 136.243C123.735 136.747 123.587 137.238 124.922 137.011C125.947 136.835 127.282 135.596 127.848 134.777C128.798 133.399 128.859 131.554 128.353 129.958C127.574 127.502 126.132 125.842 123.833 124.82C115.77 121.231 107.633 123.488 102 130.457C99.2924 133.811 98.3234 138.394 95.6019 141.571C93.9235 143.532 91.8325 144.434 90.2283 146.599C86.0649 152.218 79.2262 158.772 76.769 165.353C76.6762 165.598 76.5928 165.876 76.7087 166.107C76.9405 166.583 77.6545 166.421 78.1274 166.181C80.9 164.803 83.6725 163.42 86.4451 162.042C87.5346 161.5 88.6381 160.945 89.5375 160.127C91.7722 158.083 92.5465 154.558 95.2541 153.208C96.7331 152.477 98.342 152.398 99.9461 152.283Z" fill="#292949"/>
<path d="M88.6195 166.218L66.3371 161.006L60.3794 131.461L67.779 132.104L73.4864 151.399L102.376 152.223L104.026 154.42L88.6195 166.218Z" fill="#5D66D3"/>
<path d="M69.8561 129.181L69.1282 121.434L63.6295 117.239L63.3049 119.496L65.2476 121.434C65.2476 121.434 65.7344 123.691 67.1068 124.824C66.9445 126.115 65.892 128.857 65.892 128.857L69.8561 129.181Z" fill="#EBCEB1"/>
<path d="M200.685 304.112L207.069 308.196L209.285 311.443C209.285 311.443 207.014 312.576 205.739 312.895C204.464 313.21 194.342 312.132 194.342 312.132L194.069 306.221L200.685 304.112Z" fill="#273140"/>
<path d="M168.778 308.571L171.935 312.1C171.935 312.1 174.504 316.882 173.215 316.813C171.926 316.739 164.929 317.113 164.461 316.313C163.988 315.513 160.275 312.724 159.792 312.183C159.306 311.642 159.802 307.151 159.802 307.151L168.778 308.571Z" fill="#273140"/>
<path d="M186.822 214.679L178.894 262.769L168.778 308.575L159.764 308.062L161.503 259.717C161.503 259.717 155.008 215.285 154.984 202.145L186.822 214.679Z" fill="#BDBFC1"/>
<path d="M206.712 217.047L203.087 305.805L193.814 306.231L188.881 261.137L181.699 221.339L200.866 196.715L206.712 217.047Z" fill="#BDBFC1"/>
<path d="M201.853 170.316C196.99 146.71 203.165 135.332 192.52 128.769C192.52 128.769 175.18 124.019 164.136 131.924C163.983 132.035 163.83 132.146 163.682 132.257L159.667 140.577L156.621 177.915C156.621 177.915 148.099 226.935 152.624 227.328C157.747 227.777 181.272 216.843 185.737 217.098C190.202 217.357 203.865 219.799 216.764 215.419C227.821 211.672 206.712 193.922 201.853 170.316Z" fill="#8CABEF"/>
<path d="M180.29 128.043L176.919 128.173L176.576 131.558L188.964 166.121L191.742 151.145L188.709 129.389L180.29 128.043Z" fill="white"/>
<path d="M190.476 179.404L185.7 217.037L195.766 218.457L202.73 217.916L193.925 185.268L190.476 179.404Z" fill="white"/>
<path d="M184.861 129.542C182.548 129.639 180.239 129.731 177.925 129.828C177.647 128.011 177.512 126.17 177.526 124.329C175.533 123.931 173.196 123.238 172.584 121.304C172.389 120.694 172.408 120.042 172.431 119.404C172.514 116.763 171.773 114.085 172.677 111.481C172.978 110.616 172.742 109.626 173.117 108.794C173.78 107.332 175.352 106.514 176.882 106.023C180.786 104.77 185.269 105.02 188.742 107.198C189.664 107.776 190.531 108.512 191.037 109.474C191.82 110.958 191.644 112.748 191.445 114.413C191.264 115.953 191.083 117.493 190.902 119.029C190.694 120.8 190.318 122.831 188.76 123.705C187.935 124.167 186.887 124.214 186.164 124.829C184.898 125.911 185.376 127.955 184.861 129.542Z" fill="#E7CAAD"/>
<path d="M194.797 95.2334C194.278 95.1871 193.749 95.1224 193.197 94.9374C191.468 94.3546 190.174 92.9995 188.348 92.4722C184.648 91.3992 180.169 91.9774 176.775 93.7534C173.525 95.4507 168.977 96.385 166.121 98.5356C164.929 99.4329 164.058 100.7 163.427 102.055C161.248 106.74 162.069 112.66 165.439 116.578C166.195 117.456 167.062 118.233 167.962 118.969C169.821 120.486 172.056 122.373 174.369 122.706C174.142 120.717 171.453 114.728 172.746 112.887C174.466 110.45 178.222 110.191 180.929 110.214C184.156 110.241 186.706 108.993 189.915 108.882C191.547 108.826 193.415 108.997 194.574 107.846C195.914 106.514 198.636 102.421 199.215 100.672C199.725 99.1461 199.146 97.3655 197.945 96.2878C196.92 95.3628 195.882 95.3351 194.797 95.2334Z" fill="#292949"/>
<path d="M216.537 147.223L195.534 128.242L190.485 132.488L207.871 161.45L215.721 162.199C215.721 162.199 217.983 154.137 218.447 153.282L216.537 147.223Z" fill="#8CABEF"/>
<path d="M166.598 216.173C162.574 212.551 157.831 210.854 152.508 211.127C147.186 211.4 142.642 213.573 139.012 217.588C135.377 221.607 133.675 226.338 133.954 231.643C134.227 236.953 136.406 241.485 140.431 245.107C142.026 246.54 143.736 247.673 145.549 248.501C148.308 249.759 151.308 250.31 154.521 250.148C159.848 249.875 164.387 247.701 168.017 243.682C171.643 239.672 173.344 234.941 173.075 229.627C172.802 224.322 170.623 219.789 166.598 216.173Z" fill="#D67086"/>
<path d="M173.08 229.631C172.802 224.317 170.623 219.789 166.603 216.172C165.305 215.002 163.928 214.04 162.486 213.273C164.688 216.265 165.908 219.72 166.107 223.591C166.376 228.91 164.674 233.636 161.049 237.646C157.418 241.661 152.879 243.835 147.552 244.112C144.339 244.274 141.339 243.724 138.581 242.466C138.242 242.313 137.909 242.142 137.575 241.966C138.395 243.076 139.341 244.131 140.435 245.111C142.03 246.545 143.741 247.678 145.554 248.506C148.313 249.764 151.312 250.314 154.525 250.152C159.852 249.879 164.391 247.706 168.022 243.687C171.647 239.681 173.349 234.95 173.08 229.631Z" fill="#C95976"/>
<path d="M318.416 145.701C316.942 129.574 308.819 114.76 294.279 101.676C279.739 88.5965 264.073 81.9966 247.702 82.0567C233.473 82.1122 220.654 87.3662 209.596 97.68C207.732 99.419 206.675 101.875 206.698 104.419C206.721 106.962 207.82 109.4 209.712 111.106L218.368 118.895C221.822 122.003 227.061 122.021 230.552 118.937C236.742 113.465 243.191 110.778 250.271 110.727C258.839 110.662 267.411 114.436 275.752 121.938C284.065 129.417 288.572 137.589 289.151 146.215C289.717 154.813 286.277 163.3 278.928 171.43C268.793 182.637 258.751 187.294 249.07 185.268C238.879 183.132 226.658 175.57 212.721 162.782L208.975 159.41C205.233 156.043 199.447 156.344 196.076 160.071L166.645 192.622C165.013 194.43 164.178 196.761 164.308 199.194C164.433 201.627 165.499 203.861 167.312 205.489L176.093 213.388C176.803 214.027 177.582 214.531 178.407 214.905C181.94 216.515 186.261 215.747 188.996 212.722L208.057 191.642C208.293 191.378 208.701 191.355 208.965 191.577C225.726 205.863 241.577 213.55 256.075 214.424C271.496 215.349 286.281 208.116 300.019 192.923C313.701 177.804 319.89 161.912 318.416 145.701Z" fill="#D67086"/>
<path d="M318.416 145.701C316.942 129.574 308.819 114.76 294.279 101.676C285.28 93.5776 275.84 87.9675 266.076 84.878C270.675 87.6437 275.182 91.0107 279.586 94.9697C294.126 108.054 302.249 122.863 303.723 138.995C305.198 155.206 299.008 171.097 285.326 186.23C271.589 201.423 256.803 208.657 241.383 207.732C236.927 207.464 232.347 206.552 227.655 205.003C237.576 210.733 247.09 213.897 256.08 214.438C271.501 215.363 286.286 208.13 300.024 192.937C313.701 177.803 319.89 161.912 318.416 145.701Z" fill="#C95976"/>
<path d="M167.818 129.828L157.868 132.886L134.056 173.377L135.678 181.207L166.524 196.59L170.854 188.224L151.372 173.377L163.279 157.181L167.878 131.267L167.818 129.828Z" fill="#8CABEF"/>
<path d="M195.121 128.584L190.068 123.168L185.195 124.519L183.846 129.38L188.171 130.189L192.242 131.008L195.121 128.584Z" fill="#EAC1A4"/>
<path d="M170.428 189.052L175.287 190.046L174.508 192.904L178.718 197.816L172.946 199.911L167.294 195.106L170.428 189.052Z" fill="#E7CAAD"/>
<path d="M68.493 156.515C65.4979 157.426 63.2446 159.262 61.798 161.972C60.3515 164.682 60.078 167.573 60.9913 170.561C61.9047 173.553 63.7453 175.796 66.4622 177.239C69.1791 178.682 72.0769 178.955 75.072 178.044C76.2589 177.683 77.3299 177.174 78.2803 176.527C79.7269 175.542 80.8906 174.224 81.7669 172.586C83.2134 169.876 83.4869 166.986 82.5736 163.998C81.6602 161.015 79.8242 158.767 77.1027 157.319C74.3811 155.881 71.4834 155.608 68.493 156.515Z" fill="#D67086"/>
<path d="M77.1028 157.324C74.3812 155.881 71.4881 155.608 68.4977 156.519C67.5333 156.811 66.6431 157.204 65.8318 157.689C67.9691 157.491 70.0462 157.921 72.0306 158.971C74.7521 160.418 76.5881 162.666 77.5015 165.649C78.4149 168.637 78.1413 171.523 76.6948 174.238C75.8185 175.875 74.6501 177.188 73.2082 178.178C73.032 178.298 72.8466 178.414 72.6611 178.525C73.4586 178.451 74.2607 178.294 75.072 178.049C76.259 177.688 77.33 177.179 78.2804 176.532C79.7269 175.547 80.8907 174.228 81.7669 172.591C83.2135 169.881 83.487 166.99 82.5737 164.003C81.6603 161.019 79.8197 158.772 77.1028 157.324Z" fill="#C95976"/>
<path d="M78.7022 60.5875C70.2594 56.5175 60.4952 56.1197 49.6739 59.4081C38.8573 62.6965 30.9198 68.4685 26.0795 76.5669C21.8743 83.6107 20.6642 91.501 22.4956 100.029C22.8016 101.468 23.7103 102.717 24.976 103.466C26.2464 104.21 27.781 104.395 29.1905 103.965L35.6304 102.009C38.1989 101.227 39.7706 98.6466 39.2745 96.0057C38.4029 91.3206 38.9871 87.3385 41.0688 83.8281C43.5864 79.5777 48.0095 76.4697 54.2129 74.5827C60.3978 72.705 65.7945 72.9085 70.2454 75.1932C74.6824 77.4734 77.8676 81.696 79.7129 87.7455C82.2583 96.0844 81.5814 102.43 77.6961 106.606C73.6022 111 66.2165 114.788 55.7244 117.863L52.9379 118.71C50.1561 119.556 48.5797 122.502 49.4282 125.277L56.8232 149.494C57.2358 150.84 58.1445 151.945 59.3871 152.602C60.6296 153.263 62.0576 153.402 63.4068 152.99L69.9395 151.006C70.468 150.844 70.9502 150.613 71.3814 150.317C73.2313 149.054 74.1354 146.691 73.4492 144.439L68.6598 128.755C68.5995 128.561 68.7108 128.353 68.9009 128.288C80.9786 124.264 89.5095 118.724 94.2525 111.823C99.3015 104.483 100.113 95.0345 96.6588 83.731C93.2279 72.4691 87.1821 64.6806 78.7022 60.5875Z" fill="#D67086"/>
<path d="M78.7021 60.5875C70.2592 56.5175 60.4951 56.1197 49.6738 59.4081C42.9789 61.4431 37.3828 64.4309 32.9458 68.3344C35.6859 66.8867 38.6995 65.6611 41.9728 64.6667C52.7894 61.3784 62.5582 61.7761 71.0011 65.8461C79.481 69.9392 85.5268 77.7231 88.9623 88.985C92.4118 100.289 91.6051 109.742 86.5561 117.082C85.1002 119.2 83.2828 121.194 81.1176 123.048C86.9131 119.852 91.313 116.097 94.2571 111.819C99.3061 104.479 100.117 95.0299 96.6633 83.7264C93.2278 72.4691 87.182 64.6806 78.7021 60.5875Z" fill="#C95976"/>
<path d="M365.554 168.068C361.757 167.531 358.308 168.405 355.289 170.667C352.276 172.929 350.472 175.995 349.934 179.778C349.397 183.571 350.273 187.012 352.54 190.018C354.807 193.024 357.881 194.823 361.674 195.36C363.18 195.573 364.632 195.563 366.022 195.332C368.137 194.981 370.116 194.125 371.938 192.761C374.952 190.499 376.756 187.433 377.293 183.649C377.831 179.866 376.955 176.421 374.688 173.41C372.421 170.403 369.347 168.604 365.554 168.068Z" fill="#D67086"/>
<path d="M374.688 173.41C372.421 170.404 369.347 168.604 365.554 168.072C364.33 167.901 363.139 167.874 361.989 167.994C364.465 168.882 366.546 170.427 368.202 172.619C370.469 175.63 371.345 179.075 370.807 182.859C370.269 186.646 368.47 189.713 365.452 191.97C363.63 193.334 361.655 194.19 359.536 194.541C359.277 194.583 359.012 194.615 358.748 194.643C359.671 194.972 360.644 195.212 361.669 195.36C363.176 195.573 364.627 195.563 366.018 195.332C368.132 194.981 370.112 194.125 371.934 192.761C374.947 190.499 376.751 187.433 377.289 183.649C377.831 179.866 376.955 176.421 374.688 173.41Z" fill="#C95976"/>
<path d="M426.666 66.8682C419.41 57.9882 408.774 52.5076 395.06 50.5651C381.35 48.6272 369.546 50.9351 359.967 57.4286C351.645 63.0711 346.207 71.2111 343.81 81.622C343.406 83.3748 343.759 85.2341 344.783 86.7187C345.803 88.2033 347.417 89.1977 349.202 89.4521L357.366 90.6083C360.626 91.0662 363.704 89.0127 364.529 85.8261C365.99 80.1743 368.707 76.0581 372.838 73.2368C377.836 69.819 384.364 68.6535 392.227 69.7635C400.067 70.8735 405.951 73.8843 409.706 78.7175C413.448 83.5367 414.792 89.8683 413.703 97.5366C412.201 108.105 408.153 114.797 401.676 117.424C394.851 120.19 384.688 120.574 371.447 118.571L367.914 118.072C364.386 117.572 361.112 120.028 360.612 123.548L356.249 154.244C356.008 155.946 356.444 157.643 357.482 159.021C358.521 160.4 360.032 161.288 361.738 161.528L370.019 162.698C370.687 162.791 371.345 162.781 371.975 162.675C374.683 162.226 376.913 160.071 377.321 157.222L380.145 137.344C380.182 137.099 380.409 136.918 380.655 136.946C396.145 138.718 408.487 136.974 417.338 131.766C426.749 126.23 432.554 116.157 434.59 101.829C436.625 87.5512 433.954 75.7898 426.666 66.8682Z" fill="#D67086"/>
<path d="M426.666 66.8682C419.41 57.9882 408.774 52.5076 395.06 50.5651C386.571 49.3672 378.814 49.7974 371.864 51.837C375.657 51.6474 379.635 51.8416 383.789 52.429C397.503 54.3669 408.135 59.8521 415.395 68.7321C422.683 77.6583 425.354 89.4197 423.323 103.692C421.288 118.021 415.483 128.094 406.071 133.63C403.354 135.23 400.304 136.502 396.938 137.446C405.028 136.891 411.857 134.999 417.347 131.771C426.759 126.235 432.563 116.161 434.599 101.833C436.625 87.5512 433.954 75.7899 426.666 66.8682Z" fill="#C95976"/>
<path d="M377.762 307.609L382.324 306.318L389.659 317.405H382.324L377.905 315.157L377.762 307.609Z" fill="#292949"/>
<path d="M296.412 285.201C296.412 285.201 290.042 289.853 290.125 293.965C290.125 293.965 289.448 302.628 291.173 306.041L300.756 314.745L318.453 313.612L324.165 288.591L296.412 285.201Z" fill="#3B3387"/>
<path d="M315.838 290.764C315.838 290.764 308.198 288.975 305.578 294.173L300.371 303.765L309.547 315.957L379.06 315.735L378.921 307.451L356.43 301.12C358.405 299.792 360.06 297.697 361.052 295.565C362.832 291.74 361.442 288.914 360.009 285.321C359.568 284.22 357.473 278.11 355.674 278.591C355.669 278.596 315.838 290.764 315.838 290.764Z" fill="#474EBB"/>
<path d="M274.876 195.989L271.668 190.282L274.051 188.806L277.115 192.229L277.918 191.013L280.069 196.23L277.797 198.093L274.876 195.989Z" fill="#A0734B"/>
<path d="M321.481 209.193L299.435 215.1L279.934 194.218L275.618 198.154L293.575 232.684L320.503 227.236L321.481 209.193Z" fill="#EED5D5"/>
<path d="M299.755 271.252C304.553 257.927 305.476 243.807 307.205 229.821C307.715 225.695 308.253 221.477 310.103 217.754C312.227 213.476 315.583 211.293 319.441 210.165C324.355 208.731 330.086 209.008 335.153 208.865C339.952 208.87 343.61 226.99 348.214 235.87C351.038 241.309 353.972 246.138 355.804 252.03C357.561 257.686 359.239 263.44 360.18 269.295C361.599 278.138 365.758 284.414 361.497 287.268C361.112 287.384 360.742 287.495 360.389 287.606C353.481 289.826 346.35 291.403 339.127 292.115C332.715 292.749 326.228 292.688 319.835 291.851C311.086 290.704 302.625 289.192 295.04 284.373C296.607 279.997 298.183 275.627 299.755 271.252Z" fill="#EED5D5"/>
<path d="M337.935 195.554C335.473 187.239 323.53 183.983 320.419 193.455C319.482 196.299 318.879 199.333 319.352 202.288C319.83 205.244 321.536 208.125 324.244 209.415C324.258 209.425 324.276 209.429 324.29 209.438C324.156 210.197 324.026 210.956 323.891 211.714C323.864 211.876 323.836 212.056 323.924 212.2C324.026 212.361 324.23 212.408 324.415 212.44C325.324 212.607 326.233 212.773 327.141 212.935C327.591 213.018 328.059 213.097 328.5 212.972C329.464 212.699 329.895 211.571 329.97 210.576C329.988 210.336 329.993 210.095 329.997 209.855C335.468 208.19 339.544 200.993 337.935 195.554Z" fill="#A0734B"/>
<path d="M323.729 181.032C321.536 180.634 319.589 182.706 317.521 183.756C315.801 184.63 313.872 184.815 312.092 185.532C310.312 186.249 308.536 187.803 308.434 189.819C306.686 188.839 304.794 187.831 302.791 188.15C300.789 188.469 298.86 190.777 299.592 192.761C300.246 194.532 302.523 195.022 303.227 196.771C304.345 199.536 300.946 203.662 303.111 205.54C303.631 205.993 304.354 206.122 304.864 206.585C305.499 207.163 305.675 208.125 305.94 208.981C307.131 212.87 310.933 215.507 314.79 215.118C317.215 214.082 319.19 211.839 320.131 209.226C321.263 206.081 319.594 204.915 319.404 201.918C319.195 198.644 320.349 195.226 322.491 192.756C323.887 191.151 325.848 189.792 327.879 189.667C328.704 189.616 328.421 190.291 329.372 189.685C329.78 189.426 330.355 188.413 330.484 187.918C328.324 186.068 326.618 181.554 323.729 181.032Z" fill="#292949"/>
<path d="M347.426 186.036C348.552 186.388 349.79 186.383 350.857 186.892C352.461 187.655 352.308 189.338 352.721 190.814C353.18 192.451 353.847 194.648 354.876 195.943C355.618 196.877 356.68 197.427 357.598 198.158C358.516 198.889 359.346 199.953 359.286 201.215C359.225 202.413 358.386 203.458 358.229 204.652C358.025 206.428 358.307 207.353 357.695 209.152C357.38 210.081 357.032 211.067 356.304 211.686C355.345 212.5 354.019 212.44 352.86 212.209C351.701 211.978 350.504 211.617 349.345 211.964C346.828 212.718 347.208 215.248 346.475 217.333C345.363 220.506 341.57 222.259 338.756 221.024C336.368 219.979 335.061 217.135 335.26 214.373C335.362 212.991 335.955 211.719 336.039 210.336C336.122 208.999 335.427 207.126 336.674 206.104C336.98 205.854 337.36 205.729 337.638 205.447C337.861 205.216 337.991 204.901 338.074 204.587C338.371 203.491 338.162 202.279 337.541 201.414C337.091 200.79 336.433 200.327 336.169 199.583C335.867 198.732 336.159 197.756 336.248 196.831C336.456 194.592 335.297 192.349 333.452 191.424C332.237 190.814 331.134 190.439 330.081 189.537C329.919 189.398 327.536 187.155 327.457 187.622C327.596 186.813 328.092 186.115 328.598 185.476C329.427 184.427 330.341 183.409 331.481 182.803C335.163 180.842 335.181 185.68 338.102 185.139C338.807 185.009 339.354 184.385 339.998 184.024C341.213 183.34 342.664 183.645 343.865 184.228C345.066 184.81 346.16 185.638 347.426 186.036Z" fill="#292949"/>
<path d="M281.441 284.761C278.97 284.169 276.638 284.53 274.505 285.83C272.373 287.129 270.991 289.039 270.398 291.505C269.804 293.97 270.161 296.301 271.469 298.424C272.771 300.551 274.686 301.929 277.157 302.521C278.136 302.757 279.095 302.84 280.027 302.776C281.446 302.679 282.804 302.235 284.093 301.453C286.226 300.149 287.608 298.243 288.201 295.778C288.795 293.318 288.433 290.987 287.13 288.859C285.823 286.732 283.908 285.353 281.441 284.761Z" fill="#D67086"/>
<path d="M287.13 288.859C285.823 286.732 283.908 285.353 281.442 284.761C280.644 284.572 279.861 284.479 279.096 284.484C280.672 285.224 281.952 286.375 282.902 287.925C284.205 290.057 284.566 292.383 283.973 294.844C283.38 297.309 281.998 299.219 279.865 300.519C278.576 301.305 277.218 301.744 275.799 301.841C275.623 301.855 275.451 301.86 275.275 301.86C275.864 302.137 276.49 302.355 277.158 302.517C278.136 302.752 279.096 302.836 280.027 302.771C281.446 302.674 282.805 302.23 284.094 301.448C286.226 300.144 287.608 298.238 288.201 295.773C288.795 293.317 288.433 290.991 287.13 288.859Z" fill="#C95976"/>
<path d="M328.167 221.834C323.938 215.52 317.271 211.228 308.346 209.087C299.421 206.946 291.488 207.727 284.756 211.404C278.905 214.605 274.807 219.632 272.567 226.348C272.192 227.481 272.308 228.729 272.887 229.77C273.467 230.815 274.468 231.574 275.632 231.851L280.945 233.128C283.064 233.637 285.229 232.476 285.976 230.422C287.297 226.787 289.351 224.239 292.253 222.638C295.768 220.7 300.149 220.34 305.268 221.565C310.372 222.791 314.063 225.15 316.233 228.577C318.398 231.995 318.885 236.254 317.679 241.245C316.019 248.127 312.927 252.285 308.485 253.612C303.807 255.009 297.075 254.62 288.465 252.465L286.166 251.915C283.871 251.364 281.553 252.779 281.001 255.069L276.179 275.049C275.91 276.159 276.091 277.306 276.689 278.277C277.287 279.248 278.228 279.933 279.341 280.201L284.733 281.496C285.169 281.602 285.605 281.635 286.027 281.607C287.844 281.482 289.453 280.201 289.898 278.346L293.018 265.406C293.055 265.244 293.218 265.142 293.38 265.174C303.492 267.316 311.745 266.946 317.911 264.064C324.472 261.003 328.936 254.722 331.19 245.393C333.429 236.111 332.414 228.179 328.167 221.834Z" fill="#D67086"/>
<path d="M328.167 221.834C323.938 215.52 317.271 211.228 308.346 209.087C302.82 207.76 297.673 207.556 292.958 208.467C295.476 208.578 298.086 208.958 300.789 209.61C309.714 211.751 316.386 216.038 320.609 222.356C324.856 228.702 325.872 236.634 323.632 245.921C321.384 255.249 316.914 261.53 310.354 264.592C308.457 265.475 306.366 266.123 304.085 266.534C309.459 266.678 314.086 265.859 317.911 264.074C324.471 261.012 328.936 254.731 331.19 245.403C333.429 236.111 332.414 228.179 328.167 221.834Z" fill="#C95976"/>
<path d="M125.159 97.6615C122.882 97.5967 120.903 98.3414 119.275 99.8722C117.648 101.403 116.786 103.332 116.721 105.603C116.656 107.873 117.402 109.848 118.937 111.472C120.472 113.095 122.405 113.955 124.681 114.02C125.585 114.048 126.439 113.946 127.245 113.719C128.469 113.373 129.582 112.734 130.565 111.809C132.192 110.274 133.055 108.35 133.119 106.079C133.184 103.813 132.443 101.838 130.903 100.21C129.364 98.5819 127.431 97.7262 125.159 97.6615Z" fill="#D67086"/>
<path d="M130.903 100.21C129.364 98.5865 127.431 97.7262 125.159 97.6615C124.426 97.6384 123.722 97.7031 123.049 97.8511C124.57 98.2119 125.901 98.9842 127.023 100.168C128.562 101.796 129.304 103.771 129.239 106.037C129.174 108.308 128.312 110.237 126.684 111.768C125.701 112.693 124.589 113.331 123.365 113.678C123.212 113.719 123.059 113.756 122.906 113.789C123.471 113.923 124.06 114.002 124.677 114.02C125.581 114.048 126.434 113.946 127.241 113.719C128.465 113.373 129.577 112.734 130.56 111.809C132.188 110.274 133.05 108.35 133.115 106.079C133.189 103.813 132.443 101.838 130.903 100.21Z" fill="#C95976"/>
<path d="M154.521 33.8966C149.648 29.1375 143.009 26.5984 134.788 26.3625C126.568 26.122 119.753 28.2634 114.532 32.7265C109.993 36.6069 107.327 41.7684 106.599 48.0723C106.479 49.136 106.808 50.209 107.513 51.0138C108.213 51.8231 109.233 52.3041 110.304 52.3365L115.2 52.4799C117.152 52.5354 118.835 51.1201 119.108 49.1869C119.595 45.7551 120.926 43.1466 123.179 41.2088C125.905 38.8639 129.675 37.7446 134.394 37.8788C139.096 38.0175 142.768 39.405 145.304 42.0135C147.831 44.6128 149.045 48.2619 148.911 52.8591C148.725 59.1954 146.783 63.4134 143.129 65.3929C139.286 67.4741 133.314 68.376 125.363 68.0615L123.244 68.0014C121.13 67.9413 119.359 69.6063 119.298 71.7153L118.761 90.1228C118.733 91.1449 119.104 92.1161 119.804 92.8608C120.508 93.6054 121.459 94.0309 122.484 94.0586L127.449 94.202C127.848 94.2159 128.237 94.165 128.604 94.0586C130.171 93.6146 131.348 92.1948 131.395 90.4881L131.742 78.5695C131.747 78.4215 131.872 78.3013 132.016 78.3013C141.279 78.3244 148.447 76.479 153.325 72.8253C158.513 68.9356 161.271 62.6086 161.522 54.0154C161.767 45.4499 159.412 38.6835 154.521 33.8966Z" fill="#D67086"/>
<path d="M154.521 33.8966C149.648 29.1375 143.009 26.5984 134.789 26.3625C129.698 26.2145 125.15 26.9822 121.181 28.6426C123.406 28.2819 125.766 28.1339 128.256 28.2032C136.476 28.4437 143.12 30.9782 147.988 35.7374C152.884 40.5242 155.235 47.2906 154.985 55.8469C154.734 64.4401 151.976 70.7671 146.788 74.6567C145.29 75.7806 143.575 76.7334 141.65 77.5104C146.389 76.6501 150.297 75.0822 153.32 72.8114C158.508 68.9217 161.267 62.5947 161.517 54.0015C161.768 45.4499 159.412 38.6835 154.521 33.8966Z" fill="#C95976"/>
<path d="M299.37 262.325L293.714 260.989L294.182 258.556L298.257 258.612L297.942 257.358L302.643 259.088L302.5 261.687L299.37 262.325Z" fill="#A0734B"/>
<path d="M336.818 239.057L327.337 257.4L301.248 257.969L301.229 263.139L332.182 269.277L343.096 251.956L336.818 239.057Z" fill="#EED5D5"/>
<path d="M128.668 191.054L126.1 162.897L119.498 162.61L114.987 184.311L109.497 193.45L117.889 201.52C117.889 201.52 125.024 197.113 125.952 196.803L128.668 191.054Z" fill="#5D66D3"/>
<path d="M125.562 162.879L125.52 155.479L121.023 153.18L116.725 155.844L119.363 159.364L121.802 162.712L125.562 162.879Z" fill="#EAC1A4"/>
<path d="M473.373 148.823L465.565 121.647L459.028 122.599L458.485 156.353L464.754 161.121C464.754 161.121 470.939 155.46 471.787 154.979L473.373 148.823Z" fill="#8CABEF"/>
<path d="M465.032 121.721L463.599 114.459L458.75 113.044L455.031 116.462L458.281 119.427L461.304 122.262L465.032 121.721Z" fill="#EAC1A4"/>
</svg>
