<svg width="1119" height="208" viewBox="0 0 1119 208" fill="none" xmlns="http://www.w3.org/2000/svg">
<path d="M86.6794 150.461C86.1282 146.892 85.4946 143.52 85.0997 140.124C84.2851 133.109 84.4168 126.069 85.1491 119.054C86.194 109.021 88.2263 99.1785 91.5339 89.6408C92.5212 86.805 93.9446 84.1094 95.3927 81.4715C96.3142 79.8063 97.7376 78.3637 99.9098 78.6769C102.049 78.9902 102.757 80.8449 103.341 82.6091C104.83 87.1018 104.715 91.7099 104.106 96.3263C103.086 104.034 100.132 111.14 97.244 118.262C94.4712 125.088 92.0686 132.021 90.2256 139.159C88.8763 144.353 89.6003 149.39 91.4187 154.319C91.6902 155.045 92.3237 155.655 92.875 156.248C97.2358 160.906 101.613 165.539 105.974 170.188C106.5 170.757 106.986 171.367 107.438 171.993C107.998 172.776 108.294 173.659 107.578 174.466C106.854 175.274 105.941 175.035 105.102 174.598C104.567 174.318 104.048 173.964 103.571 173.593C99.5889 170.468 95.6149 167.336 91.6408 164.203C87.856 161.219 84.0877 158.21 80.2782 155.251C79.513 154.657 78.6491 154.138 77.7522 153.8C69.7219 150.808 61.4858 148.689 52.9206 147.997C48.2883 147.617 43.7054 148.104 39.1225 148.714C32.4333 149.612 25.7276 150.354 18.9808 149.571C13.1226 148.887 7.51119 147.329 2.58272 143.941C-0.905884 141.542 -0.831836 137.972 2.63208 135.524C4.73018 134.04 7.17385 133.496 9.65043 133.175C20.0257 131.839 30.4175 131.592 40.7928 133.125C48.5763 134.279 55.8662 137.024 62.9421 140.371C66.0029 141.822 68.9814 143.446 71.9928 144.988C72.3795 145.186 72.7662 145.367 73.2105 145.474C69.7054 141.954 66.5788 138.129 62.7776 134.856C54.8871 128.064 47.3092 120.9 39.7396 113.737C36.8023 110.958 34.3833 107.661 32.5567 104.009C31.9808 102.855 31.5447 101.586 31.3061 100.316C30.8865 98.1151 32.1206 96.3675 34.2763 95.7904C36.5061 95.1969 38.4725 95.9141 40.3074 97.1012C43.6067 99.2362 45.9434 102.303 48.1238 105.468C50.2959 108.626 52.32 111.882 54.6731 115.08C54.3934 113.143 54.2864 111.165 53.8092 109.285C51.4478 99.9616 47.8934 91.0257 44.7668 81.9496C41.92 73.6896 39.0403 65.3884 37.7238 56.708C36.8187 50.7314 36.3662 44.6807 35.8232 38.6547C35.2884 32.6947 35.3213 26.7181 36.0782 20.7746C36.2263 19.604 36.4156 18.4169 36.7612 17.2958C37.4112 15.1607 39.3282 14.4435 41.0643 15.8284C42.1833 16.7187 43.1706 17.8976 43.9111 19.1423C46.5441 23.5691 48.1156 28.4575 49.4649 33.3789C52.2706 43.5843 55.0434 53.831 56.2776 64.3662C57.1662 71.909 57.4624 79.526 57.8902 87.1183C58.3757 95.8564 58.6636 104.611 60.0953 113.267C60.7617 117.298 62.7035 120.867 64.9333 124.181C68.8744 130.042 73.0871 135.73 77.1845 141.484C77.2997 141.649 77.3902 141.839 77.4889 142.02C77.5959 141.954 77.6946 141.88 77.8016 141.814C77.6617 141.418 77.5383 141.014 77.382 140.635C71.4826 126.16 68.4136 111.099 68.1586 95.4772C67.9364 81.5704 67.525 67.6471 67.8048 53.7486C68.0351 42.2736 70.1909 30.9965 73.8523 20.0739C74.494 18.1614 75.4238 16.2736 76.5592 14.6167C78.1883 12.2425 80.7554 12.5146 81.7181 15.2267C82.7054 18.0212 83.413 20.9559 83.8161 23.8906C85.3794 35.1924 85.5028 46.5273 84.7294 57.928C83.8244 71.2248 81.5206 84.299 79.3402 97.4062C78.0896 104.908 76.7484 112.418 77.0776 120.076C77.5301 130.594 80.1218 140.495 85.906 149.414C86.1364 149.744 86.3832 150.057 86.6794 150.461Z" fill="#2E54A6"/>
<path d="M1118.6 143.567C1117.35 149.176 1116 155.418 1114.56 161.638C1114.09 163.699 1113.45 165.723 1112.82 167.74C1112.44 168.969 1111.51 169.646 1110.4 169.617C1109.39 169.594 1108.59 169.101 1108.28 168.159C1108.08 167.541 1108.08 166.775 1108.22 166.128C1109.7 159.915 1111.45 153.762 1112.68 147.505C1114.84 136.538 1114.74 125.6 1111.55 114.772C1109.96 109.377 1108.34 103.989 1105.74 98.9761C1101.64 91.0486 1096.01 84.3136 1089.14 78.6606C1083.04 73.6185 1076.62 68.9371 1070.57 63.8288C1062.79 57.2557 1055.16 50.4839 1048.51 42.7184C1044.08 37.5512 1040.81 31.7289 1038.8 25.2146C1038.4 23.9265 1037.92 22.6605 1037.52 21.3724C1037.07 19.9444 1037.62 18.6563 1038.83 18.1778C1040.1 17.6773 1041.48 18.2514 1042.04 19.6721C1042.71 21.3282 1043.24 23.0432 1043.8 24.7362C1046.23 32.1263 1050.61 38.2799 1056.02 43.7268C1064.6 52.3682 1073.67 60.4429 1083.44 67.7447C1089.91 72.5807 1096.12 77.7258 1101.42 83.8867C1108.02 91.5565 1112.43 100.338 1115.3 109.995C1117.4 117.061 1119.01 124.194 1119 131.599C1119.01 135.367 1118.76 139.121 1118.6 143.567Z" fill="black"/>
<path d="M1100.91 149.426C1100.46 152.805 1099.6 157.655 1097.81 162.278C1097.47 163.154 1097.02 164.015 1096.48 164.781C1095.54 166.113 1093.97 166.444 1092.84 165.649C1091.65 164.825 1091.71 163.537 1092.41 161.954C1093.42 159.635 1094.34 157.221 1094.9 154.755C1097.18 144.774 1097.55 134.705 1095.49 124.65C1091.82 106.749 1083.31 91.689 1068.84 80.2579C1061.67 74.6049 1054.31 69.2021 1047.2 63.4902C1041.1 58.6027 1035.15 53.5165 1029.99 47.6059C1025.89 42.9318 1023.22 37.4997 1021.57 31.5375C1021.12 29.9182 1021.77 28.5711 1023.14 28.1663C1024.47 27.7762 1025.7 28.4975 1026.22 30.0654C1027.3 33.3261 1028.38 36.5722 1030.18 39.5386C1032.75 43.771 1036.18 47.2452 1039.77 50.5943C1047.21 57.5281 1055.31 63.6448 1063.37 69.8204C1068.58 73.8099 1073.83 77.8288 1078.55 82.3704C1087.48 90.9456 1093.54 101.435 1097.51 113.145C1101.39 124.621 1102.54 135.588 1100.91 149.426Z" fill="black"/>
<path d="M1083.6 148.079C1083.04 150.545 1081.95 155.344 1080.85 160.143C1080.78 160.46 1080.65 160.769 1080.52 161.071C1079.93 162.411 1078.63 163.021 1077.41 162.55C1076.15 162.065 1075.54 160.799 1075.96 159.407C1077.77 153.585 1078.85 147.623 1079.3 141.565C1080.11 130.458 1078.77 119.667 1074.35 109.318C1071.46 102.568 1066.74 97.4672 1060.64 93.6617C1056.35 90.9898 1051.83 88.6638 1047.3 86.382C1040.96 83.1948 1034.65 80.0224 1029.23 75.341C1023.91 70.7479 1019.1 65.7132 1015.69 59.5229C1012.09 53.0234 1010.35 45.9792 1010 38.5744C1009.98 38.118 1010.09 37.6248 1010.24 37.1832C1010.72 35.7626 1011.77 35.0927 1013.06 35.3283C1014.33 35.5638 1014.98 36.6017 1015.02 38.0885C1015.07 39.8698 1015.18 41.6585 1015.43 43.4177C1016.9 53.7963 1022.1 62.0991 1029.66 69.1506C1034.85 73.9866 1040.76 77.6449 1047.08 80.7732C1052.43 83.423 1057.77 86.1538 1062.87 89.26C1069 92.9919 1074.13 97.8499 1077.43 104.394C1080.83 111.143 1082.91 118.291 1083.84 125.784C1084.65 132.423 1084.62 139.048 1083.6 148.079Z" fill="black"/>
<path d="M248.935 21.839C248.935 22.111 248.816 22.4 248.578 22.706C248.34 22.978 248.034 23.114 247.66 23.114C247.558 23.114 247.201 23.029 246.589 22.859C246.011 22.655 245.467 22.553 244.957 22.553C243.325 22.553 241.472 22.638 239.398 22.808C237.324 22.978 235.607 23.216 234.247 23.522C234.349 25.154 234.434 27.738 234.502 31.274C234.604 34.776 234.655 38.465 234.655 42.341C234.655 43.973 234.621 45.792 234.553 47.798C234.519 49.804 234.451 51.045 234.349 51.521C234.281 51.895 234.043 52.201 233.635 52.439C233.261 52.677 232.87 52.796 232.462 52.796C232.224 52.796 232.02 52.694 231.85 52.49C231.68 52.286 231.595 52.048 231.595 51.776L231.646 49.991C231.85 47.339 231.952 44.075 231.952 40.199C231.952 37.411 231.918 34.232 231.85 30.662C231.782 27.058 231.714 24.831 231.646 23.981C224.846 24.729 220.307 25.426 218.029 26.072C217.621 26.208 217.162 26.276 216.652 26.276C216.04 26.276 215.445 26.055 214.867 25.613C214.289 25.171 214 24.695 214 24.185C214 23.845 214.102 23.607 214.306 23.471C214.51 23.301 214.765 23.216 215.071 23.216C217.009 23.114 218.641 23.012 219.967 22.91C222.993 22.638 226.801 22.213 231.391 21.635C231.391 20.581 231.408 19.833 231.442 19.391C231.51 18.949 231.629 18.728 231.799 18.728C232.445 18.728 233.023 18.983 233.533 19.493C233.635 19.595 233.72 19.867 233.788 20.309C233.856 20.717 233.89 20.989 233.89 21.125C234.638 21.091 235.862 20.921 237.562 20.615C241.234 20.037 243.75 19.748 245.11 19.748C246.742 19.748 247.83 19.952 248.374 20.36C248.748 20.632 248.935 21.125 248.935 21.839ZM275.306 53.714C275.306 54.122 275.17 54.462 274.898 54.734C274.626 55.04 274.269 55.193 273.827 55.193C273.487 55.193 273.198 55.108 272.96 54.938C272.722 54.802 272.603 54.598 272.603 54.326L272.705 50.807C272.875 46.625 272.96 43.208 272.96 40.556C272.96 36.68 272.688 33.977 272.144 32.447C271.6 30.883 270.971 30.101 270.257 30.101C268.659 30.101 266.653 32.583 264.239 37.547C261.825 42.477 259.496 47.866 257.252 53.714C257.082 54.19 256.844 54.649 256.538 55.091C256.266 55.533 255.977 55.754 255.671 55.754C254.923 55.754 254.549 55.516 254.549 55.04C254.549 52.966 254.464 49.09 254.294 43.412C254.124 37.7 253.988 33.943 253.886 32.141C253.58 26.055 253.291 22.298 253.019 20.87C252.747 19.442 252.611 18.677 252.611 18.575C252.611 18.235 252.798 17.98 253.172 17.81C253.546 17.64 254.022 17.555 254.6 17.555C255.076 17.555 255.416 18.643 255.62 20.819C255.858 22.961 256.028 25.715 256.13 29.081L256.181 30.509C256.249 31.563 256.3 34.589 256.334 39.587C256.368 44.551 256.385 48.206 256.385 50.552C257.949 46.642 259.411 43.157 260.771 40.097C262.165 37.037 263.763 34.181 265.565 31.529C267.367 28.843 269.033 27.5 270.563 27.5C271.855 27.5 272.943 28.588 273.827 30.764C274.711 32.906 275.153 36.119 275.153 40.403C275.153 42.307 275.187 44.959 275.255 48.359L275.306 53.714ZM301.346 39.995C301.584 39.995 301.703 40.25 301.703 40.76C301.703 41.372 301.244 42.715 300.326 44.789C299.442 46.863 298.082 48.784 296.246 50.552C294.444 52.32 292.217 53.204 289.565 53.204C287.389 53.204 285.57 52.524 284.108 51.164C282.646 49.804 281.915 47.713 281.915 44.891C281.915 42.239 282.527 39.621 283.751 37.037C284.975 34.419 286.573 32.294 288.545 30.662C290.517 28.996 292.557 28.163 294.665 28.163C295.923 28.163 296.977 28.452 297.827 29.03C298.711 29.574 299.153 30.373 299.153 31.427C299.153 32.617 298.473 33.773 297.113 34.895C295.787 36.017 294.053 37.003 291.911 37.853C289.769 38.703 287.559 39.315 285.281 39.689C284.873 41.253 284.669 42.783 284.669 44.279C284.669 46.251 285.128 47.781 286.046 48.869C286.998 49.957 288.341 50.501 290.075 50.501C292.693 50.501 294.818 49.566 296.45 47.696C298.082 45.826 299.442 43.718 300.53 41.372C300.598 41.236 300.717 40.981 300.887 40.607C301.057 40.199 301.21 39.995 301.346 39.995ZM296.858 31.988C296.858 31.444 296.569 31.019 295.991 30.713C295.447 30.407 294.801 30.254 294.053 30.254C292.761 30.254 291.52 30.679 290.33 31.529C289.14 32.379 288.137 33.399 287.321 34.589C286.539 35.779 286.029 36.833 285.791 37.751C287.355 37.581 289.004 37.139 290.738 36.425C292.472 35.711 293.917 34.929 295.073 34.079C296.263 33.229 296.858 32.532 296.858 31.988ZM344.083 52.49C344.083 55.142 343.556 57.556 342.502 59.732C341.448 61.908 340.207 63.676 338.779 65.036C337.317 66.43 335.787 67.552 334.189 68.402C332.625 69.286 331.265 69.728 330.109 69.728C329.463 69.728 329.004 69.558 328.732 69.218C328.46 68.912 328.324 68.538 328.324 68.096C328.324 67.688 329.089 67.212 330.619 66.668C332.931 65.92 335.073 64.662 337.045 62.894C338.575 61.534 339.697 59.987 340.411 58.253C341.125 56.519 341.482 54.751 341.482 52.949C341.482 50.909 341.346 49.039 341.074 47.339C340.836 45.639 340.445 43.548 339.901 41.066C339.289 38.448 338.864 36.221 338.626 34.385C338.048 35.949 337.147 37.836 335.923 40.046C334.733 42.256 333.305 44.381 331.639 46.421C330.075 48.359 328.647 49.804 327.355 50.756C326.097 51.708 324.873 52.184 323.683 52.184C322.663 52.184 321.898 51.793 321.388 51.011C320.912 50.195 320.674 49.09 320.674 47.696C320.674 45.384 321.388 42.664 322.816 39.536C324.244 36.408 326.029 33.722 328.171 31.478C330.313 29.234 332.421 28.112 334.495 28.112C335.209 28.112 335.753 28.367 336.127 28.877C336.535 29.387 336.739 29.999 336.739 30.713C336.739 31.631 336.552 32.09 336.178 32.09C336.076 32.09 335.94 31.971 335.77 31.733C335.634 31.461 335.464 31.223 335.26 31.019C335.056 30.815 334.835 30.713 334.597 30.713C332.863 30.713 331.095 31.682 329.293 33.62C327.525 35.558 326.046 37.836 324.856 40.454C323.7 43.038 323.122 45.163 323.122 46.829C323.122 47.747 323.241 48.41 323.479 48.818C323.751 49.226 324.159 49.43 324.703 49.43C325.519 49.43 326.505 48.954 327.661 48.002C328.817 47.05 330.194 45.554 331.792 43.514C333.22 41.712 334.512 39.621 335.668 37.241C336.858 34.827 337.759 32.532 338.371 30.356C338.439 30.152 338.541 29.982 338.677 29.846C338.847 29.71 339.034 29.642 339.238 29.642C339.544 29.642 339.85 29.744 340.156 29.948C340.496 30.118 340.666 30.305 340.666 30.509C340.666 30.645 340.632 30.798 340.564 30.968C340.53 31.104 340.496 31.189 340.462 31.223C340.7 33.093 341.261 36 342.145 39.944C342.791 42.732 343.267 45.078 343.573 46.982C343.913 48.852 344.083 50.688 344.083 52.49ZM367.033 31.529C367.033 31.835 366.812 32.192 366.37 32.6C365.962 32.974 365.605 33.161 365.299 33.161C365.061 33.161 364.823 33.059 364.585 32.855C364.381 32.651 364.143 32.362 363.871 31.988C363.633 31.648 363.31 31.359 362.902 31.121C362.528 30.883 362.137 30.764 361.729 30.764C360.743 30.764 359.417 32.073 357.751 34.691C356.085 37.275 354.453 40.539 352.855 44.483C352.889 45.265 352.94 46.251 353.008 47.441C353.11 48.631 353.178 49.515 353.212 50.093L353.365 52.133C353.365 52.609 353.263 53.017 353.059 53.357C352.855 53.731 352.481 53.918 351.937 53.918C351.359 53.918 350.985 53.153 350.815 51.623C350.645 50.059 350.543 47.798 350.509 44.84C350.475 44.092 350.441 43.021 350.407 41.627C350.407 40.233 350.373 38.567 350.305 36.629C350.203 33.705 350.152 31.614 350.152 30.356C350.152 29.574 350.628 29.183 351.58 29.183C352.158 29.183 352.498 29.438 352.6 29.948C352.736 30.424 352.804 31.359 352.804 32.753V40.862C353.824 38.244 354.929 35.983 356.119 34.079C357.309 32.175 358.465 30.73 359.587 29.744C360.743 28.724 361.763 28.214 362.647 28.214C363.395 28.214 364.109 28.384 364.789 28.724C365.469 29.064 366.013 29.506 366.421 30.05C366.829 30.56 367.033 31.053 367.033 31.529ZM390.445 39.995C390.683 39.995 390.802 40.25 390.802 40.76C390.802 41.372 390.343 42.715 389.425 44.789C388.541 46.863 387.181 48.784 385.345 50.552C383.543 52.32 381.316 53.204 378.664 53.204C376.488 53.204 374.669 52.524 373.207 51.164C371.745 49.804 371.014 47.713 371.014 44.891C371.014 42.239 371.626 39.621 372.85 37.037C374.074 34.419 375.672 32.294 377.644 30.662C379.616 28.996 381.656 28.163 383.764 28.163C385.022 28.163 386.076 28.452 386.926 29.03C387.81 29.574 388.252 30.373 388.252 31.427C388.252 32.617 387.572 33.773 386.212 34.895C384.886 36.017 383.152 37.003 381.01 37.853C378.868 38.703 376.658 39.315 374.38 39.689C373.972 41.253 373.768 42.783 373.768 44.279C373.768 46.251 374.227 47.781 375.145 48.869C376.097 49.957 377.44 50.501 379.174 50.501C381.792 50.501 383.917 49.566 385.549 47.696C387.181 45.826 388.541 43.718 389.629 41.372C389.697 41.236 389.816 40.981 389.986 40.607C390.156 40.199 390.309 39.995 390.445 39.995ZM385.957 31.988C385.957 31.444 385.668 31.019 385.09 30.713C384.546 30.407 383.9 30.254 383.152 30.254C381.86 30.254 380.619 30.679 379.429 31.529C378.239 32.379 377.236 33.399 376.42 34.589C375.638 35.779 375.128 36.833 374.89 37.751C376.454 37.581 378.103 37.139 379.837 36.425C381.571 35.711 383.016 34.929 384.172 34.079C385.362 33.229 385.957 32.532 385.957 31.988ZM416.448 49.736C416.482 49.974 416.618 50.229 416.856 50.501C417.094 50.739 417.213 50.943 417.213 51.113C417.213 51.521 417.043 51.997 416.703 52.541C416.363 53.051 416.023 53.306 415.683 53.306C415.105 53.306 414.663 52.949 414.357 52.235C414.051 51.521 413.898 50.688 413.898 49.736C413.898 48.92 413.949 46.472 414.051 42.392L414.102 40.454C414.102 39.672 413.898 39.111 413.49 38.771C411.96 41.355 410.532 43.599 409.206 45.503C407.88 47.407 406.197 49.209 404.157 50.909C402.117 52.575 399.975 53.408 397.731 53.408C396.643 53.408 395.793 53.068 395.181 52.388C394.603 51.708 394.314 50.824 394.314 49.736C394.314 48.376 394.926 46.523 396.15 44.177C397.374 41.797 398.938 39.4 400.842 36.986C402.746 34.538 404.65 32.532 406.554 30.968C407.812 29.948 408.815 29.268 409.563 28.928C410.311 28.554 410.974 28.367 411.552 28.367C412.096 28.367 412.657 28.537 413.235 28.877C413.813 29.217 414.306 29.693 414.714 30.305C415.122 30.917 415.326 31.614 415.326 32.396C415.326 33.45 415.037 34.453 414.459 35.405L415.326 35.15C415.7 35.15 415.921 35.609 415.989 36.527C416.023 37.071 416.057 38.176 416.091 39.842C416.159 41.508 416.21 42.885 416.244 43.973C416.278 45.095 416.312 46.183 416.346 47.237C416.38 48.291 416.414 49.124 416.448 49.736ZM398.445 50.654C400.281 50.654 402.049 49.974 403.749 48.614C405.449 47.254 406.962 45.639 408.288 43.769C409.648 41.865 411.144 39.536 412.776 36.782C413.184 35.762 413.388 34.657 413.388 33.467C413.388 32.753 413.167 32.141 412.725 31.631C412.317 31.087 411.756 30.815 411.042 30.815C410.192 30.815 409.104 31.393 407.778 32.549C406.248 33.841 404.633 35.575 402.933 37.751C401.233 39.893 399.822 42.018 398.7 44.126C397.578 46.234 397.017 47.9 397.017 49.124C397.017 50.144 397.493 50.654 398.445 50.654ZM445.431 31.886C445.431 32.464 445.176 32.906 444.666 33.212C444.19 33.518 443.306 33.756 442.014 33.926C438.886 34.47 437.135 34.776 436.761 34.844L433.446 35.405C433.446 37.173 433.463 39.026 433.497 40.964C433.565 42.902 433.65 44.602 433.752 46.064C433.888 48.036 434.126 49.549 434.466 50.603C434.806 51.657 434.993 52.252 435.027 52.388C435.027 52.728 434.806 53.034 434.364 53.306C433.956 53.612 433.565 53.765 433.191 53.765C432.987 53.765 432.817 53.697 432.681 53.561C432.545 53.459 432.426 53.272 432.324 53C432.12 52.524 431.916 51.64 431.712 50.348C431.542 49.056 431.406 47.628 431.304 46.064C431.202 44.67 431.117 43.055 431.049 41.219C431.015 39.349 430.998 37.547 430.998 35.813C429.094 36.119 427.139 36.493 425.133 36.935C423.331 37.309 422.26 37.496 421.92 37.496C421.512 37.496 421.121 37.377 420.747 37.139C420.407 36.901 420.237 36.578 420.237 36.17C420.237 35.728 420.39 35.439 420.696 35.303C421.002 35.167 421.512 35.099 422.226 35.099C422.736 35.099 423.484 35.014 424.47 34.844C425.456 34.64 426.085 34.504 426.357 34.436C428.635 33.994 430.182 33.705 430.998 33.569C430.998 32.855 430.964 31.92 430.896 30.764C430.828 29.2 430.794 28.01 430.794 27.194C430.794 25.868 430.828 24.848 430.896 24.134C430.998 23.386 431.168 22.723 431.406 22.145C431.678 21.465 432.188 21.125 432.936 21.125C433.242 21.125 433.446 21.176 433.548 21.278C433.65 21.38 433.701 21.567 433.701 21.839C433.701 22.043 433.616 22.638 433.446 23.624C433.276 24.61 433.191 25.919 433.191 27.551C433.191 28.809 433.225 30.22 433.293 31.784L433.344 33.161C434.874 32.923 437.9 32.294 442.422 31.274C442.694 31.206 442.915 30.968 443.085 30.56C443.289 30.152 443.493 29.948 443.697 29.948C444.071 29.948 444.445 30.169 444.819 30.611C445.227 31.019 445.431 31.444 445.431 31.886ZM467.827 39.995C468.065 39.995 468.184 40.25 468.184 40.76C468.184 41.372 467.725 42.715 466.807 44.789C465.923 46.863 464.563 48.784 462.727 50.552C460.925 52.32 458.698 53.204 456.046 53.204C453.87 53.204 452.051 52.524 450.589 51.164C449.127 49.804 448.396 47.713 448.396 44.891C448.396 42.239 449.008 39.621 450.232 37.037C451.456 34.419 453.054 32.294 455.026 30.662C456.998 28.996 459.038 28.163 461.146 28.163C462.404 28.163 463.458 28.452 464.308 29.03C465.192 29.574 465.634 30.373 465.634 31.427C465.634 32.617 464.954 33.773 463.594 34.895C462.268 36.017 460.534 37.003 458.392 37.853C456.25 38.703 454.04 39.315 451.762 39.689C451.354 41.253 451.15 42.783 451.15 44.279C451.15 46.251 451.609 47.781 452.527 48.869C453.479 49.957 454.822 50.501 456.556 50.501C459.174 50.501 461.299 49.566 462.931 47.696C464.563 45.826 465.923 43.718 467.011 41.372C467.079 41.236 467.198 40.981 467.368 40.607C467.538 40.199 467.691 39.995 467.827 39.995ZM463.339 31.988C463.339 31.444 463.05 31.019 462.472 30.713C461.928 30.407 461.282 30.254 460.534 30.254C459.242 30.254 458.001 30.679 456.811 31.529C455.621 32.379 454.618 33.399 453.802 34.589C453.02 35.779 452.51 36.833 452.272 37.751C453.836 37.581 455.485 37.139 457.219 36.425C458.953 35.711 460.398 34.929 461.554 34.079C462.744 33.229 463.339 32.532 463.339 31.988ZM490.21 31.529C490.21 31.835 489.989 32.192 489.547 32.6C489.139 32.974 488.782 33.161 488.476 33.161C488.238 33.161 488 33.059 487.762 32.855C487.558 32.651 487.32 32.362 487.048 31.988C486.81 31.648 486.487 31.359 486.079 31.121C485.705 30.883 485.314 30.764 484.906 30.764C483.92 30.764 482.594 32.073 480.928 34.691C479.262 37.275 477.63 40.539 476.032 44.483C476.066 45.265 476.117 46.251 476.185 47.441C476.287 48.631 476.355 49.515 476.389 50.093L476.542 52.133C476.542 52.609 476.44 53.017 476.236 53.357C476.032 53.731 475.658 53.918 475.114 53.918C474.536 53.918 474.162 53.153 473.992 51.623C473.822 50.059 473.72 47.798 473.686 44.84C473.652 44.092 473.618 43.021 473.584 41.627C473.584 40.233 473.55 38.567 473.482 36.629C473.38 33.705 473.329 31.614 473.329 30.356C473.329 29.574 473.805 29.183 474.757 29.183C475.335 29.183 475.675 29.438 475.777 29.948C475.913 30.424 475.981 31.359 475.981 32.753V40.862C477.001 38.244 478.106 35.983 479.296 34.079C480.486 32.175 481.642 30.73 482.764 29.744C483.92 28.724 484.94 28.214 485.824 28.214C486.572 28.214 487.286 28.384 487.966 28.724C488.646 29.064 489.19 29.506 489.598 30.05C490.006 30.56 490.21 31.053 490.21 31.529ZM532.089 31.886C532.089 32.464 531.834 32.906 531.324 33.212C530.848 33.518 529.964 33.756 528.672 33.926C525.544 34.47 523.793 34.776 523.419 34.844L520.104 35.405C520.104 37.173 520.121 39.026 520.155 40.964C520.223 42.902 520.308 44.602 520.41 46.064C520.546 48.036 520.784 49.549 521.124 50.603C521.464 51.657 521.651 52.252 521.685 52.388C521.685 52.728 521.464 53.034 521.022 53.306C520.614 53.612 520.223 53.765 519.849 53.765C519.645 53.765 519.475 53.697 519.339 53.561C519.203 53.459 519.084 53.272 518.982 53C518.778 52.524 518.574 51.64 518.37 50.348C518.2 49.056 518.064 47.628 517.962 46.064C517.86 44.67 517.775 43.055 517.707 41.219C517.673 39.349 517.656 37.547 517.656 35.813C515.752 36.119 513.797 36.493 511.791 36.935C509.989 37.309 508.918 37.496 508.578 37.496C508.17 37.496 507.779 37.377 507.405 37.139C507.065 36.901 506.895 36.578 506.895 36.17C506.895 35.728 507.048 35.439 507.354 35.303C507.66 35.167 508.17 35.099 508.884 35.099C509.394 35.099 510.142 35.014 511.128 34.844C512.114 34.64 512.743 34.504 513.015 34.436C515.293 33.994 516.84 33.705 517.656 33.569C517.656 32.855 517.622 31.92 517.554 30.764C517.486 29.2 517.452 28.01 517.452 27.194C517.452 25.868 517.486 24.848 517.554 24.134C517.656 23.386 517.826 22.723 518.064 22.145C518.336 21.465 518.846 21.125 519.594 21.125C519.9 21.125 520.104 21.176 520.206 21.278C520.308 21.38 520.359 21.567 520.359 21.839C520.359 22.043 520.274 22.638 520.104 23.624C519.934 24.61 519.849 25.919 519.849 27.551C519.849 28.809 519.883 30.22 519.951 31.784L520.002 33.161C521.532 32.923 524.558 32.294 529.08 31.274C529.352 31.206 529.573 30.968 529.743 30.56C529.947 30.152 530.151 29.948 530.355 29.948C530.729 29.948 531.103 30.169 531.477 30.611C531.885 31.019 532.089 31.444 532.089 31.886ZM557.444 53.714C557.444 54.122 557.308 54.462 557.036 54.734C556.764 55.04 556.407 55.193 555.965 55.193C555.625 55.193 555.336 55.108 555.098 54.938C554.86 54.802 554.741 54.598 554.741 54.326L554.843 50.807C555.013 46.625 555.098 43.208 555.098 40.556C555.098 36.68 554.826 33.977 554.282 32.447C553.738 30.883 553.109 30.101 552.395 30.101C550.797 30.101 548.791 32.583 546.377 37.547C543.963 42.477 541.634 47.866 539.39 53.714C539.22 54.19 538.982 54.649 538.676 55.091C538.404 55.533 538.115 55.754 537.809 55.754C537.061 55.754 536.687 55.516 536.687 55.04C536.687 52.966 536.602 49.09 536.432 43.412C536.262 37.7 536.126 33.943 536.024 32.141C535.718 26.055 535.429 22.298 535.157 20.87C534.885 19.442 534.749 18.677 534.749 18.575C534.749 18.235 534.936 17.98 535.31 17.81C535.684 17.64 536.16 17.555 536.738 17.555C537.214 17.555 537.554 18.643 537.758 20.819C537.996 22.961 538.166 25.715 538.268 29.081L538.319 30.509C538.387 31.563 538.438 34.589 538.472 39.587C538.506 44.551 538.523 48.206 538.523 50.552C540.087 46.642 541.549 43.157 542.909 40.097C544.303 37.037 545.901 34.181 547.703 31.529C549.505 28.843 551.171 27.5 552.701 27.5C553.993 27.5 555.081 28.588 555.965 30.764C556.849 32.906 557.291 36.119 557.291 40.403C557.291 42.307 557.325 44.959 557.393 48.359L557.444 53.714ZM583.484 39.995C583.722 39.995 583.841 40.25 583.841 40.76C583.841 41.372 583.382 42.715 582.464 44.789C581.58 46.863 580.22 48.784 578.384 50.552C576.582 52.32 574.355 53.204 571.703 53.204C569.527 53.204 567.708 52.524 566.246 51.164C564.784 49.804 564.053 47.713 564.053 44.891C564.053 42.239 564.665 39.621 565.889 37.037C567.113 34.419 568.711 32.294 570.683 30.662C572.655 28.996 574.695 28.163 576.803 28.163C578.061 28.163 579.115 28.452 579.965 29.03C580.849 29.574 581.291 30.373 581.291 31.427C581.291 32.617 580.611 33.773 579.251 34.895C577.925 36.017 576.191 37.003 574.049 37.853C571.907 38.703 569.697 39.315 567.419 39.689C567.011 41.253 566.807 42.783 566.807 44.279C566.807 46.251 567.266 47.781 568.184 48.869C569.136 49.957 570.479 50.501 572.213 50.501C574.831 50.501 576.956 49.566 578.588 47.696C580.22 45.826 581.58 43.718 582.668 41.372C582.736 41.236 582.855 40.981 583.025 40.607C583.195 40.199 583.348 39.995 583.484 39.995ZM578.996 31.988C578.996 31.444 578.707 31.019 578.129 30.713C577.585 30.407 576.939 30.254 576.191 30.254C574.899 30.254 573.658 30.679 572.468 31.529C571.278 32.379 570.275 33.399 569.459 34.589C568.677 35.779 568.167 36.833 567.929 37.751C569.493 37.581 571.142 37.139 572.876 36.425C574.61 35.711 576.055 34.929 577.211 34.079C578.401 33.229 578.996 32.532 578.996 31.988ZM621.784 18.116C621.784 18.796 621.75 20.139 621.682 22.145C621.614 24.117 621.58 26.106 621.58 28.112C621.58 31.988 621.665 35.949 621.835 39.995C622.005 44.007 622.141 46.642 622.243 47.9C622.243 48.104 622.26 48.325 622.294 48.563C622.328 48.801 622.362 49.022 622.396 49.226C622.532 50.178 622.6 50.756 622.6 50.96C622.6 51.3 622.345 51.623 621.835 51.929C621.359 52.235 620.985 52.388 620.713 52.388C620.339 52.388 620.084 52.252 619.948 51.98C619.846 51.674 619.795 51.266 619.795 50.756C619.795 48.886 619.846 46.931 619.948 44.891L619.999 42.035C619.999 41.083 619.982 39.842 619.948 38.312C619.914 36.748 619.863 35.439 619.795 34.385C618.061 39.961 616.089 44.585 613.879 48.257C611.703 51.895 609.34 53.714 606.79 53.714C605.634 53.714 604.648 53.17 603.832 52.082C603.05 50.994 602.659 49.43 602.659 47.39C602.659 44.704 603.56 41.78 605.362 38.618C607.198 35.456 609.272 32.736 611.584 30.458C613.93 28.18 615.664 27.041 616.786 27.041C617.874 27.041 618.418 27.398 618.418 28.112C618.418 28.588 618.248 29.149 617.908 29.795C617.602 30.407 617.245 30.968 616.837 31.478C616.463 31.988 616.242 32.243 616.174 32.243C616.106 32.243 616.021 32.226 615.919 32.192C615.851 32.124 615.817 32.056 615.817 31.988C615.817 31.818 615.902 31.529 616.072 31.121C616.242 30.713 616.327 30.441 616.327 30.305C616.327 30.135 616.31 30.016 616.276 29.948C616.242 29.88 616.14 29.846 615.97 29.846C615.256 29.846 613.964 30.832 612.094 32.804C610.258 34.742 608.609 37.054 607.147 39.74C605.685 42.426 604.954 44.925 604.954 47.237C604.954 48.053 605.124 48.818 605.464 49.532C605.804 50.246 606.365 50.603 607.147 50.603C609.629 50.603 611.924 48.512 614.032 44.33C616.174 40.114 618.027 35.337 619.591 29.999L619.489 25.715C619.387 21.941 619.336 19.935 619.336 19.697C619.336 17.657 619.421 16.195 619.591 15.311C619.659 14.971 619.727 14.733 619.795 14.597C619.897 14.461 620.084 14.393 620.356 14.393C620.696 14.393 621.036 14.512 621.376 14.75C621.716 14.954 621.886 15.243 621.886 15.617L621.784 18.116ZM631.607 21.074C631.607 21.584 631.046 21.839 629.924 21.839C629.346 21.839 628.751 21.601 628.139 21.125C627.561 20.649 627.272 20.258 627.272 19.952C627.272 19.578 627.442 19.221 627.782 18.881C628.156 18.541 628.53 18.371 628.904 18.371C628.904 18.371 629.023 18.422 629.261 18.524C629.533 18.592 629.839 18.813 630.179 19.187C630.451 19.459 630.757 19.816 631.097 20.258C631.437 20.7 631.607 20.972 631.607 21.074ZM632.882 53.153C632.882 53.493 632.729 53.748 632.423 53.918C632.151 54.122 631.828 54.207 631.454 54.173C630.978 54.139 630.621 53.374 630.383 51.878C630.179 50.382 629.958 47.543 629.72 43.361C629.584 40.607 629.465 37.921 629.363 35.303C629.261 32.651 629.193 30.611 629.159 29.183C629.159 28.809 629.21 28.537 629.312 28.367C629.448 28.163 629.686 28.061 630.026 28.061C630.808 28.061 631.301 28.384 631.505 29.03C631.709 29.676 631.811 30.917 631.811 32.753L631.76 38.771C631.76 42.205 631.862 44.959 632.066 47.033C632.066 47.135 632.219 48.223 632.525 50.297C632.763 51.725 632.882 52.677 632.882 53.153ZM664.898 27.143C664.898 27.313 664.66 27.551 664.184 27.857C663.742 28.163 663.47 28.384 663.368 28.52C661.6 30.526 659.951 33.399 658.421 37.139C656.891 40.879 655.684 44.925 654.8 49.277C654.698 49.787 654.528 50.807 654.29 52.337L654.035 54.122C653.933 54.666 653.695 55.091 653.321 55.397C652.981 55.703 652.369 55.856 651.485 55.856C651.315 55.856 650.737 54.836 649.751 52.796C648.765 50.722 647.728 48.495 646.64 46.115L644.447 41.321C643.121 38.431 642.016 36.17 641.132 34.538C640.248 32.906 639.602 32.09 639.194 32.09C639.058 32.09 638.939 32.175 638.837 32.345C638.769 32.515 638.684 32.6 638.582 32.6C638.412 32.6 638.259 32.532 638.123 32.396C638.021 32.226 637.97 32.056 637.97 31.886C637.97 31.444 638.208 30.866 638.684 30.152C639.194 29.438 639.687 29.081 640.163 29.081C640.503 29.081 640.758 29.149 640.928 29.285C641.098 29.421 641.251 29.574 641.387 29.744C641.523 29.914 641.625 30.05 641.693 30.152C642.509 31.172 643.92 33.858 645.926 38.21C646.64 39.74 648.408 43.735 651.23 50.195L652.403 52.898C652.403 52.014 652.573 50.586 652.913 48.614C653.661 44.602 654.783 40.624 656.279 36.68C657.775 32.736 659.526 29.438 661.532 26.786C661.94 26.242 662.263 25.868 662.501 25.664C662.773 25.426 663.113 25.307 663.521 25.307C663.691 25.307 663.963 25.579 664.337 26.123C664.711 26.633 664.898 26.973 664.898 27.143ZM686.938 39.995C687.176 39.995 687.295 40.25 687.295 40.76C687.295 41.372 686.836 42.715 685.918 44.789C685.034 46.863 683.674 48.784 681.838 50.552C680.036 52.32 677.809 53.204 675.157 53.204C672.981 53.204 671.162 52.524 669.7 51.164C668.238 49.804 667.507 47.713 667.507 44.891C667.507 42.239 668.119 39.621 669.343 37.037C670.567 34.419 672.165 32.294 674.137 30.662C676.109 28.996 678.149 28.163 680.257 28.163C681.515 28.163 682.569 28.452 683.419 29.03C684.303 29.574 684.745 30.373 684.745 31.427C684.745 32.617 684.065 33.773 682.705 34.895C681.379 36.017 679.645 37.003 677.503 37.853C675.361 38.703 673.151 39.315 670.873 39.689C670.465 41.253 670.261 42.783 670.261 44.279C670.261 46.251 670.72 47.781 671.638 48.869C672.59 49.957 673.933 50.501 675.667 50.501C678.285 50.501 680.41 49.566 682.042 47.696C683.674 45.826 685.034 43.718 686.122 41.372C686.19 41.236 686.309 40.981 686.479 40.607C686.649 40.199 686.802 39.995 686.938 39.995ZM682.45 31.988C682.45 31.444 682.161 31.019 681.583 30.713C681.039 30.407 680.393 30.254 679.645 30.254C678.353 30.254 677.112 30.679 675.922 31.529C674.732 32.379 673.729 33.399 672.913 34.589C672.131 35.779 671.621 36.833 671.383 37.751C672.947 37.581 674.596 37.139 676.33 36.425C678.064 35.711 679.509 34.929 680.665 34.079C681.855 33.229 682.45 32.532 682.45 31.988ZM709.32 31.529C709.32 31.835 709.099 32.192 708.657 32.6C708.249 32.974 707.892 33.161 707.586 33.161C707.348 33.161 707.11 33.059 706.872 32.855C706.668 32.651 706.43 32.362 706.158 31.988C705.92 31.648 705.597 31.359 705.189 31.121C704.815 30.883 704.424 30.764 704.016 30.764C703.03 30.764 701.704 32.073 700.038 34.691C698.372 37.275 696.74 40.539 695.142 44.483C695.176 45.265 695.227 46.251 695.295 47.441C695.397 48.631 695.465 49.515 695.499 50.093L695.652 52.133C695.652 52.609 695.55 53.017 695.346 53.357C695.142 53.731 694.768 53.918 694.224 53.918C693.646 53.918 693.272 53.153 693.102 51.623C692.932 50.059 692.83 47.798 692.796 44.84C692.762 44.092 692.728 43.021 692.694 41.627C692.694 40.233 692.66 38.567 692.592 36.629C692.49 33.705 692.439 31.614 692.439 30.356C692.439 29.574 692.915 29.183 693.867 29.183C694.445 29.183 694.785 29.438 694.887 29.948C695.023 30.424 695.091 31.359 695.091 32.753V40.862C696.111 38.244 697.216 35.983 698.406 34.079C699.596 32.175 700.752 30.73 701.874 29.744C703.03 28.724 704.05 28.214 704.934 28.214C705.682 28.214 706.396 28.384 707.076 28.724C707.756 29.064 708.3 29.506 708.708 30.05C709.116 30.56 709.32 31.053 709.32 31.529ZM731.815 45.86C731.815 47.356 731.203 48.801 729.979 50.195C728.789 51.555 727.208 52.643 725.236 53.459C723.264 54.309 721.207 54.734 719.065 54.734C717.603 54.734 716.617 54.598 716.107 54.326C715.597 54.054 715.342 53.68 715.342 53.204C715.342 52.898 715.733 52.371 716.515 51.623C717.297 50.841 717.824 50.45 718.096 50.45C718.504 50.45 718.708 50.535 718.708 50.705C718.708 50.841 718.623 50.977 718.453 51.113C718.283 51.249 718.198 51.368 718.198 51.47C718.198 51.606 718.402 51.742 718.81 51.878C719.252 52.014 719.779 52.082 720.391 52.082C721.819 52.082 723.247 51.827 724.675 51.317C726.137 50.773 727.327 50.076 728.245 49.226C729.163 48.376 729.622 47.475 729.622 46.523C729.622 45.605 729.333 44.874 728.755 44.33C728.177 43.786 727.446 43.395 726.562 43.157C725.712 42.885 724.267 42.511 722.227 42.035C719.983 41.525 718.232 41.083 716.974 40.709C715.75 40.301 714.764 39.808 714.016 39.23C713.268 38.618 712.894 37.853 712.894 36.935C712.894 35.303 713.693 33.807 715.291 32.447C716.889 31.087 718.725 30.016 720.799 29.234C722.873 28.452 724.471 28.061 725.593 28.061C726.749 28.061 727.327 28.401 727.327 29.081C727.327 29.489 727.191 29.948 726.919 30.458C726.647 30.934 726.239 31.172 725.695 31.172C725.491 31.172 725.27 31.104 725.032 30.968C724.794 30.798 724.556 30.713 724.318 30.713C723.638 30.713 722.567 30.934 721.105 31.376C719.643 31.818 718.317 32.481 717.127 33.365C715.937 34.249 715.342 35.32 715.342 36.578C715.342 37.394 715.801 38.006 716.719 38.414C717.671 38.788 719.422 39.264 721.972 39.842C722.278 39.944 722.584 40.029 722.89 40.097C723.196 40.131 723.468 40.182 723.706 40.25C726.324 40.862 728.33 41.559 729.724 42.341C731.118 43.123 731.815 44.296 731.815 45.86ZM740.041 21.074C740.041 21.584 739.48 21.839 738.358 21.839C737.78 21.839 737.185 21.601 736.573 21.125C735.995 20.649 735.706 20.258 735.706 19.952C735.706 19.578 735.876 19.221 736.216 18.881C736.59 18.541 736.964 18.371 737.338 18.371C737.338 18.371 737.457 18.422 737.695 18.524C737.967 18.592 738.273 18.813 738.613 19.187C738.885 19.459 739.191 19.816 739.531 20.258C739.871 20.7 740.041 20.972 740.041 21.074ZM741.316 53.153C741.316 53.493 741.163 53.748 740.857 53.918C740.585 54.122 740.262 54.207 739.888 54.173C739.412 54.139 739.055 53.374 738.817 51.878C738.613 50.382 738.392 47.543 738.154 43.361C738.018 40.607 737.899 37.921 737.797 35.303C737.695 32.651 737.627 30.611 737.593 29.183C737.593 28.809 737.644 28.537 737.746 28.367C737.882 28.163 738.12 28.061 738.46 28.061C739.242 28.061 739.735 28.384 739.939 29.03C740.143 29.676 740.245 30.917 740.245 32.753L740.194 38.771C740.194 42.205 740.296 44.959 740.5 47.033C740.5 47.135 740.653 48.223 740.959 50.297C741.197 51.725 741.316 52.677 741.316 53.153ZM770.885 31.886C770.885 32.464 770.63 32.906 770.12 33.212C769.644 33.518 768.76 33.756 767.468 33.926C764.34 34.47 762.589 34.776 762.215 34.844L758.9 35.405C758.9 37.173 758.917 39.026 758.951 40.964C759.019 42.902 759.104 44.602 759.206 46.064C759.342 48.036 759.58 49.549 759.92 50.603C760.26 51.657 760.447 52.252 760.481 52.388C760.481 52.728 760.26 53.034 759.818 53.306C759.41 53.612 759.019 53.765 758.645 53.765C758.441 53.765 758.271 53.697 758.135 53.561C757.999 53.459 757.88 53.272 757.778 53C757.574 52.524 757.37 51.64 757.166 50.348C756.996 49.056 756.86 47.628 756.758 46.064C756.656 44.67 756.571 43.055 756.503 41.219C756.469 39.349 756.452 37.547 756.452 35.813C754.548 36.119 752.593 36.493 750.587 36.935C748.785 37.309 747.714 37.496 747.374 37.496C746.966 37.496 746.575 37.377 746.201 37.139C745.861 36.901 745.691 36.578 745.691 36.17C745.691 35.728 745.844 35.439 746.15 35.303C746.456 35.167 746.966 35.099 747.68 35.099C748.19 35.099 748.938 35.014 749.924 34.844C750.91 34.64 751.539 34.504 751.811 34.436C754.089 33.994 755.636 33.705 756.452 33.569C756.452 32.855 756.418 31.92 756.35 30.764C756.282 29.2 756.248 28.01 756.248 27.194C756.248 25.868 756.282 24.848 756.35 24.134C756.452 23.386 756.622 22.723 756.86 22.145C757.132 21.465 757.642 21.125 758.39 21.125C758.696 21.125 758.9 21.176 759.002 21.278C759.104 21.38 759.155 21.567 759.155 21.839C759.155 22.043 759.07 22.638 758.9 23.624C758.73 24.61 758.645 25.919 758.645 27.551C758.645 28.809 758.679 30.22 758.747 31.784L758.798 33.161C760.328 32.923 763.354 32.294 767.876 31.274C768.148 31.206 768.369 30.968 768.539 30.56C768.743 30.152 768.947 29.948 769.151 29.948C769.525 29.948 769.899 30.169 770.273 30.611C770.681 31.019 770.885 31.444 770.885 31.886ZM790.884 30.458C790.884 31.24 790.697 32.94 790.323 35.558C789.915 38.55 789.694 40.233 789.66 40.607C789.218 44.789 788.895 47.985 788.691 50.195C788.521 52.371 788.436 54.343 788.436 56.111C788.436 57.573 788.538 58.729 788.742 59.579C788.98 60.429 789.218 61.092 789.456 61.568C789.728 62.078 789.864 62.384 789.864 62.486C789.864 62.792 789.592 63.064 789.048 63.302C788.504 63.54 787.943 63.659 787.365 63.659C786.923 63.659 786.566 63.064 786.294 61.874C786.056 60.684 785.937 58.831 785.937 56.315C785.937 54.411 786.124 51.844 786.498 48.614L787.263 41.576C786.345 43.344 785.206 45.044 783.846 46.676C782.52 48.274 781.143 49.073 779.715 49.073C778.389 49.073 777.199 47.917 776.145 45.605C775.091 43.293 774.258 40.675 773.646 37.751C773.068 34.827 772.779 32.685 772.779 31.325C772.779 30.475 773.034 30.05 773.544 30.05C774.292 30.05 774.768 30.747 774.972 32.141C776.264 41.593 778.066 46.319 780.378 46.319C781.296 46.319 782.095 45.962 782.775 45.248C783.489 44.5 784.322 43.361 785.274 41.831C785.716 41.117 786.192 40.165 786.702 38.975C787.212 37.785 787.603 36.799 787.875 36.017L788.232 30.866C788.3 30.084 788.402 29.54 788.538 29.234C788.674 28.894 788.946 28.724 789.354 28.724C789.694 28.724 790.034 28.928 790.374 29.336C790.714 29.71 790.884 30.084 790.884 30.458ZM802.961 49.226C802.961 49.736 802.553 50.841 801.737 52.541C800.955 54.241 800.088 55.805 799.136 57.233C798.184 58.661 797.47 59.375 796.994 59.375C796.654 59.375 796.365 59.273 796.127 59.069C795.923 58.899 795.821 58.661 795.821 58.355C795.821 58.151 796.008 57.658 796.382 56.876C796.79 56.128 797.045 55.669 797.147 55.499L798.575 52.745L799.493 50.399C799.867 49.379 800.173 48.631 800.411 48.155C800.649 47.645 800.887 47.39 801.125 47.39C801.499 47.39 801.89 47.611 802.298 48.053C802.74 48.461 802.961 48.852 802.961 49.226ZM845.241 31.886C845.241 32.464 844.986 32.906 844.476 33.212C844 33.518 843.116 33.756 841.824 33.926C838.696 34.47 836.945 34.776 836.571 34.844L833.256 35.405C833.256 37.173 833.273 39.026 833.307 40.964C833.375 42.902 833.46 44.602 833.562 46.064C833.698 48.036 833.936 49.549 834.276 50.603C834.616 51.657 834.803 52.252 834.837 52.388C834.837 52.728 834.616 53.034 834.174 53.306C833.766 53.612 833.375 53.765 833.001 53.765C832.797 53.765 832.627 53.697 832.491 53.561C832.355 53.459 832.236 53.272 832.134 53C831.93 52.524 831.726 51.64 831.522 50.348C831.352 49.056 831.216 47.628 831.114 46.064C831.012 44.67 830.927 43.055 830.859 41.219C830.825 39.349 830.808 37.547 830.808 35.813C828.904 36.119 826.949 36.493 824.943 36.935C823.141 37.309 822.07 37.496 821.73 37.496C821.322 37.496 820.931 37.377 820.557 37.139C820.217 36.901 820.047 36.578 820.047 36.17C820.047 35.728 820.2 35.439 820.506 35.303C820.812 35.167 821.322 35.099 822.036 35.099C822.546 35.099 823.294 35.014 824.28 34.844C825.266 34.64 825.895 34.504 826.167 34.436C828.445 33.994 829.992 33.705 830.808 33.569C830.808 32.855 830.774 31.92 830.706 30.764C830.638 29.2 830.604 28.01 830.604 27.194C830.604 25.868 830.638 24.848 830.706 24.134C830.808 23.386 830.978 22.723 831.216 22.145C831.488 21.465 831.998 21.125 832.746 21.125C833.052 21.125 833.256 21.176 833.358 21.278C833.46 21.38 833.511 21.567 833.511 21.839C833.511 22.043 833.426 22.638 833.256 23.624C833.086 24.61 833.001 25.919 833.001 27.551C833.001 28.809 833.035 30.22 833.103 31.784L833.154 33.161C834.684 32.923 837.71 32.294 842.232 31.274C842.504 31.206 842.725 30.968 842.895 30.56C843.099 30.152 843.303 29.948 843.507 29.948C843.881 29.948 844.255 30.169 844.629 30.611C845.037 31.019 845.241 31.444 845.241 31.886ZM870.596 53.714C870.596 54.122 870.46 54.462 870.188 54.734C869.916 55.04 869.559 55.193 869.117 55.193C868.777 55.193 868.488 55.108 868.25 54.938C868.012 54.802 867.893 54.598 867.893 54.326L867.995 50.807C868.165 46.625 868.25 43.208 868.25 40.556C868.25 36.68 867.978 33.977 867.434 32.447C866.89 30.883 866.261 30.101 865.547 30.101C863.949 30.101 861.943 32.583 859.529 37.547C857.115 42.477 854.786 47.866 852.542 53.714C852.372 54.19 852.134 54.649 851.828 55.091C851.556 55.533 851.267 55.754 850.961 55.754C850.213 55.754 849.839 55.516 849.839 55.04C849.839 52.966 849.754 49.09 849.584 43.412C849.414 37.7 849.278 33.943 849.176 32.141C848.87 26.055 848.581 22.298 848.309 20.87C848.037 19.442 847.901 18.677 847.901 18.575C847.901 18.235 848.088 17.98 848.462 17.81C848.836 17.64 849.312 17.555 849.89 17.555C850.366 17.555 850.706 18.643 850.91 20.819C851.148 22.961 851.318 25.715 851.42 29.081L851.471 30.509C851.539 31.563 851.59 34.589 851.624 39.587C851.658 44.551 851.675 48.206 851.675 50.552C853.239 46.642 854.701 43.157 856.061 40.097C857.455 37.037 859.053 34.181 860.855 31.529C862.657 28.843 864.323 27.5 865.853 27.5C867.145 27.5 868.233 28.588 869.117 30.764C870.001 32.906 870.443 36.119 870.443 40.403C870.443 42.307 870.477 44.959 870.545 48.359L870.596 53.714ZM896.636 39.995C896.874 39.995 896.993 40.25 896.993 40.76C896.993 41.372 896.534 42.715 895.616 44.789C894.732 46.863 893.372 48.784 891.536 50.552C889.734 52.32 887.507 53.204 884.855 53.204C882.679 53.204 880.86 52.524 879.398 51.164C877.936 49.804 877.205 47.713 877.205 44.891C877.205 42.239 877.817 39.621 879.041 37.037C880.265 34.419 881.863 32.294 883.835 30.662C885.807 28.996 887.847 28.163 889.955 28.163C891.213 28.163 892.267 28.452 893.117 29.03C894.001 29.574 894.443 30.373 894.443 31.427C894.443 32.617 893.763 33.773 892.403 34.895C891.077 36.017 889.343 37.003 887.201 37.853C885.059 38.703 882.849 39.315 880.571 39.689C880.163 41.253 879.959 42.783 879.959 44.279C879.959 46.251 880.418 47.781 881.336 48.869C882.288 49.957 883.631 50.501 885.365 50.501C887.983 50.501 890.108 49.566 891.74 47.696C893.372 45.826 894.732 43.718 895.82 41.372C895.888 41.236 896.007 40.981 896.177 40.607C896.347 40.199 896.5 39.995 896.636 39.995ZM892.148 31.988C892.148 31.444 891.859 31.019 891.281 30.713C890.737 30.407 890.091 30.254 889.343 30.254C888.051 30.254 886.81 30.679 885.62 31.529C884.43 32.379 883.427 33.399 882.611 34.589C881.829 35.779 881.319 36.833 881.081 37.751C882.645 37.581 884.294 37.139 886.028 36.425C887.762 35.711 889.207 34.929 890.363 34.079C891.553 33.229 892.148 32.532 892.148 31.988ZM239.296 129.49C239.296 132.142 238.769 134.556 237.715 136.732C236.661 138.908 235.42 140.676 233.992 142.036C232.53 143.43 231 144.552 229.402 145.402C227.838 146.286 226.478 146.728 225.322 146.728C224.676 146.728 224.217 146.558 223.945 146.218C223.673 145.912 223.537 145.538 223.537 145.096C223.537 144.688 224.302 144.212 225.832 143.668C228.144 142.92 230.286 141.662 232.258 139.894C233.788 138.534 234.91 136.987 235.624 135.253C236.338 133.519 236.695 131.751 236.695 129.949C236.695 127.909 236.559 126.039 236.287 124.339C236.049 122.639 235.658 120.548 235.114 118.066C234.502 115.448 234.077 113.221 233.839 111.385C233.261 112.949 232.36 114.836 231.136 117.046C229.946 119.256 228.518 121.381 226.852 123.421C225.288 125.359 223.86 126.804 222.568 127.756C221.31 128.708 220.086 129.184 218.896 129.184C217.876 129.184 217.111 128.793 216.601 128.011C216.125 127.195 215.887 126.09 215.887 124.696C215.887 122.384 216.601 119.664 218.029 116.536C219.457 113.408 221.242 110.722 223.384 108.478C225.526 106.234 227.634 105.112 229.708 105.112C230.422 105.112 230.966 105.367 231.34 105.877C231.748 106.387 231.952 106.999 231.952 107.713C231.952 108.631 231.765 109.09 231.391 109.09C231.289 109.09 231.153 108.971 230.983 108.733C230.847 108.461 230.677 108.223 230.473 108.019C230.269 107.815 230.048 107.713 229.81 107.713C228.076 107.713 226.308 108.682 224.506 110.62C222.738 112.558 221.259 114.836 220.069 117.454C218.913 120.038 218.335 122.163 218.335 123.829C218.335 124.747 218.454 125.41 218.692 125.818C218.964 126.226 219.372 126.43 219.916 126.43C220.732 126.43 221.718 125.954 222.874 125.002C224.03 124.05 225.407 122.554 227.005 120.514C228.433 118.712 229.725 116.621 230.881 114.241C232.071 111.827 232.972 109.532 233.584 107.356C233.652 107.152 233.754 106.982 233.89 106.846C234.06 106.71 234.247 106.642 234.451 106.642C234.757 106.642 235.063 106.744 235.369 106.948C235.709 107.118 235.879 107.305 235.879 107.509C235.879 107.645 235.845 107.798 235.777 107.968C235.743 108.104 235.709 108.189 235.675 108.223C235.913 110.093 236.474 113 237.358 116.944C238.004 119.732 238.48 122.078 238.786 123.982C239.126 125.852 239.296 127.688 239.296 129.49ZM262.246 108.529C262.246 108.835 262.025 109.192 261.583 109.6C261.175 109.974 260.818 110.161 260.512 110.161C260.274 110.161 260.036 110.059 259.798 109.855C259.594 109.651 259.356 109.362 259.084 108.988C258.846 108.648 258.523 108.359 258.115 108.121C257.741 107.883 257.35 107.764 256.942 107.764C255.956 107.764 254.63 109.073 252.964 111.691C251.298 114.275 249.666 117.539 248.068 121.483C248.102 122.265 248.153 123.251 248.221 124.441C248.323 125.631 248.391 126.515 248.425 127.093L248.578 129.133C248.578 129.609 248.476 130.017 248.272 130.357C248.068 130.731 247.694 130.918 247.15 130.918C246.572 130.918 246.198 130.153 246.028 128.623C245.858 127.059 245.756 124.798 245.722 121.84C245.688 121.092 245.654 120.021 245.62 118.627C245.62 117.233 245.586 115.567 245.518 113.629C245.416 110.705 245.365 108.614 245.365 107.356C245.365 106.574 245.841 106.183 246.793 106.183C247.371 106.183 247.711 106.438 247.813 106.948C247.949 107.424 248.017 108.359 248.017 109.753V117.862C249.037 115.244 250.142 112.983 251.332 111.079C252.522 109.175 253.678 107.73 254.8 106.744C255.956 105.724 256.976 105.214 257.86 105.214C258.608 105.214 259.322 105.384 260.002 105.724C260.682 106.064 261.226 106.506 261.634 107.05C262.042 107.56 262.246 108.053 262.246 108.529ZM285.658 116.995C285.896 116.995 286.015 117.25 286.015 117.76C286.015 118.372 285.556 119.715 284.638 121.789C283.754 123.863 282.394 125.784 280.558 127.552C278.756 129.32 276.529 130.204 273.877 130.204C271.701 130.204 269.882 129.524 268.42 128.164C266.958 126.804 266.227 124.713 266.227 121.891C266.227 119.239 266.839 116.621 268.063 114.037C269.287 111.419 270.885 109.294 272.857 107.662C274.829 105.996 276.869 105.163 278.977 105.163C280.235 105.163 281.289 105.452 282.139 106.03C283.023 106.574 283.465 107.373 283.465 108.427C283.465 109.617 282.785 110.773 281.425 111.895C280.099 113.017 278.365 114.003 276.223 114.853C274.081 115.703 271.871 116.315 269.593 116.689C269.185 118.253 268.981 119.783 268.981 121.279C268.981 123.251 269.44 124.781 270.358 125.869C271.31 126.957 272.653 127.501 274.387 127.501C277.005 127.501 279.13 126.566 280.762 124.696C282.394 122.826 283.754 120.718 284.842 118.372C284.91 118.236 285.029 117.981 285.199 117.607C285.369 117.199 285.522 116.995 285.658 116.995ZM281.17 108.988C281.17 108.444 280.881 108.019 280.303 107.713C279.759 107.407 279.113 107.254 278.365 107.254C277.073 107.254 275.832 107.679 274.642 108.529C273.452 109.379 272.449 110.399 271.633 111.589C270.851 112.779 270.341 113.833 270.103 114.751C271.667 114.581 273.316 114.139 275.05 113.425C276.784 112.711 278.229 111.929 279.385 111.079C280.575 110.229 281.17 109.532 281.17 108.988ZM311.661 126.736C311.695 126.974 311.831 127.229 312.069 127.501C312.307 127.739 312.426 127.943 312.426 128.113C312.426 128.521 312.256 128.997 311.916 129.541C311.576 130.051 311.236 130.306 310.896 130.306C310.318 130.306 309.876 129.949 309.57 129.235C309.264 128.521 309.111 127.688 309.111 126.736C309.111 125.92 309.162 123.472 309.264 119.392L309.315 117.454C309.315 116.672 309.111 116.111 308.703 115.771C307.173 118.355 305.745 120.599 304.419 122.503C303.093 124.407 301.41 126.209 299.37 127.909C297.33 129.575 295.188 130.408 292.944 130.408C291.856 130.408 291.006 130.068 290.394 129.388C289.816 128.708 289.527 127.824 289.527 126.736C289.527 125.376 290.139 123.523 291.363 121.177C292.587 118.797 294.151 116.4 296.055 113.986C297.959 111.538 299.863 109.532 301.767 107.968C303.025 106.948 304.028 106.268 304.776 105.928C305.524 105.554 306.187 105.367 306.765 105.367C307.309 105.367 307.87 105.537 308.448 105.877C309.026 106.217 309.519 106.693 309.927 107.305C310.335 107.917 310.539 108.614 310.539 109.396C310.539 110.45 310.25 111.453 309.672 112.405L310.539 112.15C310.913 112.15 311.134 112.609 311.202 113.527C311.236 114.071 311.27 115.176 311.304 116.842C311.372 118.508 311.423 119.885 311.457 120.973C311.491 122.095 311.525 123.183 311.559 124.237C311.593 125.291 311.627 126.124 311.661 126.736ZM293.658 127.654C295.494 127.654 297.262 126.974 298.962 125.614C300.662 124.254 302.175 122.639 303.501 120.769C304.861 118.865 306.357 116.536 307.989 113.782C308.397 112.762 308.601 111.657 308.601 110.467C308.601 109.753 308.38 109.141 307.938 108.631C307.53 108.087 306.969 107.815 306.255 107.815C305.405 107.815 304.317 108.393 302.991 109.549C301.461 110.841 299.846 112.575 298.146 114.751C296.446 116.893 295.035 119.018 293.913 121.126C292.791 123.234 292.23 124.9 292.23 126.124C292.23 127.144 292.706 127.654 293.658 127.654ZM340.644 108.886C340.644 109.464 340.389 109.906 339.879 110.212C339.403 110.518 338.519 110.756 337.227 110.926C334.099 111.47 332.348 111.776 331.974 111.844L328.659 112.405C328.659 114.173 328.676 116.026 328.71 117.964C328.778 119.902 328.863 121.602 328.965 123.064C329.101 125.036 329.339 126.549 329.679 127.603C330.019 128.657 330.206 129.252 330.24 129.388C330.24 129.728 330.019 130.034 329.577 130.306C329.169 130.612 328.778 130.765 328.404 130.765C328.2 130.765 328.03 130.697 327.894 130.561C327.758 130.459 327.639 130.272 327.537 130C327.333 129.524 327.129 128.64 326.925 127.348C326.755 126.056 326.619 124.628 326.517 123.064C326.415 121.67 326.33 120.055 326.262 118.219C326.228 116.349 326.211 114.547 326.211 112.813C324.307 113.119 322.352 113.493 320.346 113.935C318.544 114.309 317.473 114.496 317.133 114.496C316.725 114.496 316.334 114.377 315.96 114.139C315.62 113.901 315.45 113.578 315.45 113.17C315.45 112.728 315.603 112.439 315.909 112.303C316.215 112.167 316.725 112.099 317.439 112.099C317.949 112.099 318.697 112.014 319.683 111.844C320.669 111.64 321.298 111.504 321.57 111.436C323.848 110.994 325.395 110.705 326.211 110.569C326.211 109.855 326.177 108.92 326.109 107.764C326.041 106.2 326.007 105.01 326.007 104.194C326.007 102.868 326.041 101.848 326.109 101.134C326.211 100.386 326.381 99.723 326.619 99.145C326.891 98.465 327.401 98.125 328.149 98.125C328.455 98.125 328.659 98.176 328.761 98.278C328.863 98.38 328.914 98.567 328.914 98.839C328.914 99.043 328.829 99.638 328.659 100.624C328.489 101.61 328.404 102.919 328.404 104.551C328.404 105.809 328.438 107.22 328.506 108.784L328.557 110.161C330.087 109.923 333.113 109.294 337.635 108.274C337.907 108.206 338.128 107.968 338.298 107.56C338.502 107.152 338.706 106.948 338.91 106.948C339.284 106.948 339.658 107.169 340.032 107.611C340.44 108.019 340.644 108.444 340.644 108.886ZM363.04 116.995C363.278 116.995 363.397 117.25 363.397 117.76C363.397 118.372 362.938 119.715 362.02 121.789C361.136 123.863 359.776 125.784 357.94 127.552C356.138 129.32 353.911 130.204 351.259 130.204C349.083 130.204 347.264 129.524 345.802 128.164C344.34 126.804 343.609 124.713 343.609 121.891C343.609 119.239 344.221 116.621 345.445 114.037C346.669 111.419 348.267 109.294 350.239 107.662C352.211 105.996 354.251 105.163 356.359 105.163C357.617 105.163 358.671 105.452 359.521 106.03C360.405 106.574 360.847 107.373 360.847 108.427C360.847 109.617 360.167 110.773 358.807 111.895C357.481 113.017 355.747 114.003 353.605 114.853C351.463 115.703 349.253 116.315 346.975 116.689C346.567 118.253 346.363 119.783 346.363 121.279C346.363 123.251 346.822 124.781 347.74 125.869C348.692 126.957 350.035 127.501 351.769 127.501C354.387 127.501 356.512 126.566 358.144 124.696C359.776 122.826 361.136 120.718 362.224 118.372C362.292 118.236 362.411 117.981 362.581 117.607C362.751 117.199 362.904 116.995 363.04 116.995ZM358.552 108.988C358.552 108.444 358.263 108.019 357.685 107.713C357.141 107.407 356.495 107.254 355.747 107.254C354.455 107.254 353.214 107.679 352.024 108.529C350.834 109.379 349.831 110.399 349.015 111.589C348.233 112.779 347.723 113.833 347.485 114.751C349.049 114.581 350.698 114.139 352.432 113.425C354.166 112.711 355.611 111.929 356.767 111.079C357.957 110.229 358.552 109.532 358.552 108.988ZM385.423 108.529C385.423 108.835 385.202 109.192 384.76 109.6C384.352 109.974 383.995 110.161 383.689 110.161C383.451 110.161 383.213 110.059 382.975 109.855C382.771 109.651 382.533 109.362 382.261 108.988C382.023 108.648 381.7 108.359 381.292 108.121C380.918 107.883 380.527 107.764 380.119 107.764C379.133 107.764 377.807 109.073 376.141 111.691C374.475 114.275 372.843 117.539 371.245 121.483C371.279 122.265 371.33 123.251 371.398 124.441C371.5 125.631 371.568 126.515 371.602 127.093L371.755 129.133C371.755 129.609 371.653 130.017 371.449 130.357C371.245 130.731 370.871 130.918 370.327 130.918C369.749 130.918 369.375 130.153 369.205 128.623C369.035 127.059 368.933 124.798 368.899 121.84C368.865 121.092 368.831 120.021 368.797 118.627C368.797 117.233 368.763 115.567 368.695 113.629C368.593 110.705 368.542 108.614 368.542 107.356C368.542 106.574 369.018 106.183 369.97 106.183C370.548 106.183 370.888 106.438 370.99 106.948C371.126 107.424 371.194 108.359 371.194 109.753V117.862C372.214 115.244 373.319 112.983 374.509 111.079C375.699 109.175 376.855 107.73 377.977 106.744C379.133 105.724 380.153 105.214 381.037 105.214C381.785 105.214 382.499 105.384 383.179 105.724C383.859 106.064 384.403 106.506 384.811 107.05C385.219 107.56 385.423 108.053 385.423 108.529ZM427.302 108.886C427.302 109.464 427.047 109.906 426.537 110.212C426.061 110.518 425.177 110.756 423.885 110.926C420.757 111.47 419.006 111.776 418.632 111.844L415.317 112.405C415.317 114.173 415.334 116.026 415.368 117.964C415.436 119.902 415.521 121.602 415.623 123.064C415.759 125.036 415.997 126.549 416.337 127.603C416.677 128.657 416.864 129.252 416.898 129.388C416.898 129.728 416.677 130.034 416.235 130.306C415.827 130.612 415.436 130.765 415.062 130.765C414.858 130.765 414.688 130.697 414.552 130.561C414.416 130.459 414.297 130.272 414.195 130C413.991 129.524 413.787 128.64 413.583 127.348C413.413 126.056 413.277 124.628 413.175 123.064C413.073 121.67 412.988 120.055 412.92 118.219C412.886 116.349 412.869 114.547 412.869 112.813C410.965 113.119 409.01 113.493 407.004 113.935C405.202 114.309 404.131 114.496 403.791 114.496C403.383 114.496 402.992 114.377 402.618 114.139C402.278 113.901 402.108 113.578 402.108 113.17C402.108 112.728 402.261 112.439 402.567 112.303C402.873 112.167 403.383 112.099 404.097 112.099C404.607 112.099 405.355 112.014 406.341 111.844C407.327 111.64 407.956 111.504 408.228 111.436C410.506 110.994 412.053 110.705 412.869 110.569C412.869 109.855 412.835 108.92 412.767 107.764C412.699 106.2 412.665 105.01 412.665 104.194C412.665 102.868 412.699 101.848 412.767 101.134C412.869 100.386 413.039 99.723 413.277 99.145C413.549 98.465 414.059 98.125 414.807 98.125C415.113 98.125 415.317 98.176 415.419 98.278C415.521 98.38 415.572 98.567 415.572 98.839C415.572 99.043 415.487 99.638 415.317 100.624C415.147 101.61 415.062 102.919 415.062 104.551C415.062 105.809 415.096 107.22 415.164 108.784L415.215 110.161C416.745 109.923 419.771 109.294 424.293 108.274C424.565 108.206 424.786 107.968 424.956 107.56C425.16 107.152 425.364 106.948 425.568 106.948C425.942 106.948 426.316 107.169 426.69 107.611C427.098 108.019 427.302 108.444 427.302 108.886ZM452.656 130.714C452.656 131.122 452.52 131.462 452.248 131.734C451.976 132.04 451.619 132.193 451.177 132.193C450.837 132.193 450.548 132.108 450.31 131.938C450.072 131.802 449.953 131.598 449.953 131.326L450.055 127.807C450.225 123.625 450.31 120.208 450.31 117.556C450.31 113.68 450.038 110.977 449.494 109.447C448.95 107.883 448.321 107.101 447.607 107.101C446.009 107.101 444.003 109.583 441.589 114.547C439.175 119.477 436.846 124.866 434.602 130.714C434.432 131.19 434.194 131.649 433.888 132.091C433.616 132.533 433.327 132.754 433.021 132.754C432.273 132.754 431.899 132.516 431.899 132.04C431.899 129.966 431.814 126.09 431.644 120.412C431.474 114.7 431.338 110.943 431.236 109.141C430.93 103.055 430.641 99.298 430.369 97.87C430.097 96.442 429.961 95.677 429.961 95.575C429.961 95.235 430.148 94.98 430.522 94.81C430.896 94.64 431.372 94.555 431.95 94.555C432.426 94.555 432.766 95.643 432.97 97.819C433.208 99.961 433.378 102.715 433.48 106.081L433.531 107.509C433.599 108.563 433.65 111.589 433.684 116.587C433.718 121.551 433.735 125.206 433.735 127.552C435.299 123.642 436.761 120.157 438.121 117.097C439.515 114.037 441.113 111.181 442.915 108.529C444.717 105.843 446.383 104.5 447.913 104.5C449.205 104.5 450.293 105.588 451.177 107.764C452.061 109.906 452.503 113.119 452.503 117.403C452.503 119.307 452.537 121.959 452.605 125.359L452.656 130.714ZM478.697 116.995C478.935 116.995 479.054 117.25 479.054 117.76C479.054 118.372 478.595 119.715 477.677 121.789C476.793 123.863 475.433 125.784 473.597 127.552C471.795 129.32 469.568 130.204 466.916 130.204C464.74 130.204 462.921 129.524 461.459 128.164C459.997 126.804 459.266 124.713 459.266 121.891C459.266 119.239 459.878 116.621 461.102 114.037C462.326 111.419 463.924 109.294 465.896 107.662C467.868 105.996 469.908 105.163 472.016 105.163C473.274 105.163 474.328 105.452 475.178 106.03C476.062 106.574 476.504 107.373 476.504 108.427C476.504 109.617 475.824 110.773 474.464 111.895C473.138 113.017 471.404 114.003 469.262 114.853C467.12 115.703 464.91 116.315 462.632 116.689C462.224 118.253 462.02 119.783 462.02 121.279C462.02 123.251 462.479 124.781 463.397 125.869C464.349 126.957 465.692 127.501 467.426 127.501C470.044 127.501 472.169 126.566 473.801 124.696C475.433 122.826 476.793 120.718 477.881 118.372C477.949 118.236 478.068 117.981 478.238 117.607C478.408 117.199 478.561 116.995 478.697 116.995ZM474.209 108.988C474.209 108.444 473.92 108.019 473.342 107.713C472.798 107.407 472.152 107.254 471.404 107.254C470.112 107.254 468.871 107.679 467.681 108.529C466.491 109.379 465.488 110.399 464.672 111.589C463.89 112.779 463.38 113.833 463.142 114.751C464.706 114.581 466.355 114.139 468.089 113.425C469.823 112.711 471.268 111.929 472.424 111.079C473.614 110.229 474.209 109.532 474.209 108.988ZM521.332 117.76C521.332 120.174 519.768 122.044 516.64 123.37C513.512 124.696 509.432 125.546 504.4 125.92C504.332 128.232 504.298 130.119 504.298 131.581C504.298 133.519 504.383 135.287 504.553 136.885C504.621 137.497 504.655 137.922 504.655 138.16C504.655 138.704 504.536 139.163 504.298 139.537C504.06 139.945 503.72 140.149 503.278 140.149C502.666 140.149 502.326 139.928 502.258 139.486C502.224 138.908 502.173 138.007 502.105 136.783C502.071 135.593 502.054 134.386 502.054 133.162L502.105 126.022C501.935 126.022 501.612 126.039 501.136 126.073C500.694 126.107 500.252 126.124 499.81 126.124C498.994 126.124 498.586 125.563 498.586 124.441C498.586 123.625 498.79 123.217 499.198 123.217C499.334 123.217 499.742 123.319 500.422 123.523C501.102 123.727 501.68 123.829 502.156 123.829L502.105 109.396C501.833 109.362 501.272 109.311 500.422 109.243C499.572 109.141 498.943 108.971 498.535 108.733C498.161 108.495 497.974 108.155 497.974 107.713C497.974 106.829 498.144 106.387 498.484 106.387C498.858 106.387 499.317 106.523 499.861 106.795C499.929 106.829 500.133 106.931 500.473 107.101C500.813 107.237 501.289 107.339 501.901 107.407C502.105 106.863 502.292 106.489 502.462 106.285C502.666 106.081 503.04 105.979 503.584 105.979C504.264 105.979 504.604 106.115 504.604 106.387C504.604 106.489 504.553 106.676 504.451 106.948C504.349 107.186 504.298 107.424 504.298 107.662C506.406 107.968 508.786 108.597 511.438 109.549C514.124 110.467 516.436 111.64 518.374 113.068C520.346 114.496 521.332 116.06 521.332 117.76ZM519.139 117.964C519.139 116.536 518.323 115.244 516.691 114.088C515.059 112.932 513.087 111.98 510.775 111.232C508.497 110.484 506.304 109.94 504.196 109.6C504.264 111.572 504.315 114.19 504.349 117.454C504.383 120.684 504.4 122.826 504.4 123.88C506.44 123.88 508.616 123.625 510.928 123.115C513.24 122.571 515.178 121.857 516.742 120.973C518.34 120.055 519.139 119.052 519.139 117.964ZM545.122 116.995C545.36 116.995 545.479 117.25 545.479 117.76C545.479 118.372 545.02 119.715 544.102 121.789C543.218 123.863 541.858 125.784 540.022 127.552C538.22 129.32 535.993 130.204 533.341 130.204C531.165 130.204 529.346 129.524 527.884 128.164C526.422 126.804 525.691 124.713 525.691 121.891C525.691 119.239 526.303 116.621 527.527 114.037C528.751 111.419 530.349 109.294 532.321 107.662C534.293 105.996 536.333 105.163 538.441 105.163C539.699 105.163 540.753 105.452 541.603 106.03C542.487 106.574 542.929 107.373 542.929 108.427C542.929 109.617 542.249 110.773 540.889 111.895C539.563 113.017 537.829 114.003 535.687 114.853C533.545 115.703 531.335 116.315 529.057 116.689C528.649 118.253 528.445 119.783 528.445 121.279C528.445 123.251 528.904 124.781 529.822 125.869C530.774 126.957 532.117 127.501 533.851 127.501C536.469 127.501 538.594 126.566 540.226 124.696C541.858 122.826 543.218 120.718 544.306 118.372C544.374 118.236 544.493 117.981 544.663 117.607C544.833 117.199 544.986 116.995 545.122 116.995ZM540.634 108.988C540.634 108.444 540.345 108.019 539.767 107.713C539.223 107.407 538.577 107.254 537.829 107.254C536.537 107.254 535.296 107.679 534.106 108.529C532.916 109.379 531.913 110.399 531.097 111.589C530.315 112.779 529.805 113.833 529.567 114.751C531.131 114.581 532.78 114.139 534.514 113.425C536.248 112.711 537.693 111.929 538.849 111.079C540.039 110.229 540.634 109.532 540.634 108.988ZM567.505 108.529C567.505 108.835 567.284 109.192 566.842 109.6C566.434 109.974 566.077 110.161 565.771 110.161C565.533 110.161 565.295 110.059 565.057 109.855C564.853 109.651 564.615 109.362 564.343 108.988C564.105 108.648 563.782 108.359 563.374 108.121C563 107.883 562.609 107.764 562.201 107.764C561.215 107.764 559.889 109.073 558.223 111.691C556.557 114.275 554.925 117.539 553.327 121.483C553.361 122.265 553.412 123.251 553.48 124.441C553.582 125.631 553.65 126.515 553.684 127.093L553.837 129.133C553.837 129.609 553.735 130.017 553.531 130.357C553.327 130.731 552.953 130.918 552.409 130.918C551.831 130.918 551.457 130.153 551.287 128.623C551.117 127.059 551.015 124.798 550.981 121.84C550.947 121.092 550.913 120.021 550.879 118.627C550.879 117.233 550.845 115.567 550.777 113.629C550.675 110.705 550.624 108.614 550.624 107.356C550.624 106.574 551.1 106.183 552.052 106.183C552.63 106.183 552.97 106.438 553.072 106.948C553.208 107.424 553.276 108.359 553.276 109.753V117.862C554.296 115.244 555.401 112.983 556.591 111.079C557.781 109.175 558.937 107.73 560.059 106.744C561.215 105.724 562.235 105.214 563.119 105.214C563.867 105.214 564.581 105.384 565.261 105.724C565.941 106.064 566.485 106.506 566.893 107.05C567.301 107.56 567.505 108.053 567.505 108.529ZM591.937 97.564C591.937 97.972 591.835 98.516 591.631 99.196C591.461 99.842 591.257 100.165 591.019 100.165C590.781 100.165 590.594 100.063 590.458 99.859C590.356 99.621 590.254 99.315 590.152 98.941C589.778 97.785 589.2 96.816 588.418 96.034C587.67 95.218 586.854 94.81 585.97 94.81C583.59 94.81 581.873 96.425 580.819 99.655C579.799 102.851 579.289 106.608 579.289 110.926C580.309 110.858 581.448 110.705 582.706 110.467C583.998 110.195 584.848 110.025 585.256 109.957C587.67 109.447 589.268 109.192 590.05 109.192C590.73 109.192 591.07 109.498 591.07 110.11C591.07 110.586 590.968 111.096 590.764 111.64C590.56 112.184 590.254 112.456 589.846 112.456C589.506 112.456 589.166 112.388 588.826 112.252C588.35 112.048 587.704 111.946 586.888 111.946C586.344 111.946 585.222 112.116 583.522 112.456L579.442 113.068C579.442 113.918 579.544 116.281 579.748 120.157C580.088 126.141 580.258 130.918 580.258 134.488C580.258 135.134 580.19 135.576 580.054 135.814C579.918 136.086 579.646 136.222 579.238 136.222C578.762 136.222 578.405 135.95 578.167 135.406C577.929 134.862 577.81 134.25 577.81 133.57C577.81 129.66 577.555 123.523 577.045 115.159L576.943 113.527C576.671 113.561 575.787 113.714 574.291 113.986C572.829 114.258 571.758 114.394 571.078 114.394C570.704 114.394 570.381 114.309 570.109 114.139C569.871 113.969 569.752 113.714 569.752 113.374C569.752 112.524 570.058 112.082 570.67 112.048C571.554 112.014 572.625 111.946 573.883 111.844C575.141 111.708 576.11 111.572 576.79 111.436C576.79 105.86 577.538 101.338 579.034 97.87C580.564 94.368 582.825 92.617 585.817 92.617C586.905 92.617 587.908 92.889 588.826 93.433C589.778 93.977 590.526 94.64 591.07 95.422C591.648 96.204 591.937 96.918 591.937 97.564ZM612.843 116.995C613.081 116.995 613.2 117.25 613.2 117.76C613.2 118.372 612.741 119.715 611.823 121.789C610.939 123.863 609.579 125.784 607.743 127.552C605.941 129.32 603.714 130.204 601.062 130.204C598.886 130.204 597.067 129.524 595.605 128.164C594.143 126.804 593.412 124.713 593.412 121.891C593.412 119.239 594.024 116.621 595.248 114.037C596.472 111.419 598.07 109.294 600.042 107.662C602.014 105.996 604.054 105.163 606.162 105.163C607.42 105.163 608.474 105.452 609.324 106.03C610.208 106.574 610.65 107.373 610.65 108.427C610.65 109.617 609.97 110.773 608.61 111.895C607.284 113.017 605.55 114.003 603.408 114.853C601.266 115.703 599.056 116.315 596.778 116.689C596.37 118.253 596.166 119.783 596.166 121.279C596.166 123.251 596.625 124.781 597.543 125.869C598.495 126.957 599.838 127.501 601.572 127.501C604.19 127.501 606.315 126.566 607.947 124.696C609.579 122.826 610.939 120.718 612.027 118.372C612.095 118.236 612.214 117.981 612.384 117.607C612.554 117.199 612.707 116.995 612.843 116.995ZM608.355 108.988C608.355 108.444 608.066 108.019 607.488 107.713C606.944 107.407 606.298 107.254 605.55 107.254C604.258 107.254 603.017 107.679 601.827 108.529C600.637 109.379 599.634 110.399 598.818 111.589C598.036 112.779 597.526 113.833 597.288 114.751C598.852 114.581 600.501 114.139 602.235 113.425C603.969 112.711 605.414 111.929 606.57 111.079C607.76 110.229 608.355 109.532 608.355 108.988ZM633.185 118.78C633.185 118.984 632.828 119.613 632.114 120.667C631.434 121.721 630.737 122.673 630.023 123.523C628.255 125.665 626.657 127.314 625.229 128.47C623.835 129.626 622.373 130.204 620.843 130.204C619.551 130.204 618.48 129.643 617.63 128.521C616.814 127.399 616.406 126.107 616.406 124.645C616.406 122.469 616.984 119.715 618.14 116.383C619.296 113.051 620.758 110.161 622.526 107.713C624.294 105.265 626.062 104.041 627.83 104.041C628.578 104.041 629.224 104.313 629.768 104.857C630.074 105.163 630.363 105.571 630.635 106.081C630.907 106.591 631.043 107.05 631.043 107.458C631.043 108.036 630.958 108.716 630.788 109.498C630.652 110.246 630.499 110.62 630.329 110.62C629.989 110.62 629.768 110.433 629.666 110.059C629.564 109.685 629.496 109.209 629.462 108.631C629.36 107.747 629.258 107.169 629.156 106.897C629.054 106.591 628.901 106.438 628.697 106.438C627.099 106.438 625.552 107.56 624.056 109.804C622.56 112.014 621.336 114.598 620.384 117.556C619.432 120.48 618.956 122.741 618.956 124.339C618.956 126.583 619.704 127.705 621.2 127.705C622.288 127.705 623.274 127.433 624.158 126.889C625.076 126.345 626.028 125.58 627.014 124.594C628.85 122.724 630.278 121.109 631.298 119.749C631.366 119.647 631.553 119.392 631.859 118.984C632.199 118.542 632.437 118.321 632.573 118.321C632.981 118.321 633.185 118.474 633.185 118.78ZM659.761 108.886C659.761 109.464 659.506 109.906 658.996 110.212C658.52 110.518 657.636 110.756 656.344 110.926C653.216 111.47 651.465 111.776 651.091 111.844L647.776 112.405C647.776 114.173 647.793 116.026 647.827 117.964C647.895 119.902 647.98 121.602 648.082 123.064C648.218 125.036 648.456 126.549 648.796 127.603C649.136 128.657 649.323 129.252 649.357 129.388C649.357 129.728 649.136 130.034 648.694 130.306C648.286 130.612 647.895 130.765 647.521 130.765C647.317 130.765 647.147 130.697 647.011 130.561C646.875 130.459 646.756 130.272 646.654 130C646.45 129.524 646.246 128.64 646.042 127.348C645.872 126.056 645.736 124.628 645.634 123.064C645.532 121.67 645.447 120.055 645.379 118.219C645.345 116.349 645.328 114.547 645.328 112.813C643.424 113.119 641.469 113.493 639.463 113.935C637.661 114.309 636.59 114.496 636.25 114.496C635.842 114.496 635.451 114.377 635.077 114.139C634.737 113.901 634.567 113.578 634.567 113.17C634.567 112.728 634.72 112.439 635.026 112.303C635.332 112.167 635.842 112.099 636.556 112.099C637.066 112.099 637.814 112.014 638.8 111.844C639.786 111.64 640.415 111.504 640.687 111.436C642.965 110.994 644.512 110.705 645.328 110.569C645.328 109.855 645.294 108.92 645.226 107.764C645.158 106.2 645.124 105.01 645.124 104.194C645.124 102.868 645.158 101.848 645.226 101.134C645.328 100.386 645.498 99.723 645.736 99.145C646.008 98.465 646.518 98.125 647.266 98.125C647.572 98.125 647.776 98.176 647.878 98.278C647.98 98.38 648.031 98.567 648.031 98.839C648.031 99.043 647.946 99.638 647.776 100.624C647.606 101.61 647.521 102.919 647.521 104.551C647.521 105.809 647.555 107.22 647.623 108.784L647.674 110.161C649.204 109.923 652.23 109.294 656.752 108.274C657.024 108.206 657.245 107.968 657.415 107.56C657.619 107.152 657.823 106.948 658.027 106.948C658.401 106.948 658.775 107.169 659.149 107.611C659.557 108.019 659.761 108.444 659.761 108.886ZM666.245 98.074C666.245 98.584 665.684 98.839 664.562 98.839C663.984 98.839 663.389 98.601 662.777 98.125C662.199 97.649 661.91 97.258 661.91 96.952C661.91 96.578 662.08 96.221 662.42 95.881C662.794 95.541 663.168 95.371 663.542 95.371C663.542 95.371 663.661 95.422 663.899 95.524C664.171 95.592 664.477 95.813 664.817 96.187C665.089 96.459 665.395 96.816 665.735 97.258C666.075 97.7 666.245 97.972 666.245 98.074ZM667.52 130.153C667.52 130.493 667.367 130.748 667.061 130.918C666.789 131.122 666.466 131.207 666.092 131.173C665.616 131.139 665.259 130.374 665.021 128.878C664.817 127.382 664.596 124.543 664.358 120.361C664.222 117.607 664.103 114.921 664.001 112.303C663.899 109.651 663.831 107.611 663.797 106.183C663.797 105.809 663.848 105.537 663.95 105.367C664.086 105.163 664.324 105.061 664.664 105.061C665.446 105.061 665.939 105.384 666.143 106.03C666.347 106.676 666.449 107.917 666.449 109.753L666.398 115.771C666.398 119.205 666.5 121.959 666.704 124.033C666.704 124.135 666.857 125.223 667.163 127.297C667.401 128.725 667.52 129.677 667.52 130.153ZM692.192 119.443C692.192 120.769 691.699 122.299 690.713 124.033C689.727 125.767 688.333 127.263 686.531 128.521C684.729 129.745 682.672 130.357 680.36 130.357C678.082 130.357 676.399 129.728 675.311 128.47C674.223 127.212 673.679 125.648 673.679 123.778C673.679 122.146 673.968 120.123 674.546 117.709C675.158 115.295 676.008 113.136 677.096 111.232C677.164 111.096 677.436 110.603 677.912 109.753C678.422 108.869 678.983 108.206 679.595 107.764C680.207 107.288 680.853 107.05 681.533 107.05C681.839 107.05 682.111 107.135 682.349 107.305C682.621 107.441 682.757 107.628 682.757 107.866C682.757 107.934 682.655 108.104 682.451 108.376C682.281 108.614 682.145 108.801 682.043 108.937C680.887 110.331 679.952 111.708 679.238 113.068C678.286 114.802 677.538 116.519 676.994 118.219C676.484 119.919 676.229 121.772 676.229 123.778C676.229 126.464 677.861 127.807 681.125 127.807C682.655 127.807 684.066 127.365 685.358 126.481C686.684 125.597 687.738 124.526 688.52 123.268C689.302 121.976 689.693 120.803 689.693 119.749C689.693 118.559 689.302 117.522 688.52 116.638C687.738 115.754 686.667 114.819 685.307 113.833C684.423 113.187 683.777 112.66 683.369 112.252C682.961 111.844 682.757 111.504 682.757 111.232C682.757 110.824 683.046 110.501 683.624 110.263C684.202 109.991 684.882 109.855 685.664 109.855C686.106 109.855 686.395 109.889 686.531 109.957C686.667 109.991 686.735 110.076 686.735 110.212C686.735 110.28 686.667 110.399 686.531 110.569C686.429 110.705 686.378 110.824 686.378 110.926C686.378 111.028 686.718 111.368 687.398 111.946C688.758 113.068 689.897 114.207 690.815 115.363C691.733 116.519 692.192 117.879 692.192 119.443ZM714.313 130.357C714.313 130.765 714.143 131.105 713.803 131.377C713.463 131.683 713.055 131.836 712.579 131.836C712.239 131.836 711.95 131.751 711.712 131.581C711.474 131.445 711.355 131.241 711.355 130.969C711.355 129.575 711.457 127.416 711.661 124.492C711.865 121.364 711.967 118.763 711.967 116.689C711.967 114.683 711.899 113.051 711.763 111.793C711.661 110.501 711.389 109.855 710.947 109.855C709.791 109.855 708.516 111.3 707.122 114.19C705.762 117.046 704.198 120.82 702.43 125.512L701.665 127.552C701.529 127.892 701.291 128.164 700.951 128.368C700.645 128.572 700.322 128.674 699.982 128.674C699.574 128.674 699.302 128.64 699.166 128.572C699.03 128.504 698.945 128.3 698.911 127.96L698.503 123.778L697.738 116.434C697.5 113.51 697.211 110.96 696.871 108.784C696.769 108.274 696.718 107.883 696.718 107.611C696.718 107.101 696.939 106.693 697.381 106.387C697.823 106.047 698.333 105.877 698.911 105.877C699.251 105.877 699.489 106.693 699.625 108.325C699.795 109.957 699.965 112.592 700.135 116.23L700.339 118.933C700.611 122.367 700.764 124.543 700.798 125.461C700.9 125.257 700.985 125.036 701.053 124.798C701.155 124.526 701.274 124.237 701.41 123.931C703.246 119.171 704.963 115.21 706.561 112.048C708.193 108.852 709.757 107.254 711.253 107.254C712.307 107.254 713.021 108.155 713.395 109.957C713.803 111.725 714.058 114.003 714.16 116.791C714.262 119.885 714.313 124.407 714.313 130.357Z" fill="#141EFF"/>
<path d="M679.088 177.572C679.088 178.532 678.872 179.504 678.44 180.488C678.008 181.472 677.42 182.288 676.676 182.936C675.956 183.584 675.164 183.908 674.3 183.908C673.316 183.908 672.464 183.608 671.744 183.008C671.024 182.384 670.244 181.52 669.404 180.416C668.78 179.6 668.264 179.012 667.856 178.652C667.472 178.268 667.064 178.076 666.632 178.076C665.48 178.076 664.436 178.508 663.5 179.372C662.588 180.236 661.832 181.316 661.232 182.612C661.184 182.708 661.124 182.912 661.052 183.224C660.98 183.512 660.896 183.74 660.8 183.908C660.728 184.052 660.608 184.124 660.44 184.124C659.96 184.124 659.72 183.716 659.72 182.9C659.72 182.06 660.008 181.208 660.584 180.344C661.28 179.264 662.192 178.34 663.32 177.572C664.472 176.78 665.54 176.384 666.524 176.384C667.244 176.384 667.88 176.636 668.432 177.14C669.008 177.62 669.68 178.352 670.448 179.336C671.216 180.32 671.888 181.076 672.464 181.604C673.064 182.108 673.736 182.36 674.48 182.36C675.272 182.36 675.872 181.988 676.28 181.244C676.712 180.5 677.072 179.576 677.36 178.472C677.624 177.488 677.996 176.996 678.476 176.996C678.884 176.996 679.088 177.188 679.088 177.572ZM704.692 169.004C704.692 169.196 704.608 169.4 704.44 169.616C704.272 169.808 704.056 169.904 703.792 169.904C703.72 169.904 703.468 169.844 703.036 169.724C702.628 169.58 702.244 169.508 701.884 169.508C700.732 169.508 699.424 169.568 697.96 169.688C696.496 169.808 695.284 169.976 694.324 170.192C694.396 171.344 694.456 173.168 694.504 175.664C694.576 178.136 694.612 180.74 694.612 183.476C694.612 184.628 694.588 185.912 694.54 187.328C694.516 188.744 694.468 189.62 694.396 189.956C694.348 190.22 694.18 190.436 693.892 190.604C693.628 190.772 693.352 190.856 693.064 190.856C692.896 190.856 692.752 190.784 692.632 190.64C692.512 190.496 692.452 190.328 692.452 190.136L692.488 188.876C692.632 187.004 692.704 184.7 692.704 181.964C692.704 179.996 692.68 177.752 692.632 175.232C692.584 172.688 692.536 171.116 692.488 170.516C687.688 171.044 684.484 171.536 682.876 171.992C682.588 172.088 682.264 172.136 681.904 172.136C681.472 172.136 681.052 171.98 680.644 171.668C680.236 171.356 680.032 171.02 680.032 170.66C680.032 170.42 680.104 170.252 680.248 170.156C680.392 170.036 680.572 169.976 680.788 169.976C682.156 169.904 683.308 169.832 684.244 169.76C686.38 169.568 689.068 169.268 692.308 168.86C692.308 168.116 692.32 167.588 692.344 167.276C692.392 166.964 692.476 166.808 692.596 166.808C693.052 166.808 693.46 166.988 693.82 167.348C693.892 167.42 693.952 167.612 694 167.924C694.048 168.212 694.072 168.404 694.072 168.5C694.6 168.476 695.464 168.356 696.664 168.14C699.256 167.732 701.032 167.528 701.992 167.528C703.144 167.528 703.912 167.672 704.296 167.96C704.56 168.152 704.692 168.5 704.692 169.004ZM723.307 191.504C723.307 191.792 723.211 192.032 723.019 192.224C722.827 192.44 722.575 192.548 722.263 192.548C722.023 192.548 721.819 192.488 721.651 192.368C721.483 192.272 721.399 192.128 721.399 191.936L721.471 189.452C721.591 186.5 721.651 184.088 721.651 182.216C721.651 179.48 721.459 177.572 721.075 176.492C720.691 175.388 720.247 174.836 719.743 174.836C718.615 174.836 717.199 176.588 715.495 180.092C713.791 183.572 712.147 187.376 710.563 191.504C710.443 191.84 710.275 192.164 710.059 192.476C709.867 192.788 709.663 192.944 709.447 192.944C708.919 192.944 708.655 192.776 708.655 192.44C708.655 190.976 708.595 188.24 708.475 184.232C708.355 180.2 708.259 177.548 708.187 176.276C707.971 171.98 707.767 169.328 707.575 168.32C707.383 167.312 707.287 166.772 707.287 166.7C707.287 166.46 707.419 166.28 707.683 166.16C707.947 166.04 708.283 165.98 708.691 165.98C709.027 165.98 709.267 166.748 709.411 168.284C709.579 169.796 709.699 171.74 709.771 174.116L709.807 175.124C709.855 175.868 709.891 178.004 709.915 181.532C709.939 185.036 709.951 187.616 709.951 189.272C711.055 186.512 712.087 184.052 713.047 181.892C714.031 179.732 715.159 177.716 716.431 175.844C717.703 173.948 718.879 173 719.959 173C720.871 173 721.639 173.768 722.263 175.304C722.887 176.816 723.199 179.084 723.199 182.108C723.199 183.452 723.223 185.324 723.271 187.724L723.307 191.504ZM740.572 183.548C740.572 184.484 740.224 185.564 739.528 186.788C738.832 188.012 737.848 189.068 736.576 189.956C735.304 190.82 733.852 191.252 732.22 191.252C730.612 191.252 729.424 190.808 728.656 189.92C727.888 189.032 727.504 187.928 727.504 186.608C727.504 185.456 727.708 184.028 728.116 182.324C728.548 180.62 729.148 179.096 729.916 177.752C729.964 177.656 730.156 177.308 730.492 176.708C730.852 176.084 731.248 175.616 731.68 175.304C732.112 174.968 732.568 174.8 733.048 174.8C733.264 174.8 733.456 174.86 733.624 174.98C733.816 175.076 733.912 175.208 733.912 175.376C733.912 175.424 733.84 175.544 733.696 175.736C733.576 175.904 733.48 176.036 733.408 176.132C732.592 177.116 731.932 178.088 731.428 179.048C730.756 180.272 730.228 181.484 729.844 182.684C729.484 183.884 729.304 185.192 729.304 186.608C729.304 188.504 730.456 189.452 732.76 189.452C733.84 189.452 734.836 189.14 735.748 188.516C736.684 187.892 737.428 187.136 737.98 186.248C738.532 185.336 738.808 184.508 738.808 183.764C738.808 182.924 738.532 182.192 737.98 181.568C737.428 180.944 736.672 180.284 735.712 179.588C735.088 179.132 734.632 178.76 734.344 178.472C734.056 178.184 733.912 177.944 733.912 177.752C733.912 177.464 734.116 177.236 734.524 177.068C734.932 176.876 735.412 176.78 735.964 176.78C736.276 176.78 736.48 176.804 736.576 176.852C736.672 176.876 736.72 176.936 736.72 177.032C736.72 177.08 736.672 177.164 736.576 177.284C736.504 177.38 736.468 177.464 736.468 177.536C736.468 177.608 736.708 177.848 737.188 178.256C738.148 179.048 738.952 179.852 739.6 180.668C740.248 181.484 740.572 182.444 740.572 183.548ZM766.555 190.64C766.555 190.928 766.459 191.168 766.267 191.36C766.075 191.576 765.823 191.684 765.511 191.684C765.079 191.684 764.863 191.468 764.863 191.036C764.863 186.188 764.707 182.48 764.395 179.912C764.083 177.32 763.543 176.024 762.775 176.024C761.479 176.024 759.583 180.548 757.087 189.596V189.632C757.087 189.92 756.991 190.172 756.799 190.388C756.607 190.58 756.355 190.676 756.043 190.676C755.611 190.676 755.395 190.46 755.395 190.028C755.395 189.068 755.443 187.58 755.539 185.564C755.635 183.308 755.683 181.532 755.683 180.236C755.683 178.436 755.623 177.164 755.503 176.42C755.407 175.652 755.179 175.268 754.819 175.268C754.003 175.268 752.971 176.768 751.723 179.768C750.475 182.744 749.167 186.26 747.799 190.316L747.475 191.252C747.379 191.492 747.235 191.696 747.043 191.864C746.875 192.032 746.683 192.116 746.467 192.116C746.179 192.116 745.987 192.092 745.891 192.044C745.795 191.996 745.735 191.852 745.711 191.612C745.591 190.436 745.495 188.864 745.423 186.896C745.375 186.392 745.327 185.564 745.279 184.412C745.039 180.356 744.823 177.62 744.631 176.204C744.439 174.764 744.343 173.96 744.343 173.792C744.343 173.6 744.439 173.372 744.631 173.108C744.823 172.844 745.003 172.712 745.171 172.712C745.555 172.712 745.867 172.988 746.107 173.54C746.227 173.804 746.359 174.86 746.503 176.708C746.647 178.556 746.767 180.848 746.863 183.584L747.043 189.092C748.363 185.012 749.731 181.316 751.147 178.004C752.563 174.668 753.859 173 755.035 173C755.827 173 756.367 173.576 756.655 174.728C756.943 175.88 757.087 177.548 757.087 179.732C757.087 180.884 757.063 182.54 757.015 184.7L756.979 186.356C757.963 182.924 758.935 180.044 759.895 177.716C760.879 175.388 761.863 174.224 762.847 174.224C765.319 174.224 766.555 179.696 766.555 190.64ZM786.067 188.696C786.091 188.864 786.187 189.044 786.355 189.236C786.523 189.404 786.607 189.548 786.607 189.668C786.607 189.956 786.487 190.292 786.247 190.676C786.007 191.036 785.767 191.216 785.527 191.216C785.119 191.216 784.807 190.964 784.591 190.46C784.375 189.956 784.267 189.368 784.267 188.696C784.267 188.12 784.303 186.392 784.375 183.512L784.411 182.144C784.411 181.592 784.267 181.196 783.979 180.956C782.899 182.78 781.891 184.364 780.955 185.708C780.019 187.052 778.831 188.324 777.391 189.524C775.951 190.7 774.439 191.288 772.855 191.288C772.087 191.288 771.487 191.048 771.055 190.568C770.647 190.088 770.443 189.464 770.443 188.696C770.443 187.736 770.875 186.428 771.739 184.772C772.603 183.092 773.707 181.4 775.051 179.696C776.395 177.968 777.739 176.552 779.083 175.448C779.971 174.728 780.679 174.248 781.207 174.008C781.735 173.744 782.203 173.612 782.611 173.612C782.995 173.612 783.391 173.732 783.799 173.972C784.207 174.212 784.555 174.548 784.843 174.98C785.131 175.412 785.275 175.904 785.275 176.456C785.275 177.2 785.071 177.908 784.663 178.58L785.275 178.4C785.539 178.4 785.695 178.724 785.743 179.372C785.767 179.756 785.791 180.536 785.815 181.712C785.863 182.888 785.899 183.86 785.923 184.628C785.947 185.42 785.971 186.188 785.995 186.932C786.019 187.676 786.043 188.264 786.067 188.696ZM773.359 189.344C774.655 189.344 775.903 188.864 777.103 187.904C778.303 186.944 779.371 185.804 780.307 184.484C781.267 183.14 782.323 181.496 783.475 179.552C783.763 178.832 783.907 178.052 783.907 177.212C783.907 176.708 783.751 176.276 783.439 175.916C783.151 175.532 782.755 175.34 782.251 175.34C781.651 175.34 780.883 175.748 779.947 176.564C778.867 177.476 777.727 178.7 776.527 180.236C775.327 181.748 774.331 183.248 773.539 184.736C772.747 186.224 772.351 187.4 772.351 188.264C772.351 188.984 772.687 189.344 773.359 189.344ZM803.538 185.96C803.538 187.016 803.106 188.036 802.242 189.02C801.402 189.98 800.286 190.748 798.894 191.324C797.502 191.924 796.05 192.224 794.538 192.224C793.506 192.224 792.81 192.128 792.45 191.936C792.09 191.744 791.91 191.48 791.91 191.144C791.91 190.928 792.186 190.556 792.738 190.028C793.29 189.476 793.662 189.2 793.854 189.2C794.142 189.2 794.286 189.26 794.286 189.38C794.286 189.476 794.226 189.572 794.106 189.668C793.986 189.764 793.926 189.848 793.926 189.92C793.926 190.016 794.07 190.112 794.358 190.208C794.67 190.304 795.042 190.352 795.474 190.352C796.482 190.352 797.49 190.172 798.498 189.812C799.53 189.428 800.37 188.936 801.018 188.336C801.666 187.736 801.99 187.1 801.99 186.428C801.99 185.78 801.786 185.264 801.378 184.88C800.97 184.496 800.454 184.22 799.83 184.052C799.23 183.86 798.21 183.596 796.77 183.26C795.186 182.9 793.95 182.588 793.062 182.324C792.198 182.036 791.502 181.688 790.974 181.28C790.446 180.848 790.182 180.308 790.182 179.66C790.182 178.508 790.746 177.452 791.874 176.492C793.002 175.532 794.298 174.776 795.762 174.224C797.226 173.672 798.354 173.396 799.146 173.396C799.962 173.396 800.37 173.636 800.37 174.116C800.37 174.404 800.274 174.728 800.082 175.088C799.89 175.424 799.602 175.592 799.218 175.592C799.074 175.592 798.918 175.544 798.75 175.448C798.582 175.328 798.414 175.268 798.246 175.268C797.766 175.268 797.01 175.424 795.978 175.736C794.946 176.048 794.01 176.516 793.17 177.14C792.33 177.764 791.91 178.52 791.91 179.408C791.91 179.984 792.234 180.416 792.882 180.704C793.554 180.968 794.79 181.304 796.59 181.712C796.806 181.784 797.022 181.844 797.238 181.892C797.454 181.916 797.646 181.952 797.814 182C799.662 182.432 801.078 182.924 802.062 183.476C803.046 184.028 803.538 184.856 803.538 185.96ZM839.085 179.84C839.085 180.992 838.665 182.156 837.825 183.332C836.985 184.484 835.833 185.792 834.369 187.256C833.289 188.336 832.017 189.392 830.553 190.424C829.593 191.096 828.645 191.672 827.709 192.152C826.797 192.632 826.101 192.872 825.621 192.872C825.381 192.872 825.165 192.8 824.973 192.656C824.805 192.536 824.721 192.344 824.721 192.08C824.721 191.696 824.865 191.36 825.153 191.072C825.441 190.808 825.825 190.592 826.305 190.424C826.545 190.328 826.881 190.232 827.313 190.136C827.865 190.04 828.357 189.884 828.789 189.668C829.605 189.26 830.553 188.636 831.633 187.796C832.737 186.932 833.601 186.164 834.225 185.492C835.257 184.388 836.037 183.416 836.565 182.576C837.117 181.712 837.393 180.824 837.393 179.912C837.393 179.408 837.153 179.048 836.673 178.832C836.193 178.592 835.605 178.472 834.909 178.472C833.133 178.472 831.513 178.784 830.049 179.408C829.401 179.696 828.957 179.9 828.717 180.02C827.853 180.404 827.145 180.704 826.593 180.92C825.969 181.16 825.369 181.376 824.793 181.568C824.217 181.736 823.833 181.856 823.641 181.928L823.713 183.296C823.713 183.656 823.725 184.232 823.749 185.024C823.797 185.816 823.821 186.56 823.821 187.256C823.821 188.912 823.701 190.256 823.461 191.288C823.365 191.624 823.257 191.864 823.137 192.008C823.017 192.152 822.789 192.224 822.453 192.224C822.237 192.224 822.033 192.152 821.841 192.008C821.649 191.864 821.553 191.684 821.553 191.468C821.553 191.396 821.661 190.988 821.877 190.244C822.093 189.5 822.201 188.84 822.201 188.264C822.201 186.392 822.117 184.004 821.949 181.1L821.841 179.444C821.697 177.86 821.625 176.612 821.625 175.7C821.625 175.004 821.673 174.128 821.769 173.072C821.865 171.992 821.937 171.284 821.985 170.948C821.073 171.188 819.909 171.62 818.493 172.244C818.085 172.412 817.557 172.712 816.909 173.144C816.309 173.528 815.901 173.72 815.685 173.72C815.493 173.72 815.325 173.636 815.181 173.468C815.037 173.3 814.965 173.096 814.965 172.856C814.965 172.4 815.769 171.812 817.377 171.092C818.985 170.372 820.737 169.736 822.633 169.184C824.337 168.68 825.849 168.308 827.169 168.068C828.489 167.828 829.845 167.708 831.237 167.708C832.509 167.708 833.565 167.96 834.405 168.464C835.269 168.944 835.701 169.628 835.701 170.516C835.701 172.628 834.549 174.812 832.245 177.068C833.277 176.924 834.213 176.852 835.053 176.852C836.157 176.852 837.105 177.08 837.897 177.536C838.689 177.992 839.085 178.76 839.085 179.84ZM834.009 170.984C834.009 170.408 833.733 169.976 833.181 169.688C832.629 169.376 831.885 169.22 830.949 169.22C829.965 169.22 828.729 169.34 827.241 169.58C825.753 169.796 824.601 170.036 823.785 170.3C823.377 171.932 823.173 173.3 823.173 174.404C823.173 175.964 823.245 177.932 823.389 180.308C823.629 180.284 824.013 180.188 824.541 180.02C825.093 179.852 825.597 179.672 826.053 179.48C828.333 178.52 830.229 177.272 831.741 175.736C833.253 174.2 834.009 172.616 834.009 170.984ZM856.489 181.82C856.657 181.82 856.741 182 856.741 182.36C856.741 182.792 856.417 183.74 855.769 185.204C855.145 186.668 854.185 188.024 852.889 189.272C851.617 190.52 850.045 191.144 848.173 191.144C846.637 191.144 845.353 190.664 844.321 189.704C843.289 188.744 842.773 187.268 842.773 185.276C842.773 183.404 843.205 181.556 844.069 179.732C844.933 177.884 846.061 176.384 847.453 175.232C848.845 174.056 850.285 173.468 851.773 173.468C852.661 173.468 853.405 173.672 854.005 174.08C854.629 174.464 854.941 175.028 854.941 175.772C854.941 176.612 854.461 177.428 853.501 178.22C852.565 179.012 851.341 179.708 849.829 180.308C848.317 180.908 846.757 181.34 845.149 181.604C844.861 182.708 844.717 183.788 844.717 184.844C844.717 186.236 845.041 187.316 845.689 188.084C846.361 188.852 847.309 189.236 848.533 189.236C850.381 189.236 851.881 188.576 853.033 187.256C854.185 185.936 855.145 184.448 855.913 182.792C855.961 182.696 856.045 182.516 856.165 182.252C856.285 181.964 856.393 181.82 856.489 181.82ZM853.321 176.168C853.321 175.784 853.117 175.484 852.709 175.268C852.325 175.052 851.869 174.944 851.341 174.944C850.429 174.944 849.553 175.244 848.713 175.844C847.873 176.444 847.165 177.164 846.589 178.004C846.037 178.844 845.677 179.588 845.509 180.236C846.613 180.116 847.777 179.804 849.001 179.3C850.225 178.796 851.245 178.244 852.061 177.644C852.901 177.044 853.321 176.552 853.321 176.168ZM872.288 175.844C872.288 176.06 872.132 176.312 871.82 176.6C871.532 176.864 871.28 176.996 871.064 176.996C870.896 176.996 870.728 176.924 870.56 176.78C870.416 176.636 870.248 176.432 870.056 176.168C869.888 175.928 869.66 175.724 869.372 175.556C869.108 175.388 868.832 175.304 868.544 175.304C867.848 175.304 866.912 176.228 865.736 178.076C864.56 179.9 863.408 182.204 862.28 184.988C862.304 185.54 862.34 186.236 862.388 187.076C862.46 187.916 862.508 188.54 862.532 188.948L862.64 190.388C862.64 190.724 862.568 191.012 862.424 191.252C862.28 191.516 862.016 191.648 861.632 191.648C861.224 191.648 860.96 191.108 860.84 190.028C860.72 188.924 860.648 187.328 860.624 185.24C860.6 184.712 860.576 183.956 860.552 182.972C860.552 181.988 860.528 180.812 860.48 179.444C860.408 177.38 860.372 175.904 860.372 175.016C860.372 174.464 860.708 174.188 861.38 174.188C861.788 174.188 862.028 174.368 862.1 174.728C862.196 175.064 862.244 175.724 862.244 176.708V182.432C862.964 180.584 863.744 178.988 864.584 177.644C865.424 176.3 866.24 175.28 867.032 174.584C867.848 173.864 868.568 173.504 869.192 173.504C869.72 173.504 870.224 173.624 870.704 173.864C871.184 174.104 871.568 174.416 871.856 174.8C872.144 175.16 872.288 175.508 872.288 175.844ZM887.554 175.844C887.554 176.06 887.398 176.312 887.086 176.6C886.798 176.864 886.546 176.996 886.33 176.996C886.162 176.996 885.994 176.924 885.826 176.78C885.682 176.636 885.514 176.432 885.322 176.168C885.154 175.928 884.926 175.724 884.638 175.556C884.374 175.388 884.098 175.304 883.81 175.304C883.114 175.304 882.178 176.228 881.002 178.076C879.826 179.9 878.674 182.204 877.546 184.988C877.57 185.54 877.606 186.236 877.654 187.076C877.726 187.916 877.774 188.54 877.798 188.948L877.906 190.388C877.906 190.724 877.834 191.012 877.69 191.252C877.546 191.516 877.282 191.648 876.898 191.648C876.49 191.648 876.226 191.108 876.106 190.028C875.986 188.924 875.914 187.328 875.89 185.24C875.866 184.712 875.842 183.956 875.818 182.972C875.818 181.988 875.794 180.812 875.746 179.444C875.674 177.38 875.638 175.904 875.638 175.016C875.638 174.464 875.974 174.188 876.646 174.188C877.054 174.188 877.294 174.368 877.366 174.728C877.462 175.064 877.51 175.724 877.51 176.708V182.432C878.23 180.584 879.01 178.988 879.85 177.644C880.69 176.3 881.506 175.28 882.298 174.584C883.114 173.864 883.834 173.504 884.458 173.504C884.986 173.504 885.49 173.624 885.97 173.864C886.45 174.104 886.834 174.416 887.122 174.8C887.41 175.16 887.554 175.508 887.554 175.844ZM902.388 175.088C902.388 175.64 902.256 176.84 901.992 178.688C901.704 180.8 901.548 181.988 901.524 182.252C901.212 185.204 900.984 187.46 900.84 189.02C900.72 190.556 900.66 191.948 900.66 193.196C900.66 194.228 900.732 195.044 900.876 195.644C901.044 196.244 901.212 196.712 901.38 197.048C901.572 197.408 901.668 197.624 901.668 197.696C901.668 197.912 901.476 198.104 901.092 198.272C900.708 198.44 900.312 198.524 899.904 198.524C899.592 198.524 899.34 198.104 899.148 197.264C898.98 196.424 898.896 195.116 898.896 193.34C898.896 191.996 899.028 190.184 899.292 187.904L899.832 182.936C899.184 184.184 898.38 185.384 897.42 186.536C896.484 187.664 895.512 188.228 894.504 188.228C893.568 188.228 892.728 187.412 891.984 185.78C891.24 184.148 890.652 182.3 890.22 180.236C889.812 178.172 889.608 176.66 889.608 175.7C889.608 175.1 889.788 174.8 890.148 174.8C890.676 174.8 891.012 175.292 891.156 176.276C892.068 182.948 893.34 186.284 894.972 186.284C895.62 186.284 896.184 186.032 896.664 185.528C897.168 185 897.756 184.196 898.428 183.116C898.74 182.612 899.076 181.94 899.436 181.1C899.796 180.26 900.072 179.564 900.264 179.012L900.516 175.376C900.564 174.824 900.636 174.44 900.732 174.224C900.828 173.984 901.02 173.864 901.308 173.864C901.548 173.864 901.788 174.008 902.028 174.296C902.268 174.56 902.388 174.824 902.388 175.088Z" fill="black"/>
</svg>
