<svg width="50" height="60" viewBox="0 0 50 60" fill="none" xmlns="http://www.w3.org/2000/svg">
<path d="M49.3186 24.5307C48.9986 24.8607 48.4986 25.8507 47.7686 26.0707C39.9886 28.4007 35.8686 34.1608 32.9586 41.2607C31.6986 44.3307 31.1586 47.4107 31.2886 50.6707C31.3686 52.7007 31.3986 54.7407 31.3586 56.7707C31.3286 58.3907 30.4686 59.4307 29.1886 59.5207C27.6786 59.6307 26.9886 58.6807 26.5486 57.3907C25.0486 52.9307 23.7086 48.4007 21.9686 44.0407C18.2986 34.8607 15.6486 33.3908 4.86859 33.0107C4.17859 32.9907 3.4786 33.1407 2.7886 33.1107C1.5286 33.0607 0.408599 32.6907 0.0685987 31.2707C-0.221401 30.0307 0.408604 29.0807 1.9486 28.4907C4.3886 27.5407 6.89861 26.7408 9.29861 25.6908C17.1486 22.2608 21.2686 16.2107 21.7486 7.67075C21.8386 6.09075 21.9486 4.50075 22.0586 2.92075C22.1486 1.64075 22.6586 0.590749 23.9386 0.140749C25.4086 -0.369251 26.5186 0.53075 27.0786 2.45075C28.1486 6.11075 29.1886 9.78075 30.4086 13.3907C30.9386 14.9707 31.7586 16.4907 32.6686 17.8907C34.6986 21.0307 37.9286 21.7307 41.3686 21.7807C42.9986 21.8007 44.6386 21.6408 46.2686 21.6108C48.1286 21.5807 49.3086 22.5207 49.3186 24.5307Z" fill="#2E54A6"/>
</svg>
