<svg width="83" height="81" viewBox="0 0 83 81" fill="none" xmlns="http://www.w3.org/2000/svg">
<path d="M50.9465 80.3349C43.4757 80.3122 37.6228 79.4096 32.1388 76.8833C24.0378 73.1536 19.2522 66.75 17.5207 58.0473C16.4591 52.7336 16.8508 47.5165 19.2862 42.64C20.3535 40.4998 21.8011 38.4902 23.3566 36.6679C25.6671 33.96 28.903 32.7565 32.3091 32.1491C35.1646 31.6381 37.7874 30.5311 40.4783 29.532C44.0831 28.1922 47.6993 26.773 51.4348 25.9158C56.9641 24.6498 62.3742 25.666 67.4437 28.1298C76.629 32.5975 81.6531 40.0457 82.8055 50.1279C83.3619 55.0214 82.7261 59.8071 80.8754 64.377C78.2583 70.8374 73.3818 74.9588 66.9612 77.3205C61.3353 79.3982 55.4654 80.21 50.9465 80.3349Z" fill="#C48B00"/>
<path d="M47.8865 6.27931C29.1355 13.4266 5.79764 13.0065 4.13997 26.8525C2.47663 40.6986 15.6585 62.85 42.5729 62.2937C69.4872 61.7373 80.1599 49.7249 79.2516 34.4142C78.3433 19.0978 72.8082 -3.22389 47.8865 6.27931Z" stroke="black" stroke-width="7" stroke-miterlimit="10"/>
</svg>
